<svg id="svg" version="1.1" xmlns="http://www.w3.org/2000/svg" xmlns:xlink="http://www.w3.org/1999/xlink" width="400" height="350.4" viewBox="0, 0, 400,350.4"><g id="svgg"><path id="path0" d="M113.498 60.900 C 112.868 60.995,112.469 61.310,112.346 61.811 C 111.907 63.594,112.348 100.920,112.813 101.385 C 113.178 101.749,119.537 101.876,144.526 102.016 L 175.783 102.191 176.586 103.382 C 177.387 104.571,177.388 104.600,177.388 117.714 C 177.388 131.921,177.327 132.398,175.345 133.554 C 174.802 133.871,174.804 133.897,175.363 133.907 C 177.050 133.937,177.201 135.197,177.388 150.816 C 177.522 161.991,177.669 165.540,178.010 165.880 C 178.671 166.541,221.319 166.551,221.981 165.890 C 222.334 165.538,222.476 162.219,222.612 151.166 C 222.805 135.428,222.945 134.445,225.066 133.873 C 225.575 133.736,225.692 133.622,225.347 133.602 C 225.019 133.583,224.309 132.988,223.769 132.279 L 222.787 130.992 222.787 117.818 C 222.787 105.157,222.815 104.597,223.508 103.418 L 224.228 102.191 255.643 102.016 C 272.922 101.919,287.190 101.709,287.350 101.548 C 287.511 101.388,287.642 92.245,287.642 81.231 L 287.642 61.206 286.766 60.962 C 285.849 60.707,115.176 60.645,113.498 60.900 M147.765 135.320 C 146.858 135.482,148.119 135.589,151.338 135.621 C 154.332 135.651,156.399 135.531,156.529 135.320 C 156.778 134.917,150.015 134.917,147.765 135.320 M242.945 135.320 C 243.234 135.507,245.758 135.642,248.554 135.621 C 252.277 135.593,253.215 135.508,252.060 135.302 C 249.721 134.886,242.296 134.900,242.945 135.320 M129.185 138.475 C 128.918 138.908,132.385 138.908,133.392 138.475 C 133.881 138.265,133.383 138.166,131.747 138.149 C 130.457 138.136,129.304 138.282,129.185 138.475 M266.608 138.475 C 267.623 138.911,271.665 138.911,270.990 138.475 C 270.701 138.288,269.439 138.144,268.186 138.154 C 266.592 138.168,266.118 138.264,266.608 138.475 M117.967 140.228 C 117.709 140.645,120.346 140.645,121.648 140.228 C 122.301 140.019,121.971 139.938,120.354 139.912 C 119.160 139.893,118.086 140.035,117.967 140.228 M278.177 140.228 C 279.184 140.661,282.651 140.661,282.384 140.228 C 282.265 140.035,281.112 139.888,279.822 139.902 C 278.186 139.919,277.688 140.018,278.177 140.228 M107.800 142.937 C 105.868 143.212,105.995 143.734,107.993 143.729 C 110.405 143.723,111.729 143.405,111.073 142.989 C 110.594 142.686,109.665 142.671,107.800 142.937 M288.744 142.952 C 288.451 143.426,289.698 143.723,292.007 143.729 C 294.517 143.735,293.929 143.156,291.106 142.841 C 289.787 142.694,288.877 142.737,288.744 142.952 M101.665 144.761 C 100.990 144.896,100.123 145.169,99.737 145.367 C 98.052 146.231,95.787 147.263,94.654 147.683 C 85.476 151.081,82.111 158.331,87.580 162.922 C 88.675 163.841,89.768 164.856,90.009 165.178 C 90.250 165.500,90.914 165.866,91.483 165.991 C 92.052 166.116,92.913 166.529,93.396 166.909 C 93.878 167.289,95.171 167.909,96.268 168.286 C 97.365 168.664,98.941 169.351,99.769 169.814 C 100.598 170.277,102.113 170.769,103.136 170.906 C 104.159 171.043,105.784 171.523,106.748 171.971 C 107.713 172.420,110.158 173.111,112.182 173.507 C 114.207 173.903,116.573 174.531,117.441 174.903 C 118.309 175.275,120.911 175.814,123.225 176.101 C 125.539 176.388,128.852 176.950,130.587 177.349 C 132.323 177.749,136.188 178.323,139.176 178.624 C 142.165 178.926,146.030 179.476,147.765 179.847 C 149.980 180.321,153.583 180.631,159.860 180.890 C 173.391 181.447,175.477 181.750,176.538 183.311 L 177.388 184.562 177.390 227.864 C 177.392 256.799,177.513 271.602,177.757 272.480 L 178.122 273.795 200.004 273.795 C 221.279 273.795,221.896 273.776,222.249 273.117 C 222.493 272.660,222.612 258.388,222.614 229.383 C 222.615 200.631,222.737 185.891,222.981 185.014 C 223.874 181.795,225.038 181.521,240.491 180.888 C 246.775 180.630,250.368 180.321,252.585 179.847 C 254.321 179.476,258.186 178.926,261.174 178.625 C 264.163 178.324,268.107 177.749,269.939 177.347 C 275.300 176.173,275.930 176.064,278.878 175.799 C 280.421 175.661,282.235 175.269,282.910 174.929 C 283.585 174.589,285.872 173.968,287.993 173.548 C 290.114 173.129,292.638 172.411,293.602 171.953 C 294.566 171.494,296.223 171.009,297.283 170.874 C 298.344 170.739,299.606 170.362,300.088 170.037 C 300.570 169.711,301.911 169.074,303.067 168.620 C 308.782 166.381,313.897 162.790,314.816 160.373 C 315.207 159.346,315.269 156.974,314.947 155.364 C 314.684 154.050,312.800 152.144,309.892 150.252 C 309.031 149.692,307.929 148.964,307.443 148.636 C 306.957 148.308,306.168 147.922,305.690 147.779 C 304.858 147.530,301.950 146.239,300.078 145.288 C 298.803 144.640,294.981 144.256,294.679 144.745 C 294.544 144.963,294.660 145.136,294.941 145.136 C 295.568 145.136,297.371 145.951,299.211 147.066 C 299.982 147.533,301.087 148.147,301.665 148.429 C 302.244 148.711,303.506 149.748,304.470 150.733 L 306.223 152.525 306.223 155.478 L 306.223 158.431 304.483 160.197 C 303.526 161.168,302.446 162.057,302.084 162.173 C 301.721 162.288,300.768 162.819,299.967 163.354 C 299.166 163.889,297.879 164.523,297.108 164.763 C 296.337 165.004,294.759 165.656,293.602 166.211 C 292.445 166.767,291.059 167.222,290.521 167.222 C 289.984 167.222,288.129 167.768,286.399 168.436 C 284.202 169.285,282.260 169.753,279.959 169.988 C 278.147 170.174,276.216 170.555,275.668 170.837 C 274.452 171.461,271.691 172.005,268.186 172.311 C 266.740 172.437,263.979 172.850,262.051 173.230 C 260.123 173.610,257.835 174.061,256.968 174.231 C 256.100 174.402,252.708 174.639,249.430 174.759 C 246.152 174.879,241.262 175.280,238.563 175.649 C 222.589 177.834,178.129 177.816,162.054 175.617 C 159.307 175.242,155.600 174.933,153.815 174.931 C 149.381 174.927,143.140 174.344,140.683 173.703 C 139.565 173.412,136.836 172.937,134.619 172.647 C 126.119 171.537,125.339 171.401,124.566 170.895 C 124.129 170.608,122.307 170.220,120.518 170.031 C 116.975 169.658,116.134 169.454,113.234 168.262 C 112.174 167.826,110.451 167.345,109.406 167.193 C 108.361 167.040,107.083 166.602,106.565 166.220 C 106.047 165.837,104.933 165.337,104.088 165.110 C 102.618 164.714,100.770 163.828,98.188 162.279 C 91.019 157.981,92.338 150.955,101.052 147.025 C 101.775 146.699,102.366 146.315,102.366 146.173 C 102.366 146.031,103.066 145.708,103.921 145.455 C 106.625 144.657,104.875 144.118,101.665 144.761 " stroke="none" fill="#f7fbf9" fill-rule="evenodd"></path><path id="path1" d="M112.054 60.323 L 111.131 61.050 111.131 81.155 L 111.131 101.261 112.038 102.339 L 112.946 103.418 144.095 103.418 L 175.245 103.418 175.791 104.197 C 176.522 105.241,176.623 130.797,175.898 131.379 C 175.657 131.572,171.911 132.067,167.572 132.479 C 163.234 132.891,158.186 133.386,156.354 133.580 C 154.522 133.773,150.124 134.165,146.581 134.452 C 143.038 134.739,139.251 135.200,138.167 135.478 C 137.083 135.755,134.145 136.222,131.639 136.516 C 129.132 136.809,125.504 137.454,123.576 137.949 C 121.648 138.444,118.729 139.068,117.090 139.336 C 114.158 139.815,107.124 141.784,102.070 143.540 C 100.653 144.032,99.258 144.435,98.969 144.435 C 98.680 144.435,97.630 144.877,96.636 145.417 C 95.642 145.957,94.277 146.616,93.602 146.882 C 92.927 147.148,91.716 147.810,90.910 148.354 C 90.104 148.898,89.337 149.343,89.206 149.343 C 88.541 149.343,84.914 153.161,84.245 154.565 C 82.282 158.686,84.534 163.246,90.096 166.413 C 90.964 166.907,92.068 167.581,92.550 167.911 C 93.032 168.241,94.294 168.841,95.355 169.244 C 96.415 169.647,97.914 170.283,98.685 170.657 C 99.457 171.031,100.706 171.449,101.461 171.585 C 102.216 171.721,104.012 172.301,105.451 172.872 C 106.890 173.444,109.221 174.133,110.631 174.402 C 112.040 174.672,113.906 175.135,114.777 175.430 C 115.648 175.726,117.432 176.136,118.741 176.341 C 120.051 176.546,122.108 176.944,123.313 177.226 C 124.518 177.508,126.490 177.969,127.695 178.251 C 128.900 178.532,131.522 178.927,133.522 179.128 C 135.521 179.328,138.913 179.798,141.059 180.170 C 143.205 180.543,147.918 181.095,151.534 181.397 C 174.113 183.283,175.118 183.391,175.730 184.003 C 176.065 184.338,176.200 194.384,176.337 229.078 C 176.506 272.355,176.532 273.744,177.180 274.459 C 177.845 275.195,177.922 275.197,200.210 275.197 L 222.572 275.197 223.118 274.418 C 223.605 273.723,223.664 268.942,223.665 230.159 C 223.667 187.709,223.742 184.475,224.740 183.858 C 225.458 183.415,231.892 182.752,246.626 181.606 C 252.262 181.168,255.434 180.792,261.350 179.861 C 263.663 179.497,267.055 179.028,268.887 178.820 C 270.719 178.612,273.479 178.120,275.022 177.727 C 276.564 177.335,279.167 176.780,280.806 176.496 C 282.445 176.211,285.157 175.586,286.832 175.106 C 288.507 174.626,290.202 174.233,290.597 174.233 C 290.993 174.233,292.976 173.602,295.004 172.831 C 297.033 172.060,299.003 171.429,299.383 171.429 C 300.672 171.429,309.771 166.977,311.696 165.405 C 317.778 160.437,318.240 155.497,313.035 151.075 C 310.044 148.533,303.583 145.124,299.737 144.057 C 298.484 143.710,296.354 143.031,295.004 142.550 C 291.183 141.187,286.177 139.841,282.910 139.298 C 281.271 139.026,278.037 138.355,275.723 137.808 C 273.409 137.260,269.860 136.622,267.835 136.390 C 265.811 136.157,263.187 135.743,262.006 135.470 C 260.824 135.197,257.038 134.741,253.592 134.456 C 250.146 134.172,245.749 133.773,243.821 133.570 C 241.893 133.367,236.845 132.878,232.603 132.484 C 225.774 131.851,224.820 131.686,224.277 131.051 C 223.531 130.179,223.331 107.282,224.051 105.216 C 224.695 103.369,223.807 103.418,256.533 103.418 L 287.345 103.418 288.084 102.629 C 289.534 101.081,289.571 100.545,289.571 80.757 L 289.571 61.646 288.546 60.622 L 287.521 59.597 200.250 59.597 L 112.978 59.597 112.054 60.323 M286.766 60.962 L 287.642 61.206 287.642 81.231 C 287.642 92.245,287.511 101.388,287.350 101.548 C 287.190 101.709,272.922 101.919,255.643 102.016 L 224.228 102.191 223.508 103.418 C 222.815 104.597,222.787 105.157,222.787 117.818 L 222.787 130.992 223.769 132.279 C 224.309 132.988,225.019 133.583,225.347 133.602 C 225.692 133.622,225.575 133.736,225.066 133.873 C 222.945 134.445,222.805 135.428,222.612 151.166 C 222.476 162.219,222.334 165.538,221.981 165.890 C 221.319 166.551,178.671 166.541,178.010 165.880 C 177.669 165.540,177.522 161.991,177.388 150.816 C 177.201 135.197,177.050 133.937,175.363 133.907 C 174.804 133.897,174.802 133.871,175.345 133.554 C 177.327 132.398,177.388 131.921,177.388 117.714 C 177.388 104.600,177.387 104.571,176.586 103.382 L 175.783 102.191 144.526 102.016 C 119.537 101.876,113.178 101.749,112.813 101.385 C 112.348 100.920,111.907 63.594,112.346 61.811 C 112.469 61.310,112.868 60.995,113.498 60.900 C 115.176 60.645,285.849 60.707,286.766 60.962 M156.529 135.320 C 156.399 135.531,154.332 135.651,151.338 135.621 C 148.119 135.589,146.858 135.482,147.765 135.320 C 150.015 134.917,156.778 134.917,156.529 135.320 M252.060 135.302 C 253.215 135.508,252.277 135.593,248.554 135.621 C 245.758 135.642,243.234 135.507,242.945 135.320 C 242.296 134.900,249.721 134.886,252.060 135.302 M175.802 136.354 C 176.255 137.231,176.337 139.527,176.337 151.409 L 176.337 165.430 177.125 166.289 C 179.016 168.347,219.785 168.695,222.861 166.680 L 223.663 166.154 223.665 152.402 C 223.668 134.125,223.310 135.057,230.094 135.661 C 232.245 135.853,237.160 136.259,241.017 136.562 C 254.566 137.630,256.083 137.783,258.182 138.298 C 259.346 138.583,262.664 139.056,265.557 139.348 C 268.449 139.641,271.998 140.204,273.444 140.600 C 274.890 140.997,277.755 141.616,279.811 141.976 C 281.867 142.337,284.012 142.871,284.578 143.164 C 285.145 143.457,286.697 143.886,288.027 144.118 C 289.358 144.349,291.315 144.965,292.375 145.485 C 293.436 146.006,294.934 146.637,295.706 146.887 C 301.938 148.910,306.280 153.218,305.490 156.596 C 304.965 158.844,299.462 162.925,295.180 164.244 C 294.698 164.392,293.499 164.880,292.516 165.328 C 291.533 165.776,289.518 166.392,288.038 166.698 C 286.559 167.003,284.661 167.548,283.822 167.908 C 282.983 168.267,280.659 168.821,278.659 169.138 C 276.659 169.456,273.839 170.027,272.393 170.409 C 270.947 170.791,268.028 171.261,265.907 171.455 C 263.786 171.648,261.183 171.966,260.123 172.161 C 252.476 173.567,245.917 174.156,221.385 175.644 C 215.207 176.018,184.585 176.023,178.966 175.650 C 176.652 175.496,170.894 175.118,166.170 174.808 C 150.768 173.799,148.208 173.540,140.053 172.158 C 138.896 171.961,136.289 171.646,134.259 171.456 C 132.230 171.266,128.996 170.730,127.073 170.265 C 125.149 169.799,122.314 169.223,120.771 168.984 C 119.229 168.746,116.964 168.173,115.738 167.712 C 114.513 167.252,112.559 166.721,111.396 166.534 C 110.234 166.347,108.518 165.794,107.584 165.305 C 106.649 164.817,105.704 164.417,105.482 164.417 C 104.169 164.417,97.779 160.777,96.281 159.176 C 92.506 155.139,96.052 149.407,103.769 147.075 C 104.251 146.929,105.749 146.302,107.099 145.681 C 108.449 145.060,110.642 144.359,111.973 144.124 C 113.303 143.889,114.853 143.458,115.416 143.167 C 115.979 142.876,117.808 142.401,119.482 142.112 C 121.155 141.823,124.338 141.144,126.556 140.604 C 128.773 140.063,132.666 139.431,135.208 139.198 C 137.749 138.965,140.668 138.549,141.693 138.273 C 143.554 137.772,145.037 137.619,158.282 136.554 C 162.138 136.245,166.635 135.862,168.273 135.704 C 174.375 135.116,175.198 135.187,175.802 136.354 M133.392 138.475 C 132.385 138.908,128.918 138.908,129.185 138.475 C 129.304 138.282,130.457 138.136,131.747 138.149 C 133.383 138.166,133.881 138.265,133.392 138.475 M270.990 138.475 C 271.665 138.911,267.623 138.911,266.608 138.475 C 266.118 138.264,266.592 138.168,268.186 138.154 C 269.439 138.144,270.701 138.288,270.990 138.475 M121.648 140.228 C 120.346 140.645,117.709 140.645,117.967 140.228 C 118.086 140.035,119.160 139.893,120.354 139.912 C 121.971 139.938,122.301 140.019,121.648 140.228 M282.384 140.228 C 282.651 140.661,279.184 140.661,278.177 140.228 C 277.688 140.018,278.186 139.919,279.822 139.902 C 281.112 139.888,282.265 140.035,282.384 140.228 M111.073 142.989 C 111.422 143.211,111.333 143.341,110.722 143.505 C 109.421 143.853,106.036 143.779,106.415 143.410 C 107.014 142.828,110.344 142.527,111.073 142.989 M293.585 143.407 C 293.791 143.609,293.192 143.732,292.007 143.729 C 289.698 143.723,288.451 143.426,288.744 142.952 C 289.002 142.534,293.086 142.918,293.585 143.407 M105.303 144.715 C 105.398 144.870,104.777 145.203,103.921 145.455 C 103.066 145.708,102.366 146.031,102.366 146.173 C 102.366 146.315,101.775 146.699,101.052 147.025 C 92.338 150.955,91.019 157.981,98.188 162.279 C 100.770 163.828,102.618 164.714,104.088 165.110 C 104.933 165.337,106.047 165.837,106.565 166.220 C 107.083 166.602,108.361 167.040,109.406 167.193 C 110.451 167.345,112.174 167.826,113.234 168.262 C 116.134 169.454,116.975 169.658,120.518 170.031 C 122.307 170.220,124.129 170.608,124.566 170.895 C 125.339 171.401,126.119 171.537,134.619 172.647 C 136.836 172.937,139.565 173.412,140.683 173.703 C 143.140 174.344,149.381 174.927,153.815 174.931 C 155.600 174.933,159.307 175.242,162.054 175.617 C 178.129 177.816,222.589 177.834,238.563 175.649 C 241.262 175.280,246.152 174.879,249.430 174.759 C 252.708 174.639,256.100 174.402,256.968 174.231 C 257.835 174.061,260.123 173.610,262.051 173.230 C 263.979 172.850,266.740 172.437,268.186 172.311 C 271.691 172.005,274.452 171.461,275.668 170.837 C 276.216 170.555,278.147 170.174,279.959 169.988 C 282.260 169.753,284.202 169.285,286.399 168.436 C 288.129 167.768,289.984 167.222,290.521 167.222 C 291.059 167.222,292.445 166.767,293.602 166.211 C 294.759 165.656,296.337 165.004,297.108 164.763 C 297.879 164.523,299.166 163.889,299.967 163.354 C 300.768 162.819,301.721 162.288,302.084 162.173 C 302.446 162.057,303.526 161.168,304.483 160.197 L 306.223 158.431 306.223 155.478 L 306.223 152.525 304.470 150.733 C 303.506 149.748,302.244 148.711,301.665 148.429 C 301.087 148.147,299.982 147.533,299.211 147.066 C 297.371 145.951,295.568 145.136,294.941 145.136 C 294.660 145.136,294.544 144.963,294.679 144.745 C 294.981 144.256,298.803 144.640,300.078 145.288 C 301.950 146.239,304.858 147.530,305.690 147.779 C 306.168 147.922,306.957 148.308,307.443 148.636 C 307.929 148.964,309.031 149.692,309.892 150.252 C 312.800 152.144,314.684 154.050,314.947 155.364 C 315.269 156.974,315.207 159.346,314.816 160.373 C 313.897 162.790,308.782 166.381,303.067 168.620 C 301.911 169.074,300.570 169.711,300.088 170.037 C 299.606 170.362,298.344 170.739,297.283 170.874 C 296.223 171.009,294.566 171.494,293.602 171.953 C 292.638 172.411,290.114 173.129,287.993 173.548 C 285.872 173.968,283.585 174.589,282.910 174.929 C 282.235 175.269,280.421 175.661,278.878 175.799 C 275.930 176.064,275.300 176.173,269.939 177.347 C 268.107 177.749,264.163 178.324,261.174 178.625 C 258.186 178.926,254.321 179.476,252.585 179.847 C 250.368 180.321,246.775 180.630,240.491 180.888 C 225.038 181.521,223.874 181.795,222.981 185.014 C 222.737 185.891,222.615 200.631,222.614 229.383 C 222.612 258.388,222.493 272.660,222.249 273.117 C 221.896 273.776,221.279 273.795,200.004 273.795 L 178.122 273.795 177.757 272.480 C 177.513 271.602,177.392 256.799,177.390 227.864 L 177.388 184.562 176.538 183.311 C 175.477 181.750,173.391 181.447,159.860 180.890 C 153.583 180.631,149.980 180.321,147.765 179.847 C 146.030 179.476,142.165 178.926,139.176 178.624 C 136.188 178.323,132.323 177.749,130.587 177.349 C 128.852 176.950,125.539 176.388,123.225 176.101 C 120.911 175.814,118.309 175.275,117.441 174.903 C 116.573 174.531,114.207 173.903,112.182 173.507 C 110.158 173.111,107.713 172.420,106.748 171.971 C 105.784 171.523,104.159 171.043,103.136 170.906 C 102.113 170.769,100.598 170.277,99.769 169.814 C 98.941 169.351,97.365 168.664,96.268 168.286 C 95.171 167.909,93.878 167.289,93.396 166.909 C 92.913 166.529,92.052 166.116,91.483 165.991 C 90.914 165.866,90.250 165.500,90.009 165.178 C 89.768 164.856,88.675 163.841,87.580 162.922 C 84.846 160.627,84.011 157.106,85.528 154.271 C 86.312 152.806,92.098 148.629,94.654 147.683 C 95.787 147.263,98.052 146.231,99.737 145.367 C 101.180 144.627,104.974 144.183,105.303 144.715 " stroke="none" fill="#a5e1d2" fill-rule="evenodd"></path><path id="path2" d="M111.884 59.374 C 109.698 60.165,109.754 59.599,109.741 81.062 C 109.727 102.514,109.740 102.652,111.808 103.874 C 112.736 104.422,115.265 104.470,143.548 104.470 C 164.061 104.470,174.505 104.590,174.957 104.833 C 175.809 105.288,176.042 130.653,175.197 130.926 C 174.956 131.004,171.288 131.247,167.046 131.467 C 162.805 131.686,157.835 132.093,156.004 132.371 C 154.172 132.648,151.648 133.035,150.394 133.229 C 149.141 133.423,145.828 133.734,143.032 133.920 C 139.791 134.136,136.679 134.578,134.444 135.140 C 132.517 135.624,130.150 136.022,129.186 136.024 C 126.606 136.028,123.225 136.646,120.245 137.658 C 118.799 138.150,116.417 138.691,114.951 138.860 C 113.485 139.030,111.233 139.565,109.947 140.049 C 108.661 140.533,107.276 140.929,106.868 140.929 C 106.461 140.929,104.555 141.560,102.632 142.331 C 100.710 143.103,98.870 143.734,98.542 143.734 C 98.215 143.734,96.221 144.608,94.110 145.677 C 83.102 151.253,80.326 155.604,83.817 161.811 C 85.368 164.569,92.819 170.026,95.034 170.026 C 95.261 170.026,95.971 170.350,96.610 170.745 C 97.249 171.140,98.905 171.777,100.290 172.161 C 101.675 172.545,103.447 173.167,104.227 173.544 C 105.008 173.921,106.882 174.464,108.393 174.751 C 109.904 175.038,111.572 175.490,112.100 175.757 C 112.627 176.024,114.952 176.587,117.266 177.009 C 119.579 177.432,122.498 178.079,123.751 178.448 C 125.004 178.817,128.002 179.288,130.412 179.496 C 132.822 179.704,135.898 180.173,137.248 180.539 C 140.001 181.285,143.699 181.763,150.920 182.306 C 153.620 182.508,157.879 182.912,160.386 183.203 C 162.892 183.494,167.161 183.854,169.871 184.004 C 172.582 184.153,174.988 184.391,175.218 184.533 C 175.537 184.731,175.637 195.097,175.644 228.680 C 175.652 270.627,175.742 274.743,176.677 275.678 C 177.182 276.183,220.861 276.586,222.436 276.100 C 224.454 275.478,224.341 278.130,224.353 230.806 C 224.360 206.681,224.460 186.462,224.577 185.877 C 224.843 184.551,225.113 184.472,230.850 184.054 C 233.357 183.871,237.379 183.491,239.790 183.209 C 242.200 182.927,246.538 182.521,249.430 182.307 C 257.247 181.729,260.761 181.279,263.103 180.556 C 264.259 180.199,267.300 179.728,269.859 179.510 C 272.418 179.292,275.494 178.813,276.695 178.446 C 277.896 178.079,280.771 177.433,283.085 177.010 C 285.399 176.588,287.720 176.026,288.242 175.761 C 288.765 175.497,290.343 175.042,291.748 174.751 C 293.153 174.459,295.329 173.812,296.582 173.313 C 297.835 172.813,299.693 172.186,300.710 171.919 C 301.728 171.651,302.913 171.201,303.345 170.918 C 303.777 170.635,304.791 170.170,305.599 169.886 C 311.570 167.779,317.967 161.492,317.967 157.729 C 317.967 155.118,314.482 150.293,311.481 148.748 C 310.903 148.450,310.191 147.998,309.899 147.743 C 308.930 146.898,302.258 143.734,301.429 143.726 C 300.980 143.722,299.904 143.391,299.036 142.990 C 296.678 141.902,294.847 141.275,292.963 140.912 C 292.033 140.733,290.771 140.361,290.158 140.085 C 288.568 139.368,287.952 139.220,284.941 138.839 C 283.465 138.652,281.340 138.173,280.217 137.774 C 277.277 136.730,275.715 136.421,271.451 136.038 C 269.366 135.851,266.398 135.362,264.855 134.952 C 263.130 134.493,260.162 134.094,257.143 133.915 C 254.443 133.756,249.632 133.226,246.450 132.740 C 243.228 132.246,237.250 131.672,232.954 131.444 C 228.712 131.218,225.038 130.869,224.790 130.669 C 224.134 130.139,224.329 105.766,224.995 105.100 C 225.360 104.736,231.729 104.610,256.722 104.470 C 273.921 104.373,288.260 104.163,288.585 104.002 C 290.475 103.070,290.440 103.476,290.535 81.683 C 290.632 59.564,290.687 60.169,288.519 59.390 C 286.756 58.757,113.633 58.741,111.884 59.374 M288.546 60.622 L 289.571 61.646 289.571 80.757 C 289.571 100.545,289.534 101.081,288.084 102.629 L 287.345 103.418 256.533 103.418 C 223.807 103.418,224.695 103.369,224.051 105.216 C 223.331 107.282,223.531 130.179,224.277 131.051 C 224.820 131.686,225.774 131.851,232.603 132.484 C 236.845 132.878,241.893 133.367,243.821 133.570 C 245.749 133.773,250.146 134.172,253.592 134.456 C 257.038 134.741,260.824 135.197,262.006 135.470 C 263.187 135.743,265.811 136.157,267.835 136.390 C 269.860 136.622,273.409 137.260,275.723 137.808 C 278.037 138.355,281.271 139.026,282.910 139.298 C 286.177 139.841,291.183 141.187,295.004 142.550 C 296.354 143.031,298.484 143.710,299.737 144.057 C 303.583 145.124,310.044 148.533,313.035 151.075 C 318.240 155.497,317.778 160.437,311.696 165.405 C 309.771 166.977,300.672 171.429,299.383 171.429 C 299.003 171.429,297.033 172.060,295.004 172.831 C 292.976 173.602,290.993 174.233,290.597 174.233 C 290.202 174.233,288.507 174.626,286.832 175.106 C 285.157 175.586,282.445 176.211,280.806 176.496 C 279.167 176.780,276.564 177.335,275.022 177.727 C 273.479 178.120,270.719 178.612,268.887 178.820 C 267.055 179.028,263.663 179.497,261.350 179.861 C 255.434 180.792,252.262 181.168,246.626 181.606 C 231.892 182.752,225.458 183.415,224.740 183.858 C 223.742 184.475,223.667 187.709,223.665 230.159 C 223.664 268.942,223.605 273.723,223.118 274.418 L 222.572 275.197 200.210 275.197 C 177.922 275.197,177.845 275.195,177.180 274.459 C 176.532 273.744,176.506 272.355,176.337 229.078 C 176.200 194.384,176.065 184.338,175.730 184.003 C 175.118 183.391,174.113 183.283,151.534 181.397 C 147.918 181.095,143.205 180.543,141.059 180.170 C 138.913 179.798,135.521 179.328,133.522 179.128 C 131.522 178.927,128.900 178.532,127.695 178.251 C 126.490 177.969,124.518 177.508,123.313 177.226 C 122.108 176.944,120.051 176.546,118.741 176.341 C 117.432 176.136,115.648 175.726,114.777 175.430 C 113.906 175.135,112.040 174.672,110.631 174.402 C 109.221 174.133,106.890 173.444,105.451 172.872 C 104.012 172.301,102.216 171.721,101.461 171.585 C 100.706 171.449,99.457 171.031,98.685 170.657 C 97.914 170.283,96.415 169.647,95.355 169.244 C 94.294 168.841,93.032 168.241,92.550 167.911 C 92.068 167.581,90.964 166.907,90.096 166.413 C 84.534 163.246,82.282 158.686,84.245 154.565 C 84.914 153.161,88.541 149.343,89.206 149.343 C 89.337 149.343,90.104 148.898,90.910 148.354 C 91.716 147.810,92.927 147.148,93.602 146.882 C 94.277 146.616,95.642 145.957,96.636 145.417 C 97.630 144.877,98.680 144.435,98.969 144.435 C 99.258 144.435,100.653 144.032,102.070 143.540 C 107.124 141.784,114.158 139.815,117.090 139.336 C 118.729 139.068,121.648 138.444,123.576 137.949 C 125.504 137.454,129.132 136.809,131.639 136.516 C 134.145 136.222,137.083 135.755,138.167 135.478 C 139.251 135.200,143.038 134.739,146.581 134.452 C 150.124 134.165,154.522 133.773,156.354 133.580 C 158.186 133.386,163.234 132.891,167.572 132.479 C 171.911 132.067,175.657 131.572,175.898 131.379 C 176.623 130.797,176.522 105.241,175.791 104.197 L 175.245 103.418 144.095 103.418 L 112.946 103.418 112.038 102.339 L 111.131 101.261 111.131 81.155 L 111.131 61.050 112.054 60.323 L 112.978 59.597 200.250 59.597 L 287.521 59.597 288.546 60.622 M168.273 135.704 C 166.635 135.862,162.138 136.245,158.282 136.554 C 145.037 137.619,143.554 137.772,141.693 138.273 C 140.668 138.549,137.749 138.965,135.208 139.198 C 132.666 139.431,128.773 140.063,126.556 140.604 C 124.338 141.144,121.155 141.823,119.482 142.112 C 117.808 142.401,115.979 142.876,115.416 143.167 C 114.853 143.458,113.303 143.889,111.973 144.124 C 110.642 144.359,108.449 145.060,107.099 145.681 C 105.749 146.302,104.251 146.929,103.769 147.075 C 96.052 149.407,92.506 155.139,96.281 159.176 C 97.779 160.777,104.169 164.417,105.482 164.417 C 105.704 164.417,106.649 164.817,107.584 165.305 C 108.518 165.794,110.234 166.347,111.396 166.534 C 112.559 166.721,114.513 167.252,115.738 167.712 C 116.964 168.173,119.229 168.746,120.771 168.984 C 122.314 169.223,125.149 169.799,127.073 170.265 C 128.996 170.730,132.230 171.266,134.259 171.456 C 136.289 171.646,138.896 171.961,140.053 172.158 C 148.208 173.540,150.768 173.799,166.170 174.808 C 170.894 175.118,176.652 175.496,178.966 175.650 C 184.585 176.023,215.207 176.018,221.385 175.644 C 245.917 174.156,252.476 173.567,260.123 172.161 C 261.183 171.966,263.786 171.648,265.907 171.455 C 268.028 171.261,270.947 170.791,272.393 170.409 C 273.839 170.027,276.659 169.456,278.659 169.138 C 280.659 168.821,282.983 168.267,283.822 167.908 C 284.661 167.548,286.559 167.003,288.038 166.698 C 289.518 166.392,291.533 165.776,292.516 165.328 C 293.499 164.880,294.698 164.392,295.180 164.244 C 299.462 162.925,304.965 158.844,305.490 156.596 C 306.280 153.218,301.938 148.910,295.706 146.887 C 294.934 146.637,293.436 146.006,292.375 145.485 C 291.315 144.965,289.358 144.349,288.027 144.118 C 286.697 143.886,285.145 143.457,284.578 143.164 C 284.012 142.871,281.867 142.337,279.811 141.976 C 277.755 141.616,274.890 140.997,273.444 140.600 C 271.998 140.204,268.449 139.641,265.557 139.348 C 262.664 139.056,259.346 138.583,258.182 138.298 C 256.083 137.783,254.566 137.630,241.017 136.562 C 237.160 136.259,232.245 135.853,230.094 135.661 C 223.310 135.057,223.668 134.125,223.665 152.402 L 223.663 166.154 222.861 166.680 C 219.785 168.695,179.016 168.347,177.125 166.289 L 176.337 165.430 176.337 151.409 C 176.337 133.360,177.103 134.853,168.273 135.704 M175.367 137.217 C 175.509 137.427,175.627 143.864,175.630 151.522 C 175.637 170.258,174.265 168.384,188.431 169.000 C 205.524 169.744,222.202 168.996,223.552 167.426 L 224.365 166.481 224.365 152.342 C 224.365 139.106,224.406 138.151,225.013 137.401 L 225.662 136.600 232.463 137.017 C 248.356 137.990,250.683 138.182,254.173 138.807 C 256.192 139.169,259.658 139.578,261.876 139.716 C 264.463 139.878,267.351 140.339,269.939 141.003 C 272.156 141.573,275.682 142.266,277.775 142.545 C 279.867 142.823,282.034 143.287,282.590 143.574 C 283.146 143.862,284.880 144.340,286.443 144.636 C 288.006 144.933,290.163 145.576,291.235 146.067 C 292.307 146.557,293.988 147.195,294.970 147.485 C 295.953 147.775,296.915 148.137,297.108 148.289 C 297.301 148.442,298.405 149.068,299.562 149.682 C 306.428 153.321,306.314 157.751,299.262 161.266 C 298.133 161.829,297.028 162.437,296.808 162.618 C 296.587 162.799,295.723 163.129,294.888 163.352 C 294.053 163.576,292.396 164.207,291.207 164.756 C 290.018 165.305,288.019 165.936,286.766 166.159 C 285.513 166.382,283.698 166.853,282.732 167.207 C 281.767 167.560,279.717 168.030,278.175 168.252 C 273.875 168.870,271.710 169.307,269.413 170.020 C 268.256 170.379,265.101 170.848,262.401 171.061 C 259.702 171.275,256.074 171.681,254.338 171.964 C 231.872 175.631,169.584 175.723,147.064 172.123 C 144.750 171.753,140.570 171.273,137.774 171.056 C 134.963 170.839,131.750 170.373,130.587 170.015 C 128.292 169.308,126.101 168.867,121.888 168.261 C 120.381 168.045,118.567 167.618,117.856 167.313 C 117.146 167.007,115.223 166.481,113.585 166.144 C 111.946 165.806,109.185 164.959,107.450 164.260 C 93.987 158.843,91.847 154.322,100.531 149.649 C 101.637 149.054,102.699 148.442,102.892 148.289 C 103.085 148.137,104.032 147.774,104.996 147.483 C 105.960 147.192,107.641 146.554,108.731 146.064 C 109.822 145.574,111.873 144.943,113.289 144.661 C 114.705 144.380,116.731 143.836,117.791 143.452 C 118.852 143.069,120.903 142.645,122.349 142.510 C 123.795 142.375,126.161 141.952,127.607 141.569 C 133.056 140.129,134.192 139.923,137.949 139.695 C 140.070 139.566,143.462 139.163,145.486 138.800 C 147.511 138.437,151.928 137.969,155.302 137.761 C 158.677 137.552,164.198 137.188,167.572 136.951 C 173.841 136.512,174.915 136.548,175.367 137.217 " stroke="none" fill="#5ccab1" fill-rule="evenodd"></path><path id="path3" d="M62.642 15.087 C 61.826 16.252,61.900 16.627,62.774 15.754 C 63.172 15.356,63.438 14.853,63.366 14.636 C 63.293 14.420,62.968 14.622,62.642 15.087 M336.771 15.250 C 336.882 15.539,337.123 15.776,337.306 15.776 C 337.490 15.776,337.542 15.933,337.423 16.126 C 337.304 16.319,337.374 16.477,337.578 16.477 C 338.043 16.477,338.045 16.258,337.586 15.402 C 337.161 14.607,336.475 14.479,336.771 15.250 M341.019 24.072 C 341.261 24.169,341.377 24.383,341.276 24.546 C 341.175 24.709,341.410 25.065,341.797 25.336 C 342.185 25.608,342.398 25.934,342.271 26.061 C 342.143 26.189,342.234 26.293,342.472 26.293 C 342.756 26.293,342.824 26.022,342.670 25.504 C 342.417 24.651,341.546 23.822,340.950 23.866 C 340.745 23.882,340.777 23.974,341.019 24.072 M57.473 25.119 C 57.279 25.630,57.191 26.222,57.279 26.433 C 57.366 26.645,57.451 26.526,57.466 26.168 C 57.484 25.728,57.670 25.584,58.037 25.725 C 58.337 25.840,58.495 25.795,58.390 25.624 C 58.285 25.454,58.444 25.220,58.745 25.105 C 59.045 24.990,59.193 24.737,59.073 24.542 C 58.665 23.884,57.828 24.185,57.473 25.119 M52.909 36.010 C 52.442 36.535,52.311 36.773,52.618 36.539 C 52.925 36.306,53.260 36.199,53.362 36.301 C 53.464 36.403,53.632 36.165,53.735 35.772 C 53.975 34.854,53.928 34.868,52.909 36.010 M355.828 56.537 C 355.828 56.829,356.065 57.159,356.354 57.270 C 356.643 57.381,356.880 57.338,356.880 57.175 C 356.880 57.012,356.643 56.682,356.354 56.442 C 355.926 56.086,355.828 56.104,355.828 56.537 M111.049 58.850 C 108.511 59.436,108.677 57.880,108.677 81.200 C 108.677 101.675,108.692 102.132,109.396 103.273 C 110.871 105.659,109.049 105.537,142.894 105.525 C 162.140 105.519,173.805 105.643,174.377 105.860 L 175.285 106.205 175.285 118.293 L 175.285 130.380 174.145 130.554 C 173.519 130.649,168.904 130.807,163.891 130.904 C 156.090 131.055,154.499 131.178,152.848 131.757 C 151.454 132.246,149.455 132.499,145.622 132.673 C 142.708 132.805,139.474 133.053,138.435 133.224 C 134.127 133.933,132.745 134.267,131.941 134.793 C 131.341 135.187,129.641 135.439,126.108 135.658 C 122.161 135.903,120.832 136.120,119.733 136.696 C 118.969 137.096,117.944 137.427,117.454 137.432 C 115.707 137.449,108.879 139.127,108.512 139.629 C 108.292 139.929,107.200 140.244,105.865 140.392 C 104.616 140.531,103.120 140.875,102.542 141.158 C 100.845 141.986,97.369 143.323,96.231 143.584 C 95.653 143.717,94.864 144.094,94.479 144.421 C 94.093 144.749,93.139 145.198,92.359 145.419 C 91.579 145.641,90.292 146.378,89.499 147.057 C 88.706 147.735,87.898 148.291,87.704 148.291 C 87.129 148.291,83.121 152.183,82.869 152.986 C 82.742 153.392,82.344 154.101,81.985 154.561 C 81.259 155.490,81.030 159.982,81.688 160.389 C 81.883 160.510,82.378 161.268,82.787 162.075 C 83.507 163.496,84.168 164.216,86.641 166.273 C 88.590 167.896,88.667 167.947,89.897 168.461 C 90.550 168.734,91.139 169.123,91.207 169.326 C 91.274 169.529,92.182 169.919,93.224 170.194 C 94.265 170.469,95.210 170.827,95.324 170.989 C 95.841 171.730,98.335 172.832,100.301 173.188 C 101.488 173.404,102.872 173.869,103.377 174.222 C 103.911 174.595,105.236 174.952,106.547 175.075 C 107.785 175.192,109.047 175.498,109.351 175.756 C 110.459 176.696,114.196 177.733,117.727 178.081 C 120.026 178.307,121.532 178.624,121.858 178.951 C 122.483 179.576,123.549 179.752,128.309 180.018 C 131.867 180.217,132.644 180.371,137.949 181.929 C 139.904 182.504,141.984 182.709,148.183 182.940 C 153.067 183.121,156.143 183.377,156.444 183.628 C 157.184 184.242,162.618 184.744,168.551 184.747 C 173.234 184.750,173.998 184.830,174.592 185.384 C 175.257 186.003,175.274 186.999,175.366 230.989 L 175.460 275.960 176.288 276.631 C 177.333 277.477,222.658 277.698,223.753 276.862 C 225.848 275.262,225.779 276.892,225.761 229.357 C 225.747 190.481,225.802 185.967,226.294 185.475 C 226.739 185.030,228.159 184.883,233.755 184.704 C 240.817 184.478,243.131 184.228,243.913 183.606 C 244.157 183.413,247.913 183.114,252.260 182.943 C 260.215 182.630,261.699 182.391,266.959 180.582 C 267.537 180.382,270.174 180.085,272.819 179.921 C 276.543 179.689,277.776 179.488,278.284 179.028 C 278.743 178.612,280.031 178.330,282.580 178.087 C 286.000 177.762,290.661 176.423,291.154 175.626 C 291.256 175.461,292.445 175.217,293.797 175.084 C 295.311 174.934,296.560 174.602,297.048 174.218 C 297.484 173.875,298.734 173.429,299.826 173.227 C 301.929 172.838,304.235 171.820,304.943 170.966 C 305.177 170.684,306.055 170.350,306.895 170.224 C 307.734 170.098,308.700 169.687,309.041 169.310 C 309.382 168.933,309.806 168.624,309.982 168.624 C 310.476 168.624,313.527 166.466,314.043 165.752 C 314.295 165.404,314.728 165.118,315.007 165.118 C 315.285 165.118,315.513 164.986,315.513 164.823 C 315.513 164.661,315.836 164.148,316.230 163.684 C 319.537 159.794,319.782 156.902,317.142 152.936 C 316.211 151.538,315.329 150.394,315.182 150.394 C 315.036 150.394,314.420 149.921,313.815 149.343 C 313.210 148.764,312.563 148.291,312.377 148.291 C 312.191 148.291,311.660 147.936,311.197 147.502 C 309.661 146.063,308.804 145.556,307.507 145.316 C 306.801 145.186,305.907 144.805,305.521 144.469 C 305.136 144.134,303.479 143.420,301.840 142.883 C 300.202 142.346,298.612 141.686,298.307 141.417 C 298.003 141.149,296.425 140.743,294.801 140.515 C 293.178 140.287,291.691 139.894,291.499 139.640 C 291.094 139.107,288.682 138.455,283.995 137.611 C 282.181 137.285,280.333 136.779,279.887 136.486 C 279.330 136.122,277.504 135.857,274.063 135.641 C 270.181 135.399,268.739 135.169,267.668 134.623 C 266.907 134.235,265.834 133.918,265.284 133.918 C 264.734 133.918,263.976 133.753,263.600 133.552 C 263.224 133.351,259.645 132.972,255.647 132.711 C 250.755 132.391,247.863 132.044,246.801 131.649 C 245.531 131.178,243.358 131.024,235.654 130.859 C 226.769 130.669,226.059 130.607,225.732 129.996 C 225.031 128.687,225.300 106.563,226.023 106.014 C 226.531 105.629,232.183 105.542,257.188 105.533 C 289.973 105.521,289.174 105.563,290.805 103.761 C 291.478 103.017,291.502 102.357,291.597 81.727 C 291.705 58.207,291.825 59.450,289.386 58.885 C 287.827 58.523,112.610 58.489,111.049 58.850 M288.519 59.390 C 290.687 60.169,290.632 59.564,290.535 81.683 C 290.440 103.476,290.475 103.070,288.585 104.002 C 288.260 104.163,273.921 104.373,256.722 104.470 C 231.729 104.610,225.360 104.736,224.995 105.100 C 224.329 105.766,224.134 130.139,224.790 130.669 C 225.038 130.869,228.712 131.218,232.954 131.444 C 237.250 131.672,243.228 132.246,246.450 132.740 C 249.632 133.226,254.443 133.756,257.143 133.915 C 260.162 134.094,263.130 134.493,264.855 134.952 C 266.398 135.362,269.366 135.851,271.451 136.038 C 275.715 136.421,277.277 136.730,280.217 137.774 C 281.340 138.173,283.465 138.652,284.941 138.839 C 287.952 139.220,288.568 139.368,290.158 140.085 C 290.771 140.361,292.033 140.733,292.963 140.912 C 294.847 141.275,296.678 141.902,299.036 142.990 C 299.904 143.391,300.980 143.722,301.429 143.726 C 302.258 143.734,308.930 146.898,309.899 147.743 C 310.191 147.998,310.903 148.450,311.481 148.748 C 314.482 150.293,317.967 155.118,317.967 157.729 C 317.967 161.492,311.570 167.779,305.599 169.886 C 304.791 170.170,303.777 170.635,303.345 170.918 C 302.913 171.201,301.728 171.651,300.710 171.919 C 299.693 172.186,297.835 172.813,296.582 173.313 C 295.329 173.812,293.153 174.459,291.748 174.751 C 290.343 175.042,288.765 175.497,288.242 175.761 C 287.720 176.026,285.399 176.588,283.085 177.010 C 280.771 177.433,277.896 178.079,276.695 178.446 C 275.494 178.813,272.418 179.292,269.859 179.510 C 267.300 179.728,264.259 180.199,263.103 180.556 C 260.761 181.279,257.247 181.729,249.430 182.307 C 246.538 182.521,242.200 182.927,239.790 183.209 C 237.379 183.491,233.357 183.871,230.850 184.054 C 225.113 184.472,224.843 184.551,224.577 185.877 C 224.460 186.462,224.360 206.681,224.353 230.806 C 224.341 278.130,224.454 275.478,222.436 276.100 C 220.861 276.586,177.182 276.183,176.677 275.678 C 175.742 274.743,175.652 270.627,175.644 228.680 C 175.637 195.097,175.537 184.731,175.218 184.533 C 174.988 184.391,172.582 184.153,169.871 184.004 C 167.161 183.854,162.892 183.494,160.386 183.203 C 157.879 182.912,153.620 182.508,150.920 182.306 C 143.699 181.763,140.001 181.285,137.248 180.539 C 135.898 180.173,132.822 179.704,130.412 179.496 C 128.002 179.288,125.004 178.817,123.751 178.448 C 122.498 178.079,119.579 177.432,117.266 177.009 C 114.952 176.587,112.627 176.024,112.100 175.757 C 111.572 175.490,109.904 175.038,108.393 174.751 C 106.882 174.464,105.008 173.921,104.227 173.544 C 103.447 173.167,101.675 172.545,100.290 172.161 C 98.905 171.777,97.249 171.140,96.610 170.745 C 95.971 170.350,95.261 170.026,95.034 170.026 C 92.819 170.026,85.368 164.569,83.817 161.811 C 81.099 156.978,82.976 151.971,88.809 148.493 C 91.538 146.867,97.945 143.734,98.542 143.734 C 98.870 143.734,100.710 143.103,102.632 142.331 C 104.555 141.560,106.461 140.929,106.868 140.929 C 107.276 140.929,108.661 140.533,109.947 140.049 C 111.233 139.565,113.485 139.030,114.951 138.860 C 116.417 138.691,118.799 138.150,120.245 137.658 C 123.225 136.646,126.606 136.028,129.186 136.024 C 130.150 136.022,132.517 135.624,134.444 135.140 C 136.679 134.578,139.791 134.136,143.032 133.920 C 145.828 133.734,149.141 133.423,150.394 133.229 C 151.648 133.035,154.172 132.648,156.004 132.371 C 157.835 132.093,162.805 131.686,167.046 131.467 C 171.288 131.247,174.956 131.004,175.197 130.926 C 176.042 130.653,175.809 105.288,174.957 104.833 C 174.505 104.590,164.061 104.470,143.548 104.470 C 115.265 104.470,112.736 104.422,111.808 103.874 C 109.740 102.652,109.727 102.514,109.741 81.062 C 109.754 59.599,109.698 60.165,111.884 59.374 C 113.633 58.741,286.756 58.757,288.519 59.390 M40.386 62.822 C 40.154 63.053,39.977 63.566,39.993 63.961 C 40.008 64.357,40.100 64.482,40.198 64.240 C 40.295 63.997,40.559 63.904,40.784 64.033 C 41.008 64.162,41.079 64.142,40.941 63.989 C 40.804 63.836,40.849 63.417,41.041 63.056 C 41.434 62.322,41.030 62.178,40.386 62.822 M358.983 63.030 C 358.983 63.216,359.238 63.579,359.550 63.837 C 360.040 64.244,360.099 64.218,359.988 63.646 C 359.856 62.965,358.983 62.430,358.983 63.030 M35.262 72.793 C 34.973 73.544,35.071 73.599,36.044 73.231 C 36.490 73.062,36.757 72.765,36.636 72.571 C 36.299 72.025,35.507 72.153,35.262 72.793 M362.489 72.491 C 362.489 72.781,364.637 73.692,364.841 73.488 C 364.906 73.423,364.860 73.110,364.738 72.793 C 364.517 72.216,362.489 71.943,362.489 72.491 M378.265 104.384 C 378.265 104.577,378.501 104.931,378.791 105.171 C 379.084 105.414,379.316 105.452,379.316 105.257 C 379.316 105.064,379.080 104.710,378.791 104.470 C 378.497 104.226,378.265 104.188,378.265 104.384 M17.967 110.830 C 17.726 111.072,17.528 111.566,17.528 111.927 C 17.528 112.524,17.578 112.533,18.080 112.031 C 18.383 111.728,18.580 111.234,18.518 110.934 C 18.427 110.496,18.319 110.475,17.967 110.830 M381.537 111.281 C 381.537 111.567,381.655 111.728,381.799 111.639 C 381.943 111.550,382.151 111.675,382.260 111.917 C 382.370 112.159,382.422 112.055,382.378 111.685 C 382.281 110.887,381.537 110.529,381.537 111.281 M12.833 120.800 C 12.490 121.695,12.610 122.228,13.003 121.553 C 13.202 121.211,13.537 121.038,13.748 121.169 C 13.967 121.304,14.032 121.245,13.899 121.031 C 13.772 120.825,13.866 120.576,14.108 120.478 C 14.350 120.381,14.211 120.288,13.797 120.273 C 13.384 120.258,12.950 120.495,12.833 120.800 M386.310 121.009 C 387.083 121.838,387.528 121.741,387.175 120.821 C 387.053 120.505,386.649 120.245,386.277 120.245 C 385.618 120.245,385.619 120.266,386.310 121.009 M167.572 136.951 C 164.198 137.188,158.677 137.552,155.302 137.761 C 151.928 137.969,147.511 138.437,145.486 138.800 C 143.462 139.163,140.070 139.566,137.949 139.695 C 134.192 139.923,133.056 140.129,127.607 141.569 C 126.161 141.952,123.795 142.375,122.349 142.510 C 120.903 142.645,118.852 143.069,117.791 143.452 C 116.731 143.836,114.705 144.380,113.289 144.661 C 111.873 144.943,109.822 145.574,108.731 146.064 C 107.641 146.554,105.960 147.192,104.996 147.483 C 104.032 147.774,103.085 148.137,102.892 148.289 C 102.699 148.442,101.637 149.054,100.531 149.649 C 91.847 154.322,93.987 158.843,107.450 164.260 C 109.185 164.959,111.946 165.806,113.585 166.144 C 115.223 166.481,117.146 167.007,117.856 167.313 C 118.567 167.618,120.381 168.045,121.888 168.261 C 126.101 168.867,128.292 169.308,130.587 170.015 C 131.750 170.373,134.963 170.839,137.774 171.056 C 140.570 171.273,144.750 171.753,147.064 172.123 C 163.737 174.788,201.914 175.583,232.603 173.903 C 245.510 173.197,248.322 172.946,254.338 171.964 C 256.074 171.681,259.702 171.275,262.401 171.061 C 265.101 170.848,268.256 170.379,269.413 170.020 C 271.710 169.307,273.875 168.870,278.175 168.252 C 279.717 168.030,281.767 167.560,282.732 167.207 C 283.698 166.853,285.513 166.382,286.766 166.159 C 288.019 165.936,290.018 165.305,291.207 164.756 C 292.396 164.207,294.053 163.576,294.888 163.352 C 295.723 163.129,296.587 162.799,296.808 162.618 C 297.028 162.437,298.133 161.829,299.262 161.266 C 306.314 157.751,306.428 153.321,299.562 149.682 C 298.405 149.068,297.301 148.442,297.108 148.289 C 296.915 148.137,295.953 147.775,294.970 147.485 C 293.988 147.195,292.307 146.557,291.235 146.067 C 290.163 145.576,288.006 144.933,286.443 144.636 C 284.880 144.340,283.146 143.862,282.590 143.574 C 282.034 143.287,279.867 142.823,277.775 142.545 C 275.682 142.266,272.156 141.573,269.939 141.003 C 267.351 140.339,264.463 139.878,261.876 139.716 C 259.658 139.578,256.192 139.169,254.173 138.807 C 250.683 138.182,248.356 137.990,232.463 137.017 L 225.662 136.600 225.013 137.401 C 224.406 138.151,224.365 139.106,224.365 152.342 L 224.365 166.481 223.552 167.426 C 222.202 168.996,205.524 169.744,188.431 169.000 C 174.265 168.384,175.637 170.258,175.630 151.522 C 175.627 143.864,175.509 137.427,175.367 137.217 C 174.915 136.548,173.841 136.512,167.572 136.951 M174.479 137.990 L 175.250 138.197 175.355 153.051 C 175.475 170.057,175.260 169.006,178.753 169.669 C 181.069 170.108,220.109 170.143,221.983 169.708 C 225.191 168.962,225.416 167.779,225.416 151.655 C 225.416 139.465,225.461 138.479,226.030 138.224 C 227.238 137.680,247.545 138.282,248.904 138.901 C 249.587 139.212,252.542 139.711,255.565 140.026 C 266.577 141.174,267.631 141.326,269.555 142.033 C 270.905 142.530,272.718 142.810,275.372 142.932 C 278.183 143.062,279.514 143.279,280.280 143.731 C 281.358 144.367,285.099 145.476,288.503 146.169 C 289.554 146.384,290.676 146.796,290.996 147.085 C 291.316 147.375,292.428 147.709,293.466 147.828 C 294.505 147.948,295.482 148.261,295.638 148.524 C 295.794 148.787,297.071 149.548,298.477 150.215 C 305.331 153.467,305.366 157.231,298.573 160.629 C 297.381 161.225,296.158 161.926,295.855 162.187 C 295.552 162.447,294.526 162.756,293.576 162.873 C 292.627 162.990,291.455 163.356,290.973 163.686 C 289.923 164.405,286.596 165.431,284.036 165.827 C 283.016 165.984,281.593 166.420,280.873 166.795 C 279.943 167.280,278.449 167.552,275.715 167.736 C 273.599 167.878,270.999 168.275,269.939 168.619 C 264.500 170.382,262.787 170.675,256.968 170.836 C 252.684 170.955,250.774 171.152,249.606 171.594 C 248.367 172.063,246.071 172.258,238.913 172.505 C 233.900 172.677,226.722 172.993,222.962 173.206 C 209.824 173.951,193.219 174.026,180.933 173.397 C 174.645 173.074,165.635 172.671,160.911 172.499 C 154.267 172.258,151.965 172.053,150.745 171.592 C 149.571 171.149,147.689 170.959,143.383 170.851 C 137.532 170.704,136.021 170.448,130.237 168.624 C 129.045 168.248,126.415 167.856,124.168 167.720 C 121.899 167.582,120.024 167.302,119.786 167.064 C 119.200 166.480,117.175 165.819,115.972 165.819 C 114.771 165.819,110.764 164.583,109.027 163.676 C 108.352 163.324,107.051 162.942,106.135 162.829 C 105.219 162.715,104.470 162.474,104.470 162.294 C 104.470 162.114,103.326 161.414,101.928 160.738 C 94.829 157.303,94.754 153.475,101.721 150.097 C 103.006 149.474,104.248 148.734,104.481 148.452 C 104.715 148.171,105.384 147.940,105.969 147.940 C 106.553 147.940,107.854 147.551,108.860 147.075 C 109.865 146.600,111.379 146.111,112.224 145.989 C 114.458 145.668,118.567 144.379,119.297 143.771 C 119.736 143.405,121.234 143.170,124.266 142.993 C 126.852 142.842,129.077 142.527,129.772 142.213 C 131.723 141.331,132.176 141.266,147.415 139.670 C 148.571 139.548,150.070 139.200,150.745 138.895 C 151.730 138.450,153.945 138.298,161.963 138.125 C 167.458 138.007,172.349 137.882,172.831 137.847 C 173.313 137.812,174.054 137.877,174.479 137.990 M3.519 141.346 C 3.126 141.768,2.817 142.280,2.832 142.485 C 2.847 142.690,2.939 142.660,3.037 142.419 C 3.134 142.178,3.525 141.981,3.906 141.981 C 4.287 141.981,4.507 141.833,4.395 141.652 C 4.284 141.471,4.471 141.160,4.813 140.961 C 5.385 140.628,5.387 140.599,4.834 140.589 C 4.504 140.583,3.912 140.924,3.519 141.346 M394.919 140.925 C 394.795 141.126,394.940 141.181,395.263 141.057 C 395.571 140.939,395.776 140.981,395.720 141.149 C 395.664 141.317,395.776 141.508,395.968 141.572 C 396.161 141.637,396.556 141.874,396.845 142.098 C 397.312 142.461,397.312 142.429,396.845 141.805 C 395.928 140.582,395.306 140.298,394.919 140.925 M17.528 179.384 C 17.528 180.151,18.795 181.497,19.167 181.126 C 19.294 180.998,19.205 180.894,18.969 180.894 C 18.732 180.894,18.624 180.757,18.728 180.589 C 18.831 180.421,18.604 179.923,18.222 179.483 C 17.562 178.722,17.528 178.717,17.528 179.384 M381.549 180.010 C 381.253 180.782,381.579 181.022,382.088 180.408 C 382.375 180.062,382.390 179.833,382.135 179.676 C 381.932 179.550,381.668 179.701,381.549 180.010 M56.065 217.121 C 57.069 218.224,57.108 218.238,56.991 217.441 C 56.941 217.103,56.758 216.825,56.584 216.822 C 56.409 216.819,56.030 216.675,55.741 216.503 C 55.451 216.330,55.597 216.608,56.065 217.121 M62.599 223.688 C 63.327 224.493,63.453 224.521,63.453 223.880 C 63.453 223.613,63.123 223.308,62.720 223.203 C 62.016 223.019,62.011 223.038,62.599 223.688 M336.985 223.215 C 336.744 223.301,336.547 223.629,336.547 223.943 C 336.547 224.463,336.600 224.462,337.140 223.922 C 337.773 223.288,337.701 222.959,336.985 223.215 M292.202 266.431 C 291.852 266.818,291.728 267.134,291.927 267.134 C 292.368 267.134,293.243 266.132,293.007 265.896 C 292.914 265.804,292.552 266.044,292.202 266.431 M115.337 274.464 C 115.337 274.627,115.548 274.935,115.805 275.149 C 116.158 275.441,116.272 275.413,116.272 275.031 C 116.272 274.754,116.062 274.446,115.805 274.347 C 115.548 274.248,115.337 274.301,115.337 274.464 M283.961 274.671 C 283.714 274.970,283.590 275.293,283.686 275.389 C 283.783 275.486,284.064 275.320,284.312 275.022 C 284.560 274.723,284.684 274.400,284.587 274.304 C 284.491 274.207,284.209 274.373,283.961 274.671 M120.015 279.320 C 120.371 279.726,120.890 279.970,121.170 279.863 C 121.734 279.647,121.611 279.389,120.891 279.280 C 120.632 279.241,120.184 279.068,119.895 278.896 C 119.555 278.693,119.598 278.843,120.015 279.320 M279.469 279.073 C 279.023 279.252,278.763 279.567,278.890 279.774 C 279.089 280.096,280.456 279.266,280.456 278.824 C 280.456 278.676,280.466 278.673,279.469 279.073 M274.932 283.085 C 275.075 283.243,274.876 283.595,274.488 283.866 C 273.815 284.338,273.844 285.241,274.518 284.824 C 275.201 284.402,275.565 283.312,275.111 283.050 C 274.869 282.911,274.789 282.927,274.932 283.085 M130.762 288.869 C 131.695 289.599,132.165 289.743,132.165 289.297 C 132.165 289.146,131.652 288.834,131.025 288.603 L 129.886 288.182 130.762 288.869 M133.065 290.999 C 133.810 291.823,133.879 291.832,133.770 291.090 C 133.723 290.768,133.407 290.465,133.069 290.415 C 132.485 290.329,132.485 290.358,133.065 290.999 M139.163 296.908 C 139.791 298.082,140.501 298.441,140.320 297.493 C 140.231 297.027,139.861 296.568,139.498 296.473 C 138.962 296.333,138.899 296.415,139.163 296.908 M260.096 296.670 C 259.796 297.651,259.876 297.984,260.322 297.613 C 260.594 297.388,260.730 297.064,260.624 296.893 C 260.443 296.599,260.155 296.477,260.096 296.670 M246.658 310.146 C 247.270 310.593,247.853 310.467,247.853 309.887 C 247.853 309.708,247.450 309.594,246.957 309.635 C 246.152 309.702,246.121 309.753,246.658 310.146 M207.040 348.343 C 206.743 349.118,206.991 349.299,207.504 348.681 C 207.753 348.381,207.788 348.096,207.591 347.974 C 207.409 347.861,207.161 348.027,207.040 348.343 M192.112 348.248 C 192.112 348.321,192.349 348.577,192.638 348.817 C 193.069 349.174,193.164 349.150,193.164 348.684 C 193.164 348.372,192.927 348.116,192.638 348.116 C 192.349 348.116,192.112 348.175,192.112 348.248 " stroke="none" fill="#22bc99" fill-rule="evenodd"></path><path id="path4" d="M69.763 1.258 C 69.763 2.119,69.528 2.708,69.017 3.121 C 68.488 3.550,68.220 4.255,68.096 5.544 C 67.954 7.025,67.800 7.362,67.265 7.362 C 66.904 7.362,66.627 7.480,66.650 7.625 C 66.756 8.295,66.583 9.109,66.345 9.059 C 65.414 8.862,64.970 9.606,64.894 11.488 C 64.803 13.718,64.816 13.687,63.923 13.823 C 63.484 13.889,63.313 14.160,63.388 14.673 C 63.487 15.354,63.135 15.605,62.288 15.458 C 62.129 15.430,62.103 15.576,62.230 15.782 C 62.358 15.988,62.272 16.386,62.040 16.666 C 61.807 16.945,61.696 17.474,61.792 17.840 C 61.914 18.306,61.705 18.625,61.098 18.902 C 60.548 19.152,60.302 19.488,60.428 19.815 C 60.537 20.100,60.467 20.333,60.272 20.333 C 60.076 20.333,59.942 20.530,59.974 20.771 C 60.192 22.457,59.902 24.189,59.401 24.189 C 59.100 24.189,58.953 24.348,59.073 24.542 C 59.193 24.737,59.045 24.990,58.745 25.105 C 58.444 25.220,58.296 25.471,58.414 25.663 C 58.536 25.860,58.309 25.841,57.894 25.618 C 57.281 25.291,57.193 25.315,57.365 25.763 C 57.479 26.059,57.379 26.534,57.143 26.818 C 56.907 27.103,56.795 27.692,56.895 28.129 C 57.127 29.143,56.765 29.974,56.091 29.974 C 55.699 29.974,55.540 30.466,55.467 31.902 C 55.340 34.384,55.211 34.706,54.349 34.706 C 53.958 34.706,53.656 34.825,53.679 34.969 C 53.827 35.907,53.573 36.407,53.005 36.297 C 52.351 36.171,52.107 37.147,52.111 39.877 C 52.112 40.836,51.983 41.017,51.297 41.017 C 50.528 41.017,50.482 41.144,50.482 43.295 C 50.482 45.478,50.446 45.574,49.626 45.574 C 49.156 45.574,48.671 45.734,48.550 45.930 C 48.429 46.126,48.159 46.181,47.950 46.051 C 47.723 45.911,47.670 45.979,47.819 46.221 C 47.957 46.444,47.931 46.626,47.761 46.626 C 47.591 46.626,47.415 47.435,47.370 48.423 C 47.292 50.138,46.637 51.429,46.112 50.904 C 45.977 50.768,45.898 50.815,45.937 51.008 C 45.976 51.201,45.969 51.477,45.922 51.621 C 45.711 52.274,45.659 52.675,45.618 53.988 C 45.587 54.961,45.418 55.390,45.064 55.390 C 44.468 55.390,42.751 57.008,43.040 57.297 C 43.148 57.405,43.087 57.493,42.903 57.493 C 42.720 57.493,42.532 58.394,42.486 59.494 C 42.409 61.335,41.958 62.241,41.318 61.845 C 41.175 61.757,41.052 61.965,41.042 62.306 C 41.006 63.666,40.887 64.115,40.608 63.943 C 40.447 63.844,40.313 63.969,40.310 64.221 C 40.306 64.581,40.238 64.575,39.998 64.196 C 39.782 63.854,39.621 64.129,39.452 65.128 C 39.321 65.906,38.976 66.834,38.687 67.189 C 38.397 67.545,38.274 67.599,38.413 67.309 C 38.607 66.905,38.565 66.876,38.232 67.184 C 37.866 67.521,37.672 68.939,37.535 72.277 C 37.514 72.778,35.772 73.527,35.028 73.355 C 34.828 73.309,34.694 74.400,34.619 76.671 C 34.591 77.525,34.408 77.819,33.856 77.898 C 33.104 78.005,33.057 78.170,32.991 80.982 C 32.956 82.440,32.881 82.563,32.001 82.614 C 30.546 82.699,29.914 83.766,29.839 86.266 C 29.764 88.777,29.657 89.045,28.726 89.045 C 28.152 89.045,28.046 89.295,28.046 90.642 C 28.046 92.292,26.324 94.581,25.477 94.057 C 25.285 93.939,25.243 94.024,25.383 94.249 C 25.520 94.472,25.491 94.654,25.317 94.654 C 25.144 94.654,24.973 95.457,24.938 96.439 C 24.883 98.007,24.216 99.472,23.764 99.019 C 23.676 98.932,23.579 99.058,23.546 99.299 C 23.153 102.222,22.991 102.609,21.567 104.010 C 20.174 105.381,20.073 105.611,20.029 107.495 C 19.986 109.377,19.539 110.280,18.860 109.860 C 18.706 109.765,18.580 110.102,18.580 110.609 C 18.580 111.693,17.702 112.788,17.390 112.092 C 17.283 111.852,17.222 112.051,17.254 112.533 C 17.320 113.514,16.360 115.552,15.733 115.761 C 15.487 115.843,15.325 116.683,15.325 117.879 C 15.325 118.969,15.229 119.850,15.112 119.837 C 14.098 119.718,13.534 119.930,14.023 120.245 C 14.405 120.492,14.423 120.587,14.090 120.591 C 13.833 120.594,13.741 120.774,13.881 121.001 C 14.037 121.252,13.977 121.310,13.724 121.154 C 13.496 121.013,13.224 121.143,13.107 121.448 C 12.992 121.748,12.787 121.926,12.653 121.843 C 12.518 121.760,12.364 122.273,12.311 122.984 C 12.258 123.695,12.188 124.625,12.155 125.050 C 12.117 125.530,11.797 125.897,11.308 126.020 C 10.875 126.129,10.539 126.333,10.561 126.474 C 10.893 128.637,10.458 130.591,9.633 130.638 C 8.518 130.703,7.623 131.426,7.868 132.064 C 7.971 132.332,7.924 132.471,7.764 132.372 C 7.603 132.273,7.447 133.014,7.417 134.019 C 7.371 135.534,7.197 135.990,6.397 136.693 C 5.867 137.159,5.473 137.593,5.521 137.657 C 5.906 138.170,5.500 140.328,4.926 140.820 C 4.550 141.141,4.323 141.534,4.421 141.693 C 4.519 141.851,4.342 141.981,4.027 141.981 C 3.063 141.981,2.593 142.779,2.503 144.569 C 2.441 145.801,2.215 146.444,1.698 146.862 C 1.171 147.289,0.946 147.953,0.855 149.353 C 0.787 150.402,0.567 151.316,0.366 151.383 C 0.131 151.461,0.000 153.674,0.000 157.575 L 0.000 163.646 1.280 163.949 C 2.273 164.184,2.589 164.448,2.683 165.123 C 2.751 165.603,3.136 166.231,3.538 166.521 C 3.941 166.810,4.753 167.480,5.343 168.011 C 5.932 168.541,6.627 168.975,6.888 168.975 C 7.149 168.975,7.362 169.255,7.362 169.598 C 7.362 170.529,8.363 171.779,9.110 171.779 C 9.871 171.779,10.960 172.748,10.690 173.185 C 10.589 173.348,10.844 173.533,11.257 173.595 C 11.760 173.670,12.137 174.112,12.401 174.934 C 12.706 175.881,13.076 176.251,14.023 176.556 C 14.848 176.821,15.287 177.197,15.363 177.705 C 15.425 178.119,15.662 178.436,15.889 178.408 C 16.816 178.293,17.179 178.471,17.206 179.053 C 17.223 179.443,17.299 179.502,17.415 179.214 C 17.545 178.889,17.782 178.976,18.256 179.523 C 18.619 179.941,18.831 180.421,18.728 180.589 C 18.624 180.757,18.715 180.894,18.931 180.894 C 19.146 180.894,19.225 181.052,19.106 181.245 C 18.987 181.437,19.209 181.595,19.600 181.595 C 20.071 181.595,20.246 181.764,20.120 182.094 C 19.892 182.688,20.984 183.348,22.194 183.348 C 23.001 183.348,23.278 183.849,23.503 185.716 C 23.520 185.860,23.879 186.162,24.300 186.387 C 24.721 186.612,25.066 187.006,25.066 187.262 C 25.066 187.525,25.704 187.862,26.537 188.037 C 27.907 188.326,28.016 188.435,28.115 189.616 C 28.199 190.626,28.382 190.908,29.010 190.997 C 29.443 191.059,29.818 191.256,29.842 191.435 C 29.866 191.615,29.906 191.959,29.930 192.200 C 29.955 192.455,30.594 192.683,31.464 192.746 C 32.843 192.846,32.957 192.930,32.997 193.885 C 33.074 195.698,33.115 195.791,33.882 195.901 C 34.296 195.960,34.710 196.294,34.801 196.644 C 34.903 197.032,35.481 197.401,36.287 197.592 C 37.454 197.868,37.622 198.043,37.738 199.102 C 37.900 200.578,37.909 200.587,39.501 200.846 C 40.593 201.023,40.844 201.233,41.087 202.171 C 41.257 202.828,41.673 203.380,42.099 203.515 C 42.497 203.642,42.737 203.830,42.633 203.934 C 42.181 204.386,43.230 205.423,44.351 205.633 C 45.024 205.759,45.594 206.003,45.618 206.174 C 45.642 206.345,45.681 206.652,45.706 206.855 C 45.730 207.058,46.080 207.571,46.484 207.994 C 46.887 208.418,47.406 209.119,47.635 209.553 C 47.945 210.139,48.365 210.342,49.267 210.342 C 49.991 210.342,50.493 210.519,50.509 210.780 C 50.586 212.041,50.906 212.593,52.294 213.864 C 53.129 214.629,53.985 215.189,54.195 215.109 C 54.679 214.925,55.110 215.236,55.604 216.126 C 55.817 216.512,56.212 216.828,56.480 216.829 C 56.764 216.830,56.950 217.160,56.926 217.618 C 56.893 218.224,57.075 218.405,57.714 218.405 C 58.171 218.405,58.545 218.613,58.545 218.868 C 58.545 219.469,60.159 220.873,60.499 220.568 C 60.643 220.439,60.642 220.539,60.497 220.790 C 60.189 221.323,62.103 223.313,62.924 223.313 C 63.219 223.313,63.453 223.623,63.453 224.014 C 63.453 224.400,63.571 224.696,63.716 224.674 C 64.490 224.552,64.855 224.788,64.855 225.410 C 64.855 225.858,65.166 226.182,65.732 226.324 C 66.214 226.445,66.608 226.767,66.608 227.041 C 66.608 227.314,66.963 227.685,67.397 227.867 C 68.586 228.364,69.763 229.489,69.763 230.129 C 69.763 230.441,70.039 230.794,70.377 230.913 C 70.714 231.032,71.325 231.430,71.733 231.797 C 72.142 232.164,72.928 232.585,73.481 232.732 C 74.257 232.940,74.502 233.226,74.561 233.995 C 74.681 235.554,74.935 235.933,75.862 235.933 C 76.719 235.933,77.826 236.738,77.826 237.361 C 77.826 237.540,78.142 237.686,78.528 237.686 C 78.974 237.686,79.229 237.920,79.229 238.329 C 79.229 238.682,79.347 239.090,79.492 239.235 C 79.636 239.379,79.755 239.682,79.755 239.907 C 79.755 240.131,79.939 240.316,80.164 240.316 C 80.389 240.316,80.691 240.434,80.836 240.578 C 80.980 240.723,81.388 240.841,81.741 240.841 C 82.146 240.841,82.384 241.096,82.384 241.530 C 82.384 241.909,82.681 242.378,83.045 242.573 C 83.409 242.767,84.036 243.486,84.440 244.170 C 84.938 245.015,85.512 245.481,86.233 245.625 C 86.815 245.742,87.292 246.058,87.292 246.328 C 87.292 246.598,87.702 246.974,88.204 247.165 C 88.798 247.391,89.047 247.692,88.917 248.029 C 88.785 248.374,89.008 248.619,89.583 248.764 C 90.097 248.893,90.447 249.234,90.447 249.606 C 90.447 249.975,90.795 250.318,91.295 250.444 C 91.885 250.592,92.217 250.990,92.384 251.752 C 92.572 252.605,92.926 252.965,93.990 253.383 C 94.890 253.736,95.355 254.139,95.355 254.567 C 95.355 254.972,95.607 255.215,96.028 255.215 C 96.491 255.215,96.774 255.543,96.932 256.266 C 97.176 257.376,98.271 258.370,99.251 258.370 C 99.583 258.370,99.932 258.749,100.056 259.246 C 100.209 259.853,100.517 260.123,101.058 260.123 C 101.647 260.123,101.853 260.342,101.892 261.007 C 101.960 262.187,102.575 262.867,103.900 263.229 C 104.503 263.393,104.955 263.711,104.906 263.935 C 104.856 264.159,105.211 264.523,105.695 264.743 C 106.178 264.963,106.573 265.344,106.573 265.589 C 106.573 265.834,106.889 266.135,107.274 266.258 C 107.899 266.456,108.121 266.832,108.029 267.537 C 108.012 267.663,108.369 267.858,108.822 267.972 C 109.274 268.085,109.727 268.495,109.829 268.883 C 109.940 269.306,110.307 269.588,110.747 269.588 C 111.233 269.588,111.481 269.812,111.481 270.251 C 111.481 270.658,111.805 270.996,112.319 271.125 C 112.836 271.254,113.138 271.571,113.108 271.951 C 113.077 272.336,113.343 272.608,113.815 272.675 C 114.274 272.741,114.654 273.118,114.785 273.638 C 114.903 274.108,115.115 274.474,115.256 274.452 C 115.846 274.362,116.386 274.514,116.348 274.759 C 116.228 275.516,116.466 275.861,117.178 275.962 C 117.699 276.036,117.932 276.279,117.866 276.677 C 117.802 277.063,118.059 277.355,118.580 277.485 C 119.028 277.598,119.547 278.024,119.732 278.432 C 119.918 278.841,120.361 279.215,120.716 279.263 C 121.459 279.365,121.967 279.755,121.356 279.755 C 121.131 279.755,120.947 279.922,120.947 280.126 C 120.947 280.330,121.104 280.400,121.297 280.280 C 121.490 280.161,121.648 280.231,121.648 280.435 C 121.648 280.639,121.884 280.806,122.174 280.806 C 122.463 280.806,122.699 281.034,122.699 281.313 C 122.699 281.592,123.133 282.036,123.663 282.301 C 124.194 282.565,124.584 282.980,124.531 283.222 C 124.478 283.465,124.597 283.563,124.794 283.441 C 124.992 283.319,125.153 283.395,125.153 283.611 C 125.153 283.826,125.311 283.905,125.504 283.786 C 125.697 283.667,125.855 283.718,125.855 283.900 C 125.855 284.329,128.642 287.117,129.072 287.117 C 129.253 287.117,129.304 287.274,129.185 287.467 C 129.066 287.660,129.145 287.818,129.360 287.818 C 129.576 287.818,129.648 287.986,129.521 288.192 C 129.394 288.397,129.503 288.529,129.763 288.485 C 130.901 288.292,132.165 288.951,132.165 289.738 C 132.165 290.338,132.356 290.521,132.952 290.489 C 133.509 290.459,133.748 290.651,133.771 291.148 C 133.828 292.402,134.313 293.047,135.527 293.486 C 136.183 293.723,136.809 294.201,136.920 294.548 C 137.030 294.896,137.408 295.180,137.760 295.180 C 138.333 295.180,139.007 296.044,138.893 296.634 C 138.869 296.758,139.160 296.780,139.539 296.680 C 140.070 296.541,140.228 296.677,140.228 297.275 C 140.228 297.748,140.494 298.119,140.909 298.228 C 141.284 298.326,141.639 298.745,141.698 299.159 C 141.767 299.640,142.101 299.954,142.622 300.028 C 143.457 300.146,144.915 301.367,144.988 302.009 C 145.011 302.206,145.053 302.564,145.082 302.805 C 145.112 303.046,145.451 303.243,145.837 303.243 C 146.290 303.243,146.538 303.476,146.538 303.903 C 146.538 304.576,147.422 304.982,148.904 304.991 C 149.587 304.995,149.693 305.180,149.693 306.364 C 149.693 307.570,149.818 307.775,150.750 308.100 C 151.332 308.303,151.766 308.657,151.714 308.886 C 151.663 309.116,152.174 309.451,152.848 309.631 C 154.415 310.049,154.560 310.203,154.664 311.575 C 154.717 312.268,154.940 312.708,155.239 312.708 C 155.507 312.708,156.196 313.103,156.769 313.585 C 157.341 314.067,158.114 314.461,158.484 314.461 C 158.974 314.461,159.159 314.707,159.159 315.360 C 159.159 316.914,159.762 317.616,161.099 317.616 C 162.188 317.616,162.477 317.867,162.368 318.718 C 162.352 318.842,162.728 319.363,163.203 319.875 C 163.678 320.388,164.067 321.030,164.067 321.303 C 164.067 321.933,165.159 322.524,166.322 322.524 C 167.132 322.524,167.288 322.743,167.206 323.770 C 167.198 323.877,167.520 324.232,167.921 324.559 C 168.323 324.886,168.846 325.548,169.085 326.030 C 169.366 326.598,169.977 327.020,170.824 327.231 C 171.863 327.490,172.130 327.722,172.130 328.370 C 172.130 328.818,172.287 329.185,172.480 329.185 C 172.673 329.185,172.791 329.327,172.743 329.500 C 172.695 329.674,172.813 329.840,173.006 329.870 C 173.199 329.899,173.561 330.314,173.812 330.792 C 174.062 331.269,174.417 331.567,174.600 331.453 C 174.784 331.340,174.934 331.414,174.934 331.618 C 174.934 331.822,175.312 331.989,175.773 331.989 C 176.618 331.989,177.038 332.566,177.038 333.728 C 177.038 334.559,177.806 335.163,179.027 335.291 C 179.729 335.364,180.050 335.613,180.130 336.146 C 180.210 336.684,180.491 336.897,181.117 336.897 C 181.831 336.897,181.952 337.026,181.772 337.593 C 181.485 338.498,183.000 340.053,184.169 340.053 C 184.741 340.053,185.007 340.239,184.974 340.618 C 184.935 341.067,185.554 341.665,186.426 342.021 C 186.481 342.043,186.593 342.414,186.676 342.845 C 186.902 344.019,187.495 344.567,188.805 344.813 C 189.453 344.934,189.971 345.136,189.955 345.260 C 189.873 345.896,190.041 346.385,190.288 346.231 C 190.766 345.936,191.443 346.565,191.503 347.358 C 191.544 347.897,191.792 348.116,192.362 348.116 C 192.930 348.116,193.164 348.320,193.164 348.817 C 193.164 349.284,193.398 349.518,193.865 349.518 C 194.255 349.518,194.566 349.752,194.566 350.044 C 194.566 350.489,195.404 350.570,200.000 350.570 C 204.596 350.570,205.434 350.489,205.434 350.044 C 205.434 349.755,205.732 349.518,206.097 349.518 C 206.505 349.518,206.842 349.193,206.972 348.674 C 207.131 348.040,207.359 347.876,207.886 348.014 C 208.428 348.155,208.589 348.025,208.589 347.447 C 208.589 346.969,208.907 346.575,209.465 346.363 C 209.947 346.180,210.342 345.789,210.342 345.495 C 210.342 345.190,210.650 344.961,211.059 344.961 C 211.966 344.961,213.497 343.455,213.497 342.563 C 213.497 342.174,213.805 341.807,214.224 341.697 C 214.624 341.592,215.037 341.180,215.141 340.780 C 215.252 340.358,215.618 340.053,216.015 340.053 C 216.936 340.053,218.120 339.390,217.883 339.008 C 217.778 338.838,217.853 338.600,218.049 338.479 C 218.245 338.357,218.405 337.952,218.405 337.578 C 218.405 337.139,218.645 336.897,219.082 336.897 C 219.517 336.897,219.799 336.616,219.871 336.109 C 219.942 335.609,220.208 335.338,220.596 335.369 C 220.933 335.395,221.209 335.268,221.209 335.085 C 221.209 334.902,221.374 334.854,221.575 334.979 C 222.111 335.310,222.961 334.475,222.968 333.612 C 222.975 332.550,223.434 331.963,224.308 331.897 C 224.729 331.866,225.068 331.600,225.071 331.301 C 225.076 330.857,225.130 330.848,225.384 331.248 C 225.632 331.639,225.765 331.597,226.067 331.031 C 226.274 330.645,226.331 330.204,226.193 330.052 C 226.055 329.899,226.213 329.871,226.544 329.990 C 227.235 330.238,227.753 329.688,227.084 329.418 C 226.818 329.311,226.887 329.229,227.257 329.213 C 227.670 329.194,227.870 328.899,227.870 328.309 C 227.870 327.826,228.067 327.420,228.309 327.405 C 230.122 327.294,231.025 326.854,231.025 326.082 C 231.025 325.705,231.334 325.330,231.728 325.227 C 232.228 325.096,232.363 324.866,232.194 324.427 C 232.033 324.007,232.088 323.892,232.368 324.065 C 232.640 324.233,232.778 324.017,232.778 323.421 C 232.778 322.653,232.934 322.524,233.855 322.524 C 235.213 322.524,235.933 321.816,235.933 320.484 C 235.933 319.668,236.122 319.398,236.810 319.225 C 237.376 319.083,237.686 318.759,237.686 318.311 C 237.686 317.735,237.924 317.616,239.073 317.616 C 240.384 317.616,240.472 317.549,240.694 316.366 C 240.870 315.428,241.260 314.907,242.257 314.277 C 242.989 313.815,243.688 313.274,243.812 313.073 C 243.936 312.872,244.322 312.708,244.669 312.708 C 245.127 312.708,245.385 312.302,245.613 311.218 C 245.909 309.815,245.999 309.727,247.153 309.708 C 248.122 309.692,248.401 309.534,248.486 308.952 C 248.551 308.514,248.940 308.130,249.450 308.002 C 250.179 307.819,250.307 307.579,250.307 306.391 C 250.307 305.179,250.410 304.995,251.096 304.991 C 252.578 304.982,253.462 304.576,253.462 303.903 C 253.462 303.484,253.710 303.243,254.139 303.243 C 254.513 303.243,254.918 302.923,255.043 302.530 C 255.363 301.523,256.667 300.197,257.494 300.039 C 257.898 299.962,258.242 299.573,258.307 299.120 C 258.378 298.617,258.662 298.335,259.095 298.335 C 259.468 298.335,259.792 298.177,259.816 297.984 C 259.840 297.791,259.879 297.437,259.904 297.196 C 259.928 296.955,260.263 296.758,260.649 296.758 C 261.109 296.757,261.388 296.486,261.462 295.968 C 261.536 295.447,261.814 295.180,262.283 295.180 C 262.688 295.180,263.068 294.891,263.168 294.508 C 263.265 294.139,263.702 293.747,264.140 293.637 C 265.362 293.330,267.835 290.757,267.835 289.791 C 267.835 289.087,268.058 288.923,269.284 288.727 C 270.081 288.600,270.636 288.399,270.518 288.280 C 270.307 288.069,271.592 286.766,272.010 286.766 C 272.126 286.766,272.434 286.287,272.693 285.701 C 273.097 284.788,273.244 284.700,273.721 285.087 C 274.192 285.470,274.243 285.450,274.057 284.951 C 273.805 284.280,274.627 283.433,275.191 283.782 C 275.397 283.909,275.543 283.884,275.515 283.725 C 275.346 282.752,275.621 282.209,276.282 282.209 C 276.710 282.209,277.089 281.929,277.191 281.537 C 277.288 281.168,277.761 280.767,278.242 280.646 C 278.831 280.498,279.052 280.255,278.917 279.904 C 278.786 279.564,279.021 279.266,279.586 279.051 C 280.064 278.869,280.456 278.497,280.456 278.224 C 280.456 277.951,280.850 277.628,281.332 277.507 C 281.898 277.365,282.209 277.041,282.209 276.593 C 282.209 276.163,282.444 275.898,282.827 275.898 C 283.167 275.898,283.606 275.543,283.803 275.110 C 284.001 274.676,284.357 274.361,284.595 274.411 C 284.834 274.461,285.179 274.106,285.363 273.622 C 285.547 273.139,285.941 272.743,286.240 272.743 C 286.539 272.743,286.933 272.349,287.117 271.867 C 287.300 271.385,287.690 270.990,287.984 270.990 C 288.285 270.990,288.519 270.684,288.519 270.289 C 288.519 269.811,288.753 269.588,289.253 269.588 C 289.681 269.588,290.060 269.308,290.162 268.917 C 290.259 268.547,290.732 268.146,291.213 268.026 C 291.761 267.888,292.020 267.627,291.905 267.328 C 291.699 266.792,292.826 265.599,293.192 265.965 C 293.321 266.094,293.427 265.939,293.427 265.622 C 293.427 265.298,293.812 264.947,294.303 264.824 C 294.852 264.686,295.180 264.356,295.180 263.941 C 295.180 263.539,295.425 263.278,295.803 263.278 C 296.817 263.278,297.912 262.301,298.160 261.174 C 298.317 260.456,298.602 260.123,299.057 260.123 C 299.476 260.123,299.806 259.797,299.944 259.246 C 300.068 258.749,300.417 258.370,300.749 258.370 C 301.729 258.370,302.824 257.376,303.068 256.266 C 303.226 255.543,303.509 255.215,303.972 255.215 C 304.393 255.215,304.645 254.972,304.645 254.567 C 304.645 254.136,305.116 253.734,306.051 253.367 C 307.148 252.936,307.503 252.584,307.666 251.764 C 307.811 251.042,308.138 250.649,308.715 250.504 C 309.310 250.354,309.553 250.047,309.553 249.444 C 309.553 248.771,309.705 248.624,310.284 248.735 C 311.164 248.904,312.708 247.487,312.708 246.510 C 312.708 246.042,313.030 245.773,313.767 245.625 C 314.488 245.481,315.062 245.015,315.560 244.170 C 315.964 243.486,316.591 242.767,316.955 242.573 C 317.319 242.378,317.616 241.929,317.616 241.575 C 317.616 241.097,317.970 240.874,318.990 240.711 C 320.165 240.523,320.399 240.336,320.599 239.428 C 320.727 238.842,321.213 238.114,321.678 237.809 C 322.143 237.504,322.524 236.948,322.524 236.574 C 322.524 236.199,322.656 235.973,322.817 236.073 C 323.603 236.559,325.117 235.681,325.506 234.513 C 325.762 233.745,326.296 233.112,326.970 232.778 C 327.554 232.489,328.302 231.976,328.633 231.639 C 328.964 231.301,329.460 231.025,329.736 231.025 C 330.036 231.025,330.237 230.675,330.237 230.149 C 330.237 229.613,330.436 229.273,330.750 229.273 C 331.033 229.273,331.427 228.968,331.626 228.596 C 331.825 228.224,332.343 227.869,332.777 227.807 C 333.278 227.736,333.549 227.470,333.518 227.081 C 333.492 226.744,333.610 226.448,333.781 226.424 C 333.953 226.400,334.290 226.361,334.531 226.337 C 334.772 226.312,335.020 225.938,335.081 225.504 C 335.153 224.997,335.435 224.715,335.870 224.715 C 336.313 224.715,336.547 224.473,336.547 224.014 C 336.547 223.628,336.705 223.293,336.897 223.269 C 337.090 223.245,337.445 223.206,337.686 223.181 C 337.927 223.157,338.175 222.783,338.236 222.349 C 338.307 221.853,338.591 221.560,339.002 221.560 C 339.361 221.560,339.750 221.260,339.866 220.894 C 339.983 220.527,340.445 220.135,340.894 220.023 C 342.133 219.712,344.610 217.145,344.610 216.171 C 344.610 215.467,344.833 215.304,346.059 215.108 C 346.856 214.980,347.415 214.783,347.301 214.669 C 347.187 214.555,347.639 213.932,348.306 213.284 C 349.056 212.556,349.518 211.770,349.518 211.224 C 349.518 210.451,349.668 210.342,350.733 210.342 C 351.764 210.342,353.104 209.226,352.732 208.677 C 352.700 208.628,352.755 208.592,352.855 208.596 C 353.218 208.611,353.998 207.706,353.843 207.450 C 353.755 207.305,353.850 207.187,354.055 207.187 C 354.259 207.187,354.426 206.885,354.426 206.516 C 354.426 206.009,354.763 205.789,355.814 205.612 C 356.814 205.443,357.268 205.165,357.439 204.617 C 357.754 203.608,360.348 201.039,361.375 200.717 C 361.870 200.562,362.117 200.273,362.004 199.980 C 361.902 199.714,361.969 199.403,362.154 199.289 C 362.338 199.175,362.489 198.794,362.489 198.441 C 362.489 197.981,362.849 197.732,363.755 197.562 C 364.571 197.409,365.082 197.091,365.193 196.666 C 365.288 196.304,365.704 195.960,366.118 195.901 C 366.733 195.813,366.891 195.519,366.979 194.303 C 367.087 192.814,367.088 192.813,368.502 192.813 C 369.639 192.813,369.954 192.671,370.107 192.085 C 370.212 191.685,370.670 191.216,371.126 191.042 C 371.775 190.795,371.954 190.466,371.954 189.522 C 371.954 188.384,372.034 188.304,373.399 188.073 C 374.384 187.907,374.899 187.622,375.015 187.178 C 375.109 186.819,375.484 186.432,375.848 186.316 C 376.288 186.176,376.584 185.649,376.729 184.745 C 376.931 183.482,377.037 183.378,378.219 183.279 C 379.131 183.203,379.587 182.955,379.828 182.405 C 380.014 181.983,380.434 181.568,380.763 181.482 C 381.091 181.396,381.413 180.952,381.478 180.496 C 381.563 179.895,381.783 179.700,382.277 179.786 C 382.842 179.884,382.886 179.816,382.531 179.388 C 382.061 178.822,382.604 178.440,383.878 178.440 C 384.277 178.440,384.569 178.145,384.638 177.672 C 384.716 177.135,385.104 176.813,385.925 176.601 C 386.852 176.362,387.215 176.006,387.644 174.915 C 388.003 173.999,388.406 173.532,388.835 173.532 C 389.240 173.532,389.483 173.280,389.483 172.859 C 389.483 172.396,389.811 172.113,390.534 171.955 C 391.661 171.707,392.638 170.612,392.638 169.598 C 392.638 169.255,392.851 168.975,393.112 168.975 C 393.373 168.975,394.081 168.501,394.686 167.923 C 395.292 167.344,395.944 166.871,396.136 166.871 C 396.328 166.871,396.871 166.260,397.343 165.513 C 397.835 164.733,398.584 164.058,399.100 163.928 L 400.000 163.703 400.000 157.574 C 400.000 153.723,399.870 151.446,399.649 151.446 C 399.457 151.446,399.283 150.776,399.264 149.956 C 399.233 148.639,398.723 146.254,398.633 147.001 C 398.497 148.117,397.546 145.940,397.546 144.514 C 397.546 142.871,397.031 141.909,395.968 141.567 C 395.776 141.506,395.664 141.317,395.720 141.149 C 395.776 140.981,395.587 140.933,395.299 141.043 C 394.946 141.179,394.840 141.080,394.972 140.736 C 395.079 140.456,394.992 140.228,394.779 140.228 C 394.552 140.228,394.391 139.566,394.391 138.634 C 394.391 137.402,394.192 136.842,393.514 136.164 C 392.856 135.506,392.638 134.920,392.638 133.804 C 392.638 131.986,391.923 130.892,390.534 130.587 C 389.511 130.362,389.483 130.301,389.483 128.287 C 389.483 126.434,389.401 126.198,388.694 126.020 C 388.197 125.896,387.888 125.536,387.858 125.050 C 387.686 122.255,387.573 121.648,387.225 121.648 C 386.653 121.648,385.519 120.251,386.068 120.223 C 386.307 120.211,386.170 120.066,385.763 119.902 C 385.171 119.663,384.976 119.186,384.787 117.523 C 384.607 115.929,384.350 115.269,383.687 114.692 C 383.119 114.198,382.822 113.571,382.822 112.865 C 382.822 112.238,382.676 111.881,382.472 112.007 C 382.279 112.126,382.121 112.047,382.121 111.832 C 382.121 111.616,381.984 111.524,381.817 111.628 C 381.649 111.731,381.513 111.543,381.514 111.210 C 381.518 109.948,381.400 109.728,380.719 109.728 C 380.099 109.728,380.017 109.493,380.012 107.713 C 380.009 106.604,379.854 105.460,379.667 105.171 C 379.420 104.789,379.326 104.770,379.322 105.104 C 379.314 105.779,378.622 105.234,378.252 104.260 C 378.076 103.797,377.691 103.418,377.397 103.418 C 376.998 103.418,376.862 103.023,376.862 101.863 C 376.862 99.930,376.347 98.510,375.644 98.510 C 375.238 98.510,375.110 98.097,375.110 96.786 C 375.110 94.929,374.839 93.862,374.432 94.114 C 373.659 94.591,371.954 92.202,371.954 90.642 C 371.954 89.316,371.843 89.045,371.299 89.045 C 370.616 89.045,370.214 87.672,370.205 85.315 C 370.201 83.956,369.263 82.770,368.098 82.650 C 367.283 82.566,367.209 82.399,367.046 80.280 C 366.894 78.299,366.775 77.988,366.134 77.897 C 365.565 77.815,365.434 77.601,365.558 76.954 C 365.646 76.494,365.476 75.634,365.182 75.044 C 364.887 74.453,364.792 73.970,364.970 73.970 C 365.148 73.970,365.294 73.803,365.294 73.599 C 365.294 73.395,365.159 73.311,364.994 73.413 C 363.717 74.202,362.573 72.784,362.407 70.210 C 362.314 68.747,362.044 67.440,361.788 67.203 C 361.429 66.871,361.387 66.893,361.587 67.309 C 361.726 67.599,361.603 67.545,361.313 67.189 C 361.024 66.834,360.683 65.926,360.555 65.172 C 360.428 64.418,360.191 63.883,360.028 63.983 C 359.636 64.225,359.159 63.452,359.159 62.577 C 359.159 62.075,358.934 61.883,358.370 61.903 C 357.636 61.929,357.581 61.783,357.576 59.800 C 357.573 58.628,357.417 57.432,357.230 57.143 C 357.016 56.810,356.889 56.774,356.885 57.044 C 356.882 57.279,356.643 57.381,356.354 57.270 C 356.065 57.159,355.828 56.690,355.828 56.229 C 355.828 55.624,355.633 55.390,355.127 55.390 C 354.537 55.390,354.425 55.155,354.421 53.900 C 354.414 51.813,354.107 50.890,353.336 50.645 C 352.806 50.477,352.673 50.095,352.673 48.734 C 352.673 46.845,352.399 45.836,351.959 46.108 C 351.800 46.206,351.571 46.126,351.450 45.930 C 351.329 45.734,350.844 45.574,350.374 45.574 C 349.554 45.574,349.518 45.478,349.518 43.295 C 349.518 41.167,349.466 41.016,348.729 41.013 C 347.999 41.010,347.934 40.836,347.854 38.675 C 347.759 36.126,347.105 34.706,346.025 34.706 C 345.147 34.706,345.035 34.484,344.778 32.241 C 344.531 30.078,344.409 29.798,343.713 29.798 C 343.359 29.798,343.208 29.387,343.208 28.421 C 343.208 27.664,342.981 26.817,342.704 26.541 C 342.314 26.151,342.295 25.936,342.617 25.588 C 342.940 25.238,342.932 25.195,342.579 25.395 C 342.055 25.692,341.018 24.964,341.304 24.500 C 341.410 24.329,341.320 24.189,341.104 24.189 C 340.889 24.189,340.826 24.005,340.966 23.779 C 341.136 23.503,341.028 23.442,340.636 23.593 C 340.154 23.778,340.053 23.582,340.053 22.469 C 340.053 20.272,339.670 18.968,338.959 18.742 C 338.549 18.612,338.300 18.207,338.300 17.669 C 338.300 17.194,338.059 16.713,337.765 16.600 C 337.348 16.440,337.320 16.286,337.639 15.902 C 337.968 15.506,337.935 15.452,337.473 15.630 C 337.120 15.765,336.882 15.667,336.857 15.375 C 336.835 15.113,336.795 14.663,336.769 14.373 C 336.743 14.084,336.367 13.797,335.933 13.735 C 335.220 13.634,335.145 13.431,335.145 11.604 C 335.145 9.808,335.047 9.532,334.268 9.115 C 333.786 8.857,333.392 8.357,333.392 8.004 C 333.392 7.596,333.136 7.362,332.691 7.362 C 332.092 7.362,331.989 7.128,331.989 5.768 C 331.989 4.536,331.791 3.976,331.113 3.299 C 330.516 2.702,330.237 2.035,330.237 1.211 L 330.237 0.000 200.000 0.000 L 69.763 0.000 69.763 1.258 M289.386 58.885 C 291.825 59.450,291.705 58.207,291.597 81.727 C 291.502 102.357,291.478 103.017,290.805 103.761 C 289.174 105.563,289.973 105.521,257.188 105.533 C 232.183 105.542,226.531 105.629,226.023 106.014 C 225.300 106.563,225.031 128.687,225.732 129.996 C 226.059 130.607,226.769 130.669,235.654 130.859 C 243.358 131.024,245.531 131.178,246.801 131.649 C 247.863 132.044,250.755 132.391,255.647 132.711 C 259.645 132.972,263.224 133.351,263.600 133.552 C 263.976 133.753,264.734 133.918,265.284 133.918 C 265.834 133.918,266.907 134.235,267.668 134.623 C 268.739 135.169,270.181 135.399,274.063 135.641 C 277.504 135.857,279.330 136.122,279.887 136.486 C 280.333 136.779,282.181 137.285,283.995 137.611 C 288.682 138.455,291.094 139.107,291.499 139.640 C 291.691 139.894,293.178 140.287,294.801 140.515 C 296.425 140.743,298.003 141.149,298.307 141.417 C 298.612 141.686,300.202 142.346,301.840 142.883 C 303.479 143.420,305.136 144.134,305.521 144.469 C 305.907 144.805,306.801 145.186,307.507 145.316 C 308.804 145.556,309.661 146.063,311.197 147.502 C 311.660 147.936,312.191 148.291,312.377 148.291 C 312.563 148.291,313.210 148.764,313.815 149.343 C 314.420 149.921,315.036 150.394,315.182 150.394 C 315.329 150.394,316.211 151.538,317.142 152.936 C 319.782 156.902,319.537 159.794,316.230 163.684 C 315.836 164.148,315.513 164.661,315.513 164.823 C 315.513 164.986,315.285 165.118,315.007 165.118 C 314.728 165.118,314.295 165.404,314.043 165.752 C 313.527 166.466,310.476 168.624,309.982 168.624 C 309.806 168.624,309.382 168.933,309.041 169.310 C 308.700 169.687,307.734 170.098,306.895 170.224 C 306.055 170.350,305.177 170.684,304.943 170.966 C 304.235 171.820,301.929 172.838,299.826 173.227 C 298.734 173.429,297.484 173.875,297.048 174.218 C 296.560 174.602,295.311 174.934,293.797 175.084 C 292.445 175.217,291.256 175.461,291.154 175.626 C 290.661 176.423,286.000 177.762,282.580 178.087 C 280.031 178.330,278.743 178.612,278.284 179.028 C 277.776 179.488,276.543 179.689,272.819 179.921 C 270.174 180.085,267.537 180.382,266.959 180.582 C 261.699 182.391,260.215 182.630,252.260 182.943 C 247.913 183.114,244.157 183.413,243.913 183.606 C 243.131 184.228,240.817 184.478,233.755 184.704 C 228.159 184.883,226.739 185.030,226.294 185.475 C 225.802 185.967,225.747 190.481,225.761 229.357 C 225.779 276.892,225.848 275.262,223.753 276.862 C 222.658 277.698,177.333 277.477,176.288 276.631 L 175.460 275.960 175.366 230.989 C 175.274 186.999,175.257 186.003,174.592 185.384 C 173.998 184.830,173.234 184.750,168.551 184.747 C 162.618 184.744,157.184 184.242,156.444 183.628 C 156.143 183.377,153.067 183.121,148.183 182.940 C 141.984 182.709,139.904 182.504,137.949 181.929 C 132.644 180.371,131.867 180.217,128.309 180.018 C 123.549 179.752,122.483 179.576,121.858 178.951 C 121.532 178.624,120.026 178.307,117.727 178.081 C 114.196 177.733,110.459 176.696,109.351 175.756 C 109.047 175.498,107.785 175.192,106.547 175.075 C 105.236 174.952,103.911 174.595,103.377 174.222 C 102.872 173.869,101.488 173.404,100.301 173.188 C 98.335 172.832,95.841 171.730,95.324 170.989 C 95.210 170.827,94.265 170.469,93.224 170.194 C 92.182 169.919,91.274 169.529,91.207 169.326 C 91.139 169.123,90.550 168.734,89.897 168.461 C 88.667 167.947,88.590 167.896,86.641 166.273 C 84.168 164.216,83.507 163.496,82.787 162.075 C 82.378 161.268,81.883 160.510,81.688 160.389 C 81.030 159.982,81.259 155.490,81.985 154.561 C 82.344 154.101,82.742 153.392,82.869 152.986 C 83.121 152.183,87.129 148.291,87.704 148.291 C 87.898 148.291,88.706 147.735,89.499 147.057 C 90.292 146.378,91.579 145.641,92.359 145.419 C 93.139 145.198,94.093 144.749,94.479 144.421 C 94.864 144.094,95.653 143.717,96.231 143.584 C 97.369 143.323,100.845 141.986,102.542 141.158 C 103.120 140.875,104.616 140.531,105.865 140.392 C 107.200 140.244,108.292 139.929,108.512 139.629 C 108.879 139.127,115.707 137.449,117.454 137.432 C 117.944 137.427,118.969 137.096,119.733 136.696 C 120.832 136.120,122.161 135.903,126.108 135.658 C 129.641 135.439,131.341 135.187,131.941 134.793 C 132.745 134.267,134.127 133.933,138.435 133.224 C 139.474 133.053,142.708 132.805,145.622 132.673 C 149.455 132.499,151.454 132.246,152.848 131.757 C 154.499 131.178,156.090 131.055,163.891 130.904 C 168.904 130.807,173.519 130.649,174.145 130.554 L 175.285 130.380 175.285 118.293 L 175.285 106.205 174.377 105.860 C 173.805 105.643,162.140 105.519,142.894 105.525 C 109.049 105.537,110.871 105.659,109.396 103.273 C 108.692 102.132,108.677 101.675,108.677 81.200 C 108.677 57.880,108.511 59.436,111.049 58.850 C 112.610 58.489,287.827 58.523,289.386 58.885 M161.963 138.125 C 153.945 138.298,151.730 138.450,150.745 138.895 C 150.070 139.200,148.571 139.548,147.415 139.670 C 132.176 141.266,131.723 141.331,129.772 142.213 C 129.077 142.527,126.852 142.842,124.266 142.993 C 121.234 143.170,119.736 143.405,119.297 143.771 C 118.567 144.379,114.458 145.668,112.224 145.989 C 111.379 146.111,109.865 146.600,108.860 147.075 C 107.854 147.551,106.553 147.940,105.969 147.940 C 105.384 147.940,104.715 148.171,104.481 148.452 C 104.248 148.734,103.006 149.474,101.721 150.097 C 94.754 153.475,94.829 157.303,101.928 160.738 C 103.326 161.414,104.470 162.114,104.470 162.294 C 104.470 162.474,105.219 162.715,106.135 162.829 C 107.051 162.942,108.352 163.324,109.027 163.676 C 110.764 164.583,114.771 165.819,115.972 165.819 C 117.175 165.819,119.200 166.480,119.786 167.064 C 120.024 167.302,121.899 167.582,124.168 167.720 C 126.415 167.856,129.045 168.248,130.237 168.624 C 136.021 170.448,137.532 170.704,143.383 170.851 C 147.689 170.959,149.571 171.149,150.745 171.592 C 151.965 172.053,154.267 172.258,160.911 172.499 C 165.635 172.671,174.645 173.074,180.933 173.397 C 193.219 174.026,209.824 173.951,222.962 173.206 C 226.722 172.993,233.900 172.677,238.913 172.505 C 246.071 172.258,248.367 172.063,249.606 171.594 C 250.774 171.152,252.684 170.955,256.968 170.836 C 262.787 170.675,264.500 170.382,269.939 168.619 C 270.999 168.275,273.599 167.878,275.715 167.736 C 278.449 167.552,279.943 167.280,280.873 166.795 C 281.593 166.420,283.016 165.984,284.036 165.827 C 286.596 165.431,289.923 164.405,290.973 163.686 C 291.455 163.356,292.627 162.990,293.576 162.873 C 294.526 162.756,295.552 162.447,295.855 162.187 C 296.158 161.926,297.381 161.225,298.573 160.629 C 305.366 157.231,305.331 153.467,298.477 150.215 C 297.071 149.548,295.794 148.787,295.638 148.524 C 295.482 148.261,294.505 147.948,293.466 147.828 C 292.428 147.709,291.316 147.375,290.996 147.085 C 290.676 146.796,289.554 146.384,288.503 146.169 C 285.099 145.476,281.358 144.367,280.280 143.731 C 279.514 143.279,278.183 143.062,275.372 142.932 C 272.718 142.810,270.905 142.530,269.555 142.033 C 267.631 141.326,266.577 141.174,255.565 140.026 C 252.542 139.711,249.587 139.212,248.904 138.901 C 247.545 138.282,227.238 137.680,226.030 138.224 C 225.461 138.479,225.416 139.465,225.416 151.655 C 225.416 167.779,225.191 168.962,221.983 169.708 C 220.109 170.143,181.069 170.108,178.753 169.669 C 175.260 169.006,175.475 170.057,175.355 153.051 L 175.250 138.197 174.479 137.990 C 174.054 137.877,173.313 137.812,172.831 137.847 C 172.349 137.882,167.458 138.007,161.963 138.125 " stroke="none" fill="#04ac84" fill-rule="evenodd"></path></g></svg>