<svg id="svg" version="1.1" xmlns="http://www.w3.org/2000/svg" xmlns:xlink="http://www.w3.org/1999/xlink" width="400" height="400" viewBox="0, 0, 400,400"><g id="svgg"><path id="path0" d="M124.187 106.500 C 124.083 106.775,123.954 120.500,123.899 137.000 L 123.800 167.000 110.800 167.200 L 97.800 167.400 97.800 178.000 L 97.800 188.600 110.800 188.800 L 123.800 189.000 123.906 200.495 L 124.012 211.989 110.906 212.095 L 97.800 212.200 97.800 223.000 L 97.800 233.800 110.897 233.905 L 123.995 234.011 124.097 264.105 L 124.200 294.200 167.200 294.200 C 216.107 294.200,215.668 294.225,230.000 290.606 C 258.332 283.452,282.038 263.530,292.838 237.800 L 294.348 234.200 306.474 234.000 L 318.600 233.800 318.600 223.000 L 318.600 212.200 309.394 212.093 L 300.187 211.986 300.268 200.493 L 300.348 189.000 309.474 188.800 L 318.600 188.600 318.600 178.000 L 318.600 167.400 306.815 167.200 L 295.030 167.000 293.400 163.200 C 283.818 140.858,265.469 122.593,244.400 114.423 C 243.630 114.124,242.460 113.647,241.800 113.363 C 241.140 113.078,238.980 112.312,237.000 111.659 C 233.859 110.624,231.955 110.100,225.200 108.412 C 223.483 107.983,216.664 106.967,211.773 106.412 C 206.118 105.770,124.431 105.852,124.187 106.500 M208.800 125.819 C 234.211 128.347,254.321 139.730,266.458 158.454 C 268.889 162.206,270.800 165.682,270.800 166.355 C 270.800 166.683,254.098 166.776,208.100 166.701 L 145.400 166.600 145.296 146.445 C 145.221 131.895,145.318 126.139,145.645 125.745 C 146.349 124.897,200.166 124.960,208.800 125.819 M277.651 189.461 C 278.382 190.342,278.418 209.210,277.692 210.900 L 277.220 212.000 211.472 212.000 L 145.724 212.000 145.462 206.537 C 145.035 197.640,145.134 189.826,145.680 189.280 C 146.538 188.422,276.937 188.601,277.651 189.461 M270.800 234.262 C 270.800 236.080,263.511 246.458,258.800 251.348 C 245.056 265.612,229.123 272.487,205.400 274.389 C 199.920 274.828,147.329 274.978,146.233 274.557 C 145.667 274.340,145.600 272.169,145.600 254.157 L 145.600 234.000 208.200 234.000 C 242.630 234.000,270.800 234.118,270.800 234.262 " stroke="none" fill="#fcfbfb" fill-rule="evenodd"></path><path id="path1" d="M123.867 105.467 C 123.720 105.613,123.603 105.928,123.606 106.167 C 123.610 106.425,123.740 106.399,123.929 106.102 C 124.177 105.711,133.131 105.581,165.622 105.500 L 207.000 105.396 165.567 105.298 C 142.778 105.244,124.013 105.320,123.867 105.467 M209.400 105.803 C 210.307 106.118,214.738 106.223,214.553 105.924 C 214.443 105.746,213.148 105.614,211.676 105.632 C 210.204 105.649,209.180 105.726,209.400 105.803 M218.600 106.800 C 219.701 107.273,220.092 107.273,219.800 106.800 C 219.664 106.580,219.158 106.413,218.676 106.428 C 217.831 106.455,217.829 106.469,218.600 106.800 M224.400 107.755 C 224.400 107.840,224.930 107.987,225.579 108.082 C 226.227 108.177,226.667 108.108,226.555 107.928 C 226.357 107.607,224.400 107.450,224.400 107.755 M231.646 109.380 C 231.781 109.514,232.489 109.796,233.219 110.005 C 233.949 110.215,234.378 110.232,234.173 110.045 C 233.748 109.656,231.271 109.004,231.646 109.380 M244.000 113.769 C 245.114 114.441,245.991 114.616,245.380 114.045 C 245.171 113.850,244.550 113.572,244.000 113.428 L 243.000 113.167 244.000 113.769 M259.371 121.809 C 259.795 122.129,260.240 122.294,260.359 122.174 C 260.610 121.923,259.594 121.209,259.000 121.219 C 258.780 121.222,258.947 121.488,259.371 121.809 M260.813 122.715 C 260.820 122.872,261.630 123.488,262.613 124.085 C 263.596 124.681,264.394 125.041,264.387 124.885 C 264.380 124.728,263.570 124.112,262.587 123.515 C 261.604 122.919,260.806 122.559,260.813 122.715 M265.656 126.366 C 266.175 126.787,266.677 127.055,266.771 126.961 C 266.976 126.757,265.544 125.631,265.056 125.613 C 264.866 125.606,265.136 125.945,265.656 126.366 M146.000 146.200 L 146.000 166.400 208.180 166.400 L 270.361 166.400 269.680 164.889 C 269.027 163.437,265.288 157.212,264.822 156.800 C 264.697 156.690,263.805 155.520,262.839 154.200 C 258.208 147.873,249.802 140.631,241.850 136.120 L 239.500 134.787 192.950 134.797 L 146.400 134.806 146.400 130.606 L 146.400 126.405 177.100 126.300 L 207.800 126.195 176.900 126.097 L 146.000 126.000 146.000 146.200 M268.800 128.606 C 268.800 128.921,271.379 131.154,271.548 130.985 C 271.630 130.903,271.149 130.288,270.479 129.618 C 269.324 128.462,268.800 128.147,268.800 128.606 M232.400 131.953 C 232.400 132.148,232.805 132.415,233.300 132.548 C 234.833 132.959,235.050 132.821,233.854 132.198 C 232.519 131.501,232.400 131.481,232.400 131.953 M276.400 136.007 C 278.665 138.283,281.217 141.450,284.095 145.555 C 285.577 147.670,286.972 149.617,287.195 149.883 C 287.418 150.149,287.600 150.472,287.600 150.602 C 287.600 150.732,288.226 151.817,288.991 153.012 C 289.756 154.208,290.495 155.639,290.634 156.193 C 290.773 156.747,291.003 157.200,291.146 157.200 C 291.385 157.200,291.654 157.750,293.006 161.000 C 293.281 161.660,293.796 162.857,294.153 163.660 C 294.509 164.464,294.800 165.409,294.800 165.760 C 294.800 166.332,296.070 166.400,306.800 166.400 L 318.800 166.400 318.800 178.000 L 318.800 189.600 309.800 189.600 L 300.800 189.600 300.800 199.150 C 300.800 204.403,300.688 209.263,300.550 209.950 L 300.300 211.200 309.550 211.200 L 318.800 211.200 318.800 222.800 L 318.800 234.400 306.877 234.400 L 294.954 234.400 294.277 235.934 C 293.905 236.778,293.600 237.678,293.600 237.934 C 293.600 238.190,293.420 238.400,293.200 238.400 C 292.980 238.400,292.800 238.688,292.800 239.040 C 292.800 239.727,291.614 242.471,291.175 242.800 C 291.028 242.910,290.768 243.450,290.597 244.000 C 290.427 244.550,289.862 245.627,289.344 246.393 C 288.825 247.159,288.400 248.014,288.400 248.293 C 288.400 248.572,288.241 248.800,288.047 248.800 C 287.852 248.800,287.584 249.115,287.451 249.500 C 287.318 249.885,286.892 250.656,286.505 251.214 C 286.117 251.772,285.440 252.806,285.000 253.512 C 284.560 254.217,284.065 254.796,283.900 254.797 C 283.735 254.799,283.600 254.988,283.600 255.217 C 283.600 255.653,283.200 256.196,281.700 257.801 C 281.205 258.330,280.800 258.922,280.800 259.116 C 280.800 259.309,280.305 259.927,279.700 260.488 C 279.095 261.050,278.183 262.059,277.673 262.732 C 276.553 264.210,270.156 270.545,269.593 270.735 C 269.372 270.809,268.688 271.349,268.072 271.935 C 266.043 273.864,263.808 275.575,263.300 275.587 C 263.025 275.594,262.800 275.764,262.800 275.964 C 262.800 276.375,257.842 279.600,257.210 279.600 C 256.984 279.600,256.800 279.777,256.800 279.992 C 256.800 280.208,256.350 280.498,255.800 280.636 C 255.250 280.774,254.800 281.047,254.800 281.243 C 254.800 281.440,254.530 281.600,254.200 281.600 C 253.870 281.600,253.600 281.772,253.600 281.982 C 253.600 282.192,252.970 282.482,252.200 282.626 C 251.430 282.771,250.800 283.049,250.800 283.245 C 250.800 283.440,250.530 283.600,250.200 283.600 C 249.870 283.600,249.600 283.772,249.600 283.982 C 249.600 284.192,248.970 284.482,248.200 284.626 C 247.430 284.771,246.800 285.049,246.800 285.245 C 246.800 285.440,246.530 285.600,246.200 285.600 C 245.870 285.600,245.600 285.764,245.600 285.965 C 245.600 286.166,244.880 286.451,244.000 286.600 C 243.120 286.749,242.400 287.034,242.400 287.235 C 242.400 287.436,242.051 287.600,241.624 287.600 C 241.197 287.600,240.742 287.770,240.614 287.977 C 240.486 288.184,239.576 288.475,238.591 288.622 C 237.606 288.770,236.800 289.050,236.800 289.245 C 236.800 289.440,236.350 289.600,235.800 289.600 C 235.250 289.600,234.800 289.759,234.800 289.954 C 234.800 290.149,233.810 290.432,232.600 290.583 C 231.390 290.734,230.400 291.025,230.400 291.229 C 230.400 291.433,229.770 291.600,229.000 291.600 C 228.230 291.600,227.600 291.764,227.600 291.964 C 227.600 292.164,226.070 292.456,224.200 292.611 C 222.330 292.767,220.800 293.053,220.800 293.247 C 220.800 293.441,219.846 293.600,218.680 293.600 C 217.514 293.600,216.388 293.772,216.177 293.983 C 215.966 294.194,214.175 294.427,212.197 294.502 C 210.219 294.576,246.238 294.629,292.241 294.619 C 375.765 294.600,375.881 294.601,375.441 295.400 C 375.198 295.840,374.842 296.315,374.649 296.455 C 374.456 296.596,374.440 296.941,374.614 297.223 C 374.842 297.592,374.738 297.662,374.241 297.471 C 373.732 297.276,373.581 297.389,373.665 297.903 C 373.728 298.286,373.639 298.825,373.466 299.100 C 373.262 299.426,373.386 299.600,373.823 299.600 C 374.292 299.600,374.432 299.364,374.288 298.814 C 374.175 298.381,374.199 298.043,374.341 298.061 C 375.154 298.167,375.497 297.825,376.210 296.204 C 376.645 295.216,377.135 294.406,377.300 294.404 C 377.465 294.402,377.600 293.939,377.600 293.376 C 377.600 292.813,377.765 292.455,377.967 292.580 C 378.170 292.705,378.454 292.265,378.599 291.603 C 378.745 290.942,379.029 290.400,379.232 290.400 C 379.434 290.400,379.600 290.040,379.600 289.600 C 379.600 289.160,379.766 288.800,379.968 288.800 C 380.171 288.800,380.455 288.260,380.600 287.600 C 380.745 286.940,381.029 286.400,381.232 286.400 C 381.434 286.400,381.600 286.040,381.600 285.600 C 381.600 285.160,381.780 284.800,382.000 284.800 C 382.220 284.800,382.401 284.575,382.402 284.300 C 382.403 284.025,382.839 282.941,383.372 281.891 C 383.905 280.841,384.458 279.448,384.601 278.796 C 384.744 278.143,385.028 277.506,385.231 277.381 C 385.434 277.255,385.600 276.803,385.600 276.376 C 385.600 275.949,385.760 275.600,385.955 275.600 C 386.151 275.600,386.438 274.925,386.592 274.101 C 386.747 273.276,386.993 272.511,387.140 272.401 C 387.522 272.113,388.804 268.332,388.802 267.500 C 388.801 267.115,388.980 266.800,389.200 266.800 C 389.420 266.800,389.600 266.350,389.600 265.800 C 389.600 265.250,389.763 264.800,389.962 264.800 C 390.162 264.800,390.449 263.900,390.600 262.800 C 390.751 261.700,391.038 260.800,391.238 260.800 C 391.437 260.800,391.600 260.361,391.600 259.824 C 391.600 259.287,391.775 258.739,391.988 258.607 C 392.202 258.475,392.496 257.470,392.641 256.375 C 392.787 255.279,393.062 254.285,393.253 254.167 C 393.444 254.049,393.600 253.524,393.600 253.000 C 393.600 252.476,393.759 251.949,393.953 251.829 C 394.147 251.709,394.431 250.439,394.585 249.006 C 394.738 247.573,395.029 246.400,395.232 246.400 C 395.434 246.400,395.600 245.848,395.600 245.174 C 395.600 244.499,395.777 243.616,395.994 243.212 C 396.210 242.807,396.506 241.199,396.651 239.638 C 396.796 238.077,397.051 236.800,397.217 236.800 C 397.571 236.800,397.830 235.097,398.432 228.800 C 398.675 226.270,399.081 223.768,399.336 223.239 C 400.006 221.851,399.994 178.113,399.324 176.761 C 399.062 176.232,398.751 174.540,398.633 173.000 C 398.254 168.045,398.205 167.671,397.900 167.366 C 397.735 167.202,397.600 166.374,397.600 165.528 C 397.600 164.682,397.440 163.677,397.245 163.295 C 396.841 162.506,395.994 158.592,395.709 156.200 C 395.604 155.320,395.356 154.429,395.159 154.220 C 394.962 154.011,394.800 153.246,394.800 152.520 C 394.800 151.794,394.609 151.200,394.376 151.200 C 394.143 151.200,394.052 151.039,394.174 150.843 C 394.295 150.646,394.130 149.734,393.806 148.817 C 393.482 147.899,393.242 147.025,393.272 146.874 C 393.302 146.723,393.208 146.285,393.064 145.900 C 392.919 145.515,392.682 144.885,392.539 144.500 C 392.395 144.115,392.316 143.484,392.364 143.097 C 392.457 142.348,391.534 141.200,390.838 141.200 C 390.562 141.200,390.544 140.874,390.784 140.241 C 390.985 139.714,391.074 139.208,390.984 139.117 C 390.893 139.026,390.747 138.512,390.660 137.976 C 390.561 137.363,390.255 137.022,389.837 137.058 C 389.384 137.097,389.291 136.970,389.546 136.658 C 389.787 136.363,389.721 136.017,389.360 135.684 C 389.052 135.401,388.797 135.311,388.794 135.484 C 388.791 135.658,388.646 135.577,388.473 135.304 C 388.225 134.914,376.065 134.786,331.579 134.704 L 275.000 134.600 276.400 136.007 M10.596 135.700 C 10.165 136.195,9.810 136.720,9.807 136.867 C 9.803 137.013,9.665 137.268,9.500 137.433 C 9.048 137.885,9.140 138.885,9.607 138.596 C 9.830 138.458,9.892 138.149,9.745 137.911 C 9.581 137.645,9.663 137.592,9.958 137.774 C 10.553 138.142,9.805 139.200,8.951 139.200 C 8.648 139.200,8.400 139.374,8.400 139.587 C 8.400 139.801,8.657 139.876,8.971 139.756 C 9.388 139.596,9.483 139.761,9.324 140.368 C 9.205 140.826,8.937 141.200,8.730 141.200 C 8.522 141.200,8.464 141.380,8.600 141.600 C 8.736 141.820,8.671 142.000,8.455 142.000 C 8.127 142.000,7.668 143.289,7.387 145.000 C 7.351 145.220,7.272 145.535,7.211 145.700 C 7.150 145.865,7.062 146.135,7.015 146.300 C 6.969 146.465,6.832 146.870,6.711 147.200 C 5.995 149.151,5.200 152.226,5.200 153.046 C 5.200 153.571,5.022 154.000,4.804 154.000 C 4.587 154.000,4.428 154.405,4.451 154.900 C 4.498 155.897,4.023 158.834,3.740 159.294 C 3.641 159.456,3.372 160.626,3.143 161.894 C 2.914 163.162,2.558 165.010,2.353 166.000 C 1.803 168.649,1.633 169.872,1.352 173.200 C 1.212 174.850,0.896 176.453,0.649 176.761 C -0.009 177.584,0.016 221.908,0.676 223.239 C 0.937 223.768,1.269 226.135,1.414 228.500 C 1.559 230.865,1.840 232.901,2.039 233.024 C 2.237 233.147,2.400 234.047,2.400 235.024 C 2.400 236.001,2.554 236.800,2.743 236.800 C 2.931 236.800,3.204 238.077,3.349 239.638 C 3.494 241.199,3.790 242.807,4.006 243.212 C 4.223 243.616,4.400 244.499,4.400 245.174 C 4.400 245.848,4.566 246.400,4.768 246.400 C 4.971 246.400,5.262 247.573,5.415 249.006 C 5.569 250.439,5.853 251.709,6.047 251.829 C 6.241 251.949,6.400 252.476,6.400 253.000 C 6.400 253.524,6.556 254.049,6.747 254.167 C 6.938 254.285,7.213 255.279,7.359 256.375 C 7.504 257.470,7.798 258.475,8.012 258.607 C 8.225 258.739,8.400 259.287,8.400 259.824 C 8.400 260.361,8.563 260.800,8.762 260.800 C 8.962 260.800,9.249 261.700,9.400 262.800 C 9.551 263.900,9.838 264.800,10.038 264.800 C 10.237 264.800,10.400 265.250,10.400 265.800 C 10.400 266.350,10.560 266.800,10.755 266.800 C 10.950 266.800,11.230 267.606,11.378 268.591 C 11.525 269.576,11.816 270.486,12.023 270.614 C 12.230 270.742,12.400 271.197,12.400 271.624 C 12.400 272.051,12.580 272.400,12.800 272.400 C 13.020 272.400,13.200 272.688,13.200 273.040 C 13.200 273.684,13.441 274.298,15.352 278.511 C 15.928 279.782,16.400 280.987,16.400 281.190 C 16.400 281.392,16.850 282.404,17.400 283.438 C 17.950 284.473,18.400 285.562,18.400 285.860 C 18.400 286.157,18.566 286.400,18.768 286.400 C 18.971 286.400,19.255 286.940,19.400 287.600 C 19.545 288.260,19.829 288.800,20.032 288.800 C 20.234 288.800,20.400 289.160,20.400 289.600 C 20.400 290.040,20.566 290.400,20.768 290.400 C 20.971 290.400,21.255 290.940,21.400 291.600 C 21.545 292.260,21.829 292.800,22.032 292.800 C 22.234 292.800,22.400 293.160,22.400 293.600 C 22.400 294.040,22.535 294.402,22.700 294.404 C 22.865 294.406,23.353 295.211,23.785 296.194 C 24.217 297.176,24.802 298.069,25.085 298.177 C 25.368 298.286,25.600 298.730,25.600 299.164 C 25.600 300.326,26.217 300.506,26.311 299.371 C 26.355 298.837,26.213 298.400,25.996 298.400 C 25.778 298.400,25.600 298.209,25.600 297.976 C 25.600 297.743,25.825 297.668,26.100 297.809 C 26.375 297.949,26.150 297.640,25.600 297.122 C 22.948 294.622,19.240 294.800,73.982 294.800 L 123.600 294.800 123.600 264.600 L 123.600 234.400 110.394 234.400 L 97.188 234.400 97.294 222.900 L 97.400 211.400 110.500 211.295 L 123.600 211.189 123.600 200.400 L 123.600 189.611 110.500 189.505 L 97.400 189.400 97.294 178.228 C 97.211 169.556,97.300 166.983,97.694 166.734 C 97.972 166.557,103.915 166.409,110.900 166.406 L 123.600 166.400 123.600 150.600 L 123.600 134.800 67.489 134.800 L 11.378 134.800 10.596 135.700 M146.000 200.400 L 146.000 211.200 211.546 211.200 L 277.091 211.200 277.346 209.344 C 277.671 206.968,277.670 193.074,277.343 191.100 L 277.095 189.600 211.548 189.600 L 146.000 189.600 146.000 200.400 M146.400 254.024 L 146.400 273.649 180.667 273.524 C 207.636 273.426,214.969 273.294,215.100 272.900 C 215.203 272.590,216.015 272.400,217.233 272.400 C 218.315 272.400,219.200 272.241,219.200 272.047 C 219.200 271.852,220.368 271.568,221.796 271.415 C 223.223 271.262,224.494 270.971,224.619 270.769 C 224.745 270.566,225.276 270.400,225.800 270.400 C 226.324 270.400,226.849 270.244,226.968 270.053 C 227.086 269.861,227.942 269.584,228.871 269.435 C 229.800 269.286,230.749 269.023,230.980 268.849 C 231.211 268.676,232.030 268.297,232.800 268.008 C 234.603 267.330,239.165 265.293,240.200 264.704 C 240.640 264.453,241.810 263.816,242.800 263.288 C 243.790 262.760,244.884 262.074,245.231 261.764 C 245.579 261.454,246.003 261.200,246.174 261.200 C 246.345 261.200,246.997 260.795,247.623 260.300 C 248.249 259.805,249.619 258.770,250.667 258.000 C 253.079 256.227,262.400 247.053,262.400 246.451 C 262.400 246.203,262.542 246.000,262.715 246.000 C 262.889 246.000,263.824 244.785,264.794 243.300 C 265.764 241.815,266.702 240.540,266.879 240.467 C 267.056 240.393,267.200 240.120,267.200 239.860 C 267.200 239.599,267.652 238.721,268.204 237.908 C 268.756 237.095,269.382 235.973,269.594 235.415 L 269.980 234.400 208.190 234.400 L 146.400 234.400 146.400 254.024 M372.667 301.318 C 372.270 302.153,372.033 303.053,372.141 303.318 C 372.254 303.595,372.350 303.515,372.368 303.129 C 372.386 302.759,372.683 302.174,373.029 301.828 C 373.375 301.482,373.597 300.884,373.523 300.499 C 373.428 300.007,373.174 300.249,372.667 301.318 M26.400 301.200 C 26.400 301.420,26.577 301.600,26.792 301.600 C 27.008 301.600,27.297 302.049,27.435 302.597 C 27.573 303.146,27.855 303.490,28.062 303.362 C 28.293 303.219,28.280 302.938,28.029 302.635 C 27.745 302.293,27.770 301.989,28.110 301.647 C 28.498 301.256,28.454 301.208,27.900 301.419 C 27.494 301.574,27.200 301.499,27.200 301.243 C 27.200 300.999,27.020 300.800,26.800 300.800 C 26.580 300.800,26.400 300.980,26.400 301.200 M28.638 303.845 C 28.328 304.654,28.535 304.916,29.342 304.735 C 29.850 304.622,29.863 304.487,29.420 303.888 C 28.936 303.232,28.874 303.229,28.638 303.845 M370.571 304.000 C 370.571 304.440,370.803 304.800,371.086 304.800 C 371.670 304.800,371.695 304.712,371.357 303.833 C 371.018 302.948,370.571 303.043,370.571 304.000 M30.938 308.331 C 31.302 308.734,31.600 309.274,31.600 309.531 C 31.600 309.789,31.780 310.000,32.000 310.000 C 32.220 310.000,32.394 309.865,32.387 309.700 C 32.368 309.268,30.927 307.600,30.574 307.600 C 30.410 307.600,30.574 307.929,30.938 308.331 M359.402 321.598 C 359.003 322.039,358.807 322.400,358.967 322.400 C 359.388 322.400,360.528 321.195,360.312 320.979 C 360.211 320.878,359.802 321.156,359.402 321.598 " stroke="none" fill="#fcbb37" fill-rule="evenodd"></path><path id="path2" d="M179.900 0.274 C 177.975 0.360,176.400 0.582,176.400 0.767 C 176.400 0.952,174.150 1.234,171.400 1.392 C 168.650 1.551,166.400 1.842,166.400 2.040 C 166.400 2.238,165.680 2.400,164.800 2.400 C 163.920 2.400,163.200 2.559,163.200 2.753 C 163.200 2.947,161.670 3.233,159.800 3.389 C 157.930 3.544,156.400 3.836,156.400 4.036 C 156.400 4.236,155.680 4.400,154.800 4.400 C 153.920 4.400,153.200 4.562,153.200 4.759 C 153.200 4.957,151.940 5.245,150.400 5.400 C 148.860 5.555,147.600 5.843,147.600 6.041 C 147.600 6.238,147.150 6.400,146.600 6.400 C 146.050 6.400,145.600 6.559,145.600 6.754 C 145.600 6.949,144.610 7.232,143.400 7.383 C 142.190 7.534,141.200 7.825,141.200 8.029 C 141.200 8.233,140.750 8.400,140.200 8.400 C 139.650 8.400,139.200 8.563,139.200 8.762 C 139.200 8.962,138.300 9.249,137.200 9.400 C 136.100 9.551,135.200 9.838,135.200 10.038 C 135.200 10.237,134.750 10.400,134.200 10.400 C 133.650 10.400,133.200 10.563,133.200 10.762 C 133.200 10.962,132.300 11.249,131.200 11.400 C 130.100 11.551,129.200 11.838,129.200 12.038 C 129.200 12.237,128.840 12.400,128.400 12.400 C 127.960 12.400,127.600 12.557,127.600 12.749 C 127.600 12.941,126.880 13.213,126.000 13.354 C 125.120 13.494,124.400 13.787,124.400 14.005 C 124.400 14.222,123.950 14.400,123.400 14.400 C 122.850 14.400,122.400 14.578,122.400 14.795 C 122.400 15.013,121.680 15.306,120.800 15.446 C 119.920 15.587,119.200 15.859,119.200 16.051 C 119.200 16.243,118.840 16.400,118.400 16.400 C 117.960 16.400,117.600 16.566,117.600 16.768 C 117.600 16.971,117.060 17.255,116.400 17.400 C 115.740 17.545,115.200 17.829,115.200 18.032 C 115.200 18.234,114.840 18.400,114.400 18.400 C 113.960 18.400,113.600 18.566,113.600 18.768 C 113.600 18.971,113.060 19.255,112.400 19.400 C 111.740 19.545,111.200 19.829,111.200 20.032 C 111.200 20.234,110.840 20.400,110.400 20.400 C 109.960 20.400,109.600 20.566,109.600 20.768 C 109.600 20.971,109.060 21.255,108.400 21.400 C 107.740 21.545,107.200 21.829,107.200 22.032 C 107.200 22.234,106.840 22.400,106.400 22.400 C 105.960 22.400,105.600 22.566,105.600 22.768 C 105.600 22.971,105.060 23.255,104.400 23.400 C 103.740 23.545,103.200 23.829,103.200 24.032 C 103.200 24.234,102.840 24.400,102.400 24.400 C 101.960 24.400,101.600 24.560,101.600 24.757 C 101.600 24.953,101.150 25.226,100.600 25.364 C 100.050 25.502,99.600 25.792,99.600 26.008 C 99.600 26.223,99.330 26.400,99.000 26.400 C 98.670 26.400,98.400 26.560,98.400 26.757 C 98.400 26.953,97.950 27.226,97.400 27.364 C 96.850 27.502,96.400 27.792,96.400 28.008 C 96.400 28.223,96.130 28.400,95.800 28.400 C 95.470 28.400,95.200 28.580,95.200 28.800 C 95.200 29.020,94.834 29.200,94.387 29.200 C 93.941 29.200,93.471 29.470,93.345 29.800 C 93.218 30.130,92.793 30.400,92.400 30.400 C 92.007 30.400,91.582 30.670,91.455 31.000 C 91.329 31.330,90.872 31.600,90.440 31.600 C 90.005 31.600,89.540 31.958,89.400 32.400 C 89.260 32.842,88.795 33.200,88.360 33.200 C 87.928 33.200,87.471 33.470,87.345 33.800 C 87.218 34.130,86.793 34.400,86.400 34.400 C 86.007 34.400,85.582 34.670,85.455 35.000 C 85.329 35.330,84.872 35.600,84.440 35.600 C 84.007 35.600,83.543 35.951,83.406 36.380 C 83.270 36.808,82.763 37.284,82.280 37.437 C 81.796 37.589,81.109 38.049,80.753 38.457 C 80.397 38.866,79.904 39.200,79.657 39.200 C 79.409 39.200,78.691 39.740,78.060 40.400 C 77.429 41.060,76.630 41.600,76.284 41.600 C 75.937 41.600,75.543 41.951,75.406 42.380 C 75.270 42.808,74.808 43.270,74.380 43.406 C 73.951 43.543,73.600 43.822,73.600 44.027 C 73.600 44.232,73.406 44.400,73.169 44.400 C 72.931 44.400,72.024 45.120,71.153 46.000 C 70.282 46.880,69.395 47.600,69.182 47.600 C 68.969 47.600,67.573 48.836,66.080 50.347 C 64.587 51.857,62.978 53.217,62.503 53.367 C 62.029 53.518,61.533 53.983,61.400 54.400 C 61.267 54.817,60.817 55.267,60.400 55.400 C 59.983 55.533,59.533 55.983,59.400 56.400 C 59.267 56.817,58.817 57.267,58.400 57.400 C 57.983 57.533,57.533 57.983,57.400 58.400 C 57.267 58.817,56.817 59.267,56.400 59.400 C 55.983 59.533,55.533 59.983,55.400 60.400 C 55.267 60.817,54.817 61.267,54.400 61.400 C 53.983 61.533,53.518 62.029,53.367 62.503 C 53.217 62.978,51.857 64.587,50.347 66.080 C 48.836 67.573,47.600 68.969,47.600 69.182 C 47.600 69.395,46.880 70.282,46.000 71.153 C 45.120 72.024,44.400 72.931,44.400 73.169 C 44.400 73.406,44.232 73.600,44.027 73.600 C 43.822 73.600,43.543 73.951,43.406 74.380 C 43.270 74.808,42.808 75.270,42.380 75.406 C 41.951 75.543,41.600 75.937,41.600 76.284 C 41.600 76.630,41.060 77.429,40.400 78.060 C 39.740 78.691,39.200 79.409,39.200 79.657 C 39.200 79.904,38.866 80.397,38.457 80.753 C 38.049 81.109,37.589 81.796,37.437 82.280 C 37.284 82.763,36.808 83.270,36.380 83.406 C 35.951 83.543,35.600 84.007,35.600 84.440 C 35.600 84.872,35.330 85.329,35.000 85.455 C 34.670 85.582,34.400 86.007,34.400 86.400 C 34.400 86.793,34.130 87.218,33.800 87.345 C 33.470 87.471,33.200 87.928,33.200 88.360 C 33.200 88.795,32.842 89.260,32.400 89.400 C 31.958 89.540,31.600 90.005,31.600 90.440 C 31.600 90.872,31.330 91.329,31.000 91.455 C 30.670 91.582,30.400 92.007,30.400 92.400 C 30.400 92.793,30.130 93.218,29.800 93.345 C 29.470 93.471,29.200 93.941,29.200 94.387 C 29.200 94.834,29.020 95.200,28.800 95.200 C 28.580 95.200,28.400 95.470,28.400 95.800 C 28.400 96.130,28.223 96.400,28.008 96.400 C 27.792 96.400,27.502 96.850,27.364 97.400 C 27.226 97.950,26.953 98.400,26.757 98.400 C 26.560 98.400,26.400 98.670,26.400 99.000 C 26.400 99.330,26.223 99.600,26.008 99.600 C 25.792 99.600,25.502 100.050,25.364 100.600 C 25.226 101.150,24.953 101.600,24.757 101.600 C 24.560 101.600,24.400 101.960,24.400 102.400 C 24.400 102.840,24.234 103.200,24.032 103.200 C 23.829 103.200,23.545 103.740,23.400 104.400 C 23.255 105.060,22.971 105.600,22.768 105.600 C 22.566 105.600,22.400 105.960,22.400 106.400 C 22.400 106.840,22.234 107.200,22.032 107.200 C 21.829 107.200,21.545 107.740,21.400 108.400 C 21.255 109.060,20.971 109.600,20.768 109.600 C 20.566 109.600,20.400 109.960,20.400 110.400 C 20.400 110.840,20.234 111.200,20.032 111.200 C 19.829 111.200,19.545 111.740,19.400 112.400 C 19.255 113.060,18.971 113.600,18.768 113.600 C 18.566 113.600,18.400 113.960,18.400 114.400 C 18.400 114.840,18.234 115.200,18.032 115.200 C 17.829 115.200,17.545 115.740,17.400 116.400 C 17.255 117.060,16.971 117.600,16.768 117.600 C 16.566 117.600,16.400 117.960,16.400 118.400 C 16.400 118.840,16.243 119.200,16.051 119.200 C 15.859 119.200,15.587 119.920,15.446 120.800 C 15.306 121.680,15.013 122.400,14.795 122.400 C 14.578 122.400,14.400 122.850,14.400 123.400 C 14.400 123.950,14.222 124.400,14.005 124.400 C 13.787 124.400,13.494 125.120,13.354 126.000 C 13.213 126.880,12.941 127.600,12.749 127.600 C 12.557 127.600,12.400 127.960,12.400 128.400 C 12.400 128.840,12.237 129.200,12.038 129.200 C 11.838 129.200,11.551 130.100,11.400 131.200 C 11.249 132.300,10.985 133.200,10.815 133.200 C 10.644 133.200,10.505 133.515,10.507 133.900 C 10.512 135.290,10.393 135.643,10.000 135.400 C 9.780 135.264,9.600 135.428,9.600 135.764 C 9.600 136.143,9.828 136.287,10.200 136.145 C 10.530 136.018,10.800 135.743,10.800 135.534 C 10.800 135.324,11.008 135.281,11.262 135.438 C 11.548 135.615,11.615 135.548,11.438 135.262 C 11.223 134.914,24.978 134.800,67.371 134.800 L 123.590 134.800 123.695 120.100 L 123.800 105.400 168.880 105.400 C 204.411 105.400,214.066 105.506,214.460 105.900 C 214.744 106.184,215.953 106.400,217.256 106.400 C 218.519 106.400,219.649 106.556,219.768 106.748 C 219.886 106.939,221.423 107.221,223.184 107.374 C 224.945 107.528,226.490 107.822,226.617 108.027 C 226.743 108.232,227.467 108.400,228.224 108.400 C 228.981 108.400,229.600 108.555,229.600 108.744 C 229.600 108.934,230.531 109.199,231.669 109.334 C 232.808 109.468,233.924 109.764,234.149 109.989 C 234.375 110.215,234.963 110.400,235.456 110.400 C 235.949 110.400,236.451 110.560,236.572 110.755 C 236.693 110.950,237.445 111.232,238.245 111.382 C 239.044 111.532,240.036 111.822,240.449 112.027 C 240.862 112.232,241.558 112.580,241.995 112.800 C 242.432 113.020,242.989 113.200,243.234 113.200 C 243.778 113.200,246.523 114.454,246.800 114.829 C 246.910 114.978,247.585 115.226,248.300 115.382 C 249.015 115.537,249.600 115.829,249.600 116.032 C 249.600 116.234,249.870 116.400,250.200 116.400 C 250.530 116.400,250.800 116.560,250.800 116.755 C 250.800 116.951,251.430 117.229,252.200 117.374 C 252.970 117.518,253.600 117.808,253.600 118.018 C 253.600 118.228,253.870 118.400,254.200 118.400 C 254.530 118.400,254.800 118.560,254.800 118.757 C 254.800 118.953,255.250 119.226,255.800 119.364 C 256.350 119.502,256.800 119.792,256.800 120.008 C 256.800 120.223,257.160 120.400,257.600 120.400 C 258.040 120.400,258.400 120.580,258.400 120.800 C 258.400 121.020,258.642 121.200,258.939 121.200 C 259.235 121.200,259.902 121.568,260.421 122.018 C 260.940 122.468,261.996 123.226,262.767 123.704 C 263.539 124.181,264.455 124.847,264.803 125.185 C 265.150 125.523,265.942 126.160,266.562 126.600 C 267.182 127.040,267.926 127.625,268.216 127.900 C 268.506 128.175,268.857 128.400,268.996 128.400 C 269.135 128.400,270.688 129.840,272.448 131.600 L 275.648 134.800 332.024 134.800 C 374.711 134.800,388.400 134.913,388.400 135.267 C 388.400 135.523,388.509 135.624,388.643 135.491 C 389.123 135.010,389.943 136.171,389.503 136.709 C 389.189 137.094,389.248 137.157,389.743 136.966 C 390.448 136.696,390.665 135.200,390.000 135.200 C 389.780 135.200,389.600 134.750,389.600 134.200 C 389.600 133.650,389.420 133.200,389.200 133.200 C 388.980 133.200,388.800 132.919,388.800 132.576 C 388.800 132.194,388.607 132.062,388.300 132.235 C 387.936 132.440,387.917 132.390,388.229 132.049 C 388.718 131.517,388.494 129.200,387.955 129.200 C 387.760 129.200,387.600 128.840,387.600 128.400 C 387.600 127.960,387.443 127.600,387.251 127.600 C 387.059 127.600,386.787 126.880,386.646 126.000 C 386.506 125.120,386.213 124.400,385.995 124.400 C 385.778 124.400,385.600 123.950,385.600 123.400 C 385.600 122.850,385.422 122.400,385.205 122.400 C 384.987 122.400,384.694 121.680,384.554 120.800 C 384.413 119.920,384.141 119.200,383.949 119.200 C 383.757 119.200,383.600 118.840,383.600 118.400 C 383.600 117.960,383.434 117.600,383.232 117.600 C 383.029 117.600,382.745 117.060,382.600 116.400 C 382.455 115.740,382.171 115.200,381.968 115.200 C 381.766 115.200,381.600 114.840,381.600 114.400 C 381.600 113.960,381.434 113.600,381.232 113.600 C 381.029 113.600,380.745 113.060,380.600 112.400 C 380.455 111.740,380.171 111.200,379.968 111.200 C 379.766 111.200,379.600 110.840,379.600 110.400 C 379.600 109.960,379.434 109.600,379.232 109.600 C 379.029 109.600,378.745 109.060,378.600 108.400 C 378.455 107.740,378.171 107.200,377.968 107.200 C 377.766 107.200,377.600 106.840,377.600 106.400 C 377.600 105.960,377.434 105.600,377.232 105.600 C 377.029 105.600,376.745 105.060,376.600 104.400 C 376.455 103.740,376.171 103.200,375.968 103.200 C 375.766 103.200,375.600 102.840,375.600 102.400 C 375.600 101.960,375.440 101.600,375.243 101.600 C 375.047 101.600,374.774 101.150,374.636 100.600 C 374.498 100.050,374.208 99.600,373.992 99.600 C 373.777 99.600,373.600 99.330,373.600 99.000 C 373.600 98.670,373.440 98.400,373.243 98.400 C 373.047 98.400,372.774 97.950,372.636 97.400 C 372.498 96.850,372.208 96.400,371.992 96.400 C 371.777 96.400,371.600 96.130,371.600 95.800 C 371.600 95.470,371.420 95.200,371.200 95.200 C 370.980 95.200,370.800 94.834,370.800 94.387 C 370.800 93.941,370.530 93.471,370.200 93.345 C 369.870 93.218,369.600 92.774,369.600 92.357 C 369.600 91.941,369.416 91.600,369.190 91.600 C 368.965 91.600,368.607 91.145,368.396 90.590 C 368.185 90.034,367.739 89.475,367.406 89.347 C 367.073 89.219,366.800 88.768,366.800 88.345 C 366.800 87.921,366.530 87.471,366.200 87.345 C 365.870 87.218,365.600 86.793,365.600 86.400 C 365.600 86.007,365.330 85.582,365.000 85.455 C 364.670 85.329,364.400 84.872,364.400 84.440 C 364.400 84.007,364.049 83.543,363.620 83.406 C 363.192 83.270,362.716 82.763,362.563 82.280 C 362.411 81.796,361.951 81.109,361.543 80.753 C 361.134 80.397,360.800 79.904,360.800 79.657 C 360.800 79.409,360.260 78.691,359.600 78.060 C 358.940 77.429,358.400 76.630,358.400 76.284 C 358.400 75.937,358.049 75.543,357.620 75.406 C 357.192 75.270,356.730 74.808,356.594 74.380 C 356.457 73.951,356.178 73.600,355.973 73.600 C 355.768 73.600,355.600 73.406,355.600 73.169 C 355.600 72.931,354.880 72.024,354.000 71.153 C 353.120 70.282,352.400 69.417,352.400 69.232 C 352.400 69.046,351.160 67.637,349.644 66.100 C 348.128 64.563,346.768 62.930,346.623 62.473 C 346.478 62.015,346.017 61.533,345.600 61.400 C 345.183 61.267,344.733 60.817,344.600 60.400 C 344.467 59.983,344.017 59.533,343.600 59.400 C 343.183 59.267,342.733 58.817,342.600 58.400 C 342.467 57.983,342.017 57.533,341.600 57.400 C 341.183 57.267,340.733 56.817,340.600 56.400 C 340.467 55.983,340.017 55.533,339.600 55.400 C 339.183 55.267,338.733 54.817,338.600 54.400 C 338.467 53.983,337.971 53.518,337.497 53.367 C 337.022 53.217,335.413 51.857,333.920 50.347 C 332.427 48.836,331.031 47.600,330.818 47.600 C 330.605 47.600,329.718 46.880,328.847 46.000 C 327.976 45.120,327.069 44.400,326.831 44.400 C 326.594 44.400,326.400 44.232,326.400 44.027 C 326.400 43.822,326.049 43.543,325.620 43.406 C 325.192 43.270,324.730 42.808,324.594 42.380 C 324.457 41.951,324.063 41.600,323.716 41.600 C 323.370 41.600,322.571 41.060,321.940 40.400 C 321.309 39.740,320.591 39.200,320.343 39.200 C 320.096 39.200,319.603 38.866,319.247 38.457 C 318.891 38.049,318.204 37.589,317.720 37.437 C 317.237 37.284,316.730 36.808,316.594 36.380 C 316.457 35.951,315.993 35.600,315.560 35.600 C 315.128 35.600,314.671 35.330,314.545 35.000 C 314.418 34.670,313.993 34.400,313.600 34.400 C 313.207 34.400,312.782 34.130,312.655 33.800 C 312.529 33.470,312.079 33.200,311.655 33.200 C 311.232 33.200,310.781 32.927,310.653 32.594 C 310.525 32.261,309.966 31.815,309.410 31.604 C 308.855 31.393,308.400 31.035,308.400 30.810 C 308.400 30.584,308.059 30.400,307.643 30.400 C 307.226 30.400,306.782 30.130,306.655 29.800 C 306.529 29.470,306.059 29.200,305.613 29.200 C 305.166 29.200,304.800 29.020,304.800 28.800 C 304.800 28.580,304.530 28.400,304.200 28.400 C 303.870 28.400,303.600 28.223,303.600 28.008 C 303.600 27.792,303.150 27.502,302.600 27.364 C 302.050 27.226,301.600 26.953,301.600 26.757 C 301.600 26.560,301.330 26.400,301.000 26.400 C 300.670 26.400,300.400 26.247,300.400 26.060 C 300.400 25.873,299.590 25.387,298.600 24.978 C 297.610 24.570,296.800 24.107,296.800 23.950 C 296.800 23.792,296.260 23.545,295.600 23.400 C 294.940 23.255,294.400 22.971,294.400 22.768 C 294.400 22.566,294.040 22.400,293.600 22.400 C 293.160 22.400,292.800 22.234,292.800 22.032 C 292.800 21.829,292.260 21.545,291.600 21.400 C 290.940 21.255,290.400 20.971,290.400 20.768 C 290.400 20.566,290.040 20.400,289.600 20.400 C 289.160 20.400,288.800 20.234,288.800 20.032 C 288.800 19.829,288.260 19.545,287.600 19.400 C 286.940 19.255,286.400 18.971,286.400 18.768 C 286.400 18.566,286.040 18.400,285.600 18.400 C 285.160 18.400,284.800 18.234,284.800 18.032 C 284.800 17.829,284.260 17.545,283.600 17.400 C 282.940 17.255,282.400 16.971,282.400 16.768 C 282.400 16.566,282.040 16.400,281.600 16.400 C 281.160 16.400,280.800 16.243,280.800 16.051 C 280.800 15.859,280.080 15.587,279.200 15.446 C 278.320 15.306,277.600 15.013,277.600 14.795 C 277.600 14.578,277.150 14.400,276.600 14.400 C 276.050 14.400,275.600 14.222,275.600 14.005 C 275.600 13.787,274.880 13.494,274.000 13.354 C 273.120 13.213,272.400 12.941,272.400 12.749 C 272.400 12.557,272.040 12.400,271.600 12.400 C 271.160 12.400,270.800 12.237,270.800 12.038 C 270.800 11.838,269.900 11.551,268.800 11.400 C 267.700 11.249,266.800 10.962,266.800 10.762 C 266.800 10.563,266.350 10.400,265.800 10.400 C 265.250 10.400,264.800 10.237,264.800 10.038 C 264.800 9.838,263.900 9.551,262.800 9.400 C 261.700 9.249,260.800 8.962,260.800 8.762 C 260.800 8.563,260.350 8.400,259.800 8.400 C 259.250 8.400,258.800 8.233,258.800 8.029 C 258.800 7.825,257.810 7.534,256.600 7.383 C 255.390 7.232,254.400 6.949,254.400 6.754 C 254.400 6.559,253.950 6.400,253.400 6.400 C 252.850 6.400,252.400 6.238,252.400 6.041 C 252.400 5.843,251.140 5.555,249.600 5.400 C 248.060 5.245,246.800 4.957,246.800 4.759 C 246.800 4.562,246.080 4.400,245.200 4.400 C 244.320 4.400,243.600 4.236,243.600 4.036 C 243.600 3.836,242.070 3.544,240.200 3.389 C 238.330 3.233,236.800 2.947,236.800 2.753 C 236.800 2.559,236.080 2.400,235.200 2.400 C 234.320 2.400,233.600 2.240,233.600 2.044 C 233.600 1.849,231.395 1.557,228.700 1.397 C 225.903 1.230,223.681 0.917,223.523 0.667 C 223.249 0.232,187.913 -0.086,179.900 0.274 M146.400 130.574 L 146.400 134.800 192.500 134.754 C 217.855 134.728,238.285 134.625,237.900 134.524 C 237.515 134.424,237.200 134.175,237.200 133.971 C 237.200 133.767,236.840 133.600,236.400 133.600 C 235.960 133.600,235.600 133.443,235.600 133.251 C 235.600 133.059,234.880 132.787,234.000 132.646 C 233.120 132.506,232.400 132.213,232.400 131.995 C 232.400 131.778,231.950 131.600,231.400 131.600 C 230.850 131.600,230.400 131.422,230.400 131.205 C 230.400 130.987,229.680 130.694,228.800 130.554 C 227.920 130.413,227.200 130.141,227.200 129.949 C 227.200 129.757,226.570 129.600,225.800 129.600 C 225.030 129.600,224.400 129.434,224.400 129.232 C 224.400 129.029,223.230 128.738,221.800 128.585 C 220.370 128.432,219.200 128.148,219.200 127.953 C 219.200 127.759,218.405 127.600,217.433 127.600 C 216.375 127.600,215.600 127.399,215.500 127.100 C 215.369 126.706,207.995 126.573,180.867 126.474 L 146.400 126.348 146.400 130.574 M9.417 137.172 C 9.291 137.377,9.379 137.663,9.613 137.808 C 9.905 137.988,9.875 138.281,9.519 138.736 C 9.054 139.331,9.073 139.343,9.705 138.847 C 10.197 138.461,10.289 138.148,10.008 137.810 C 9.788 137.544,9.725 137.208,9.870 137.063 C 10.015 136.918,10.024 136.800,9.890 136.800 C 9.757 136.800,9.544 136.968,9.417 137.172 M390.189 139.342 C 390.642 139.674,390.832 140.139,390.678 140.542 C 390.518 140.958,390.629 141.200,390.979 141.200 C 391.284 141.200,391.614 141.425,391.712 141.700 C 391.810 141.975,392.049 142.051,392.242 141.870 C 392.439 141.685,392.303 141.378,391.934 141.171 C 391.503 140.930,391.353 140.502,391.500 139.938 C 391.648 139.374,391.575 139.168,391.291 139.344 C 391.051 139.492,390.742 139.430,390.604 139.207 C 390.466 138.983,390.149 138.800,389.900 138.800 C 389.651 138.800,389.781 139.044,390.189 139.342 M8.667 139.867 C 8.279 140.255,8.340 141.200,8.753 141.200 C 8.948 141.200,9.201 140.840,9.316 140.400 C 9.522 139.614,9.191 139.342,8.667 139.867 M7.465 142.679 C 7.170 144.497,7.422 144.919,7.794 143.229 C 7.942 142.553,8.240 142.000,8.455 142.000 C 8.671 142.000,8.736 141.820,8.600 141.600 C 8.119 140.822,7.702 141.218,7.465 142.679 M6.900 145.423 C 6.375 145.994,6.181 147.552,6.700 147.033 C 6.865 146.868,7.003 146.613,7.006 146.467 C 7.009 146.320,7.163 145.963,7.346 145.673 C 7.812 144.939,7.505 144.767,6.900 145.423 M392.994 146.300 C 393.439 148.395,394.343 150.215,394.372 149.071 C 394.387 148.451,394.138 147.681,393.817 147.360 C 393.496 147.039,393.336 146.512,393.460 146.188 C 393.584 145.865,393.497 145.600,393.266 145.600 C 393.035 145.600,392.913 145.915,392.994 146.300 M5.606 148.900 C 5.611 149.886,5.706 150.055,6.000 149.600 C 6.508 148.814,6.508 147.600,6.000 147.600 C 5.780 147.600,5.603 148.185,5.606 148.900 M3.600 157.867 C 3.600 159.600,3.843 159.523,4.128 157.700 C 4.239 156.985,4.166 156.400,3.965 156.400 C 3.764 156.400,3.600 157.060,3.600 157.867 M395.628 156.900 C 395.707 158.294,396.344 158.980,396.372 157.700 C 396.387 156.985,396.220 156.400,396.000 156.400 C 395.780 156.400,395.613 156.625,395.628 156.900 M1.606 167.300 C 1.611 168.028,1.686 168.085,2.000 167.600 C 2.501 166.824,2.501 166.400,2.000 166.400 C 1.780 166.400,1.603 166.805,1.606 167.300 " stroke="none" fill="#fcae19" fill-rule="evenodd"></path><path id="path3" d="M124.000 105.900 C 124.000 106.172,152.901 106.169,191.800 105.895 C 199.940 105.837,188.015 105.747,165.300 105.695 C 142.585 105.643,124.000 105.735,124.000 105.900 M211.400 106.418 C 212.500 106.590,214.120 106.720,215.000 106.709 C 216.393 106.690,216.316 106.648,214.400 106.383 C 213.190 106.216,211.570 106.085,210.800 106.093 C 209.678 106.104,209.797 106.169,211.400 106.418 M219.633 107.344 C 219.725 107.424,220.610 107.596,221.600 107.727 C 222.802 107.886,223.134 107.847,222.600 107.610 C 221.836 107.272,219.286 107.043,219.633 107.344 M225.000 108.381 C 225.768 108.729,227.910 108.956,227.567 108.653 C 227.475 108.572,226.680 108.396,225.800 108.262 C 224.685 108.093,224.442 108.129,225.000 108.381 M230.000 109.600 C 231.368 110.038,232.419 110.038,231.400 109.600 C 230.960 109.411,230.240 109.262,229.800 109.268 C 229.157 109.277,229.196 109.343,230.000 109.600 M233.000 110.400 C 233.440 110.589,234.070 110.744,234.400 110.744 C 234.778 110.744,234.704 110.617,234.200 110.400 C 233.760 110.211,233.130 110.056,232.800 110.056 C 232.422 110.056,232.496 110.183,233.000 110.400 M236.800 111.600 C 237.130 111.813,237.670 111.988,238.000 111.988 C 238.533 111.988,238.533 111.945,238.000 111.600 C 237.670 111.387,237.130 111.212,236.800 111.212 C 236.267 111.212,236.267 111.255,236.800 111.600 M241.200 113.031 C 241.200 113.301,243.278 114.056,243.476 113.857 C 243.567 113.767,243.092 113.501,242.420 113.267 C 241.749 113.033,241.200 112.927,241.200 113.031 M259.400 122.282 C 259.620 122.491,261.049 123.536,262.575 124.604 C 264.101 125.673,266.351 127.358,267.575 128.350 C 268.799 129.341,269.530 129.816,269.200 129.406 C 268.530 128.571,261.215 123.040,259.866 122.347 C 259.390 122.102,259.180 122.073,259.400 122.282 M145.645 125.745 C 145.318 126.139,145.221 131.895,145.296 146.445 L 145.400 166.600 208.100 166.701 C 251.463 166.771,270.800 166.674,270.800 166.385 C 270.800 165.780,268.334 161.133,268.124 161.342 C 268.027 161.440,268.499 162.497,269.174 163.692 C 269.848 164.887,270.400 165.985,270.400 166.132 C 270.400 166.280,242.318 166.400,207.996 166.400 L 145.593 166.400 145.696 146.100 L 145.800 125.800 175.200 125.596 L 204.600 125.392 175.349 125.296 C 151.048 125.216,146.021 125.292,145.645 125.745 M205.705 125.887 C 206.314 125.979,207.214 125.977,207.705 125.882 C 208.197 125.787,207.700 125.711,206.600 125.714 C 205.500 125.717,205.097 125.795,205.705 125.887 M211.800 126.423 C 212.680 126.605,213.940 126.742,214.600 126.727 C 215.500 126.707,215.350 126.620,214.000 126.380 C 211.586 125.950,209.694 125.987,211.800 126.423 M217.200 127.200 C 217.750 127.376,218.650 127.517,219.200 127.513 C 220.098 127.506,220.078 127.474,219.000 127.200 C 217.308 126.769,215.856 126.769,217.200 127.200 M222.600 128.400 C 223.040 128.589,223.760 128.744,224.200 128.744 L 225.000 128.744 224.200 128.400 C 223.760 128.211,223.040 128.056,222.600 128.056 L 221.800 128.056 222.600 128.400 M225.834 129.172 C 226.220 129.534,229.144 130.241,228.800 129.889 C 228.690 129.776,227.895 129.491,227.034 129.256 C 226.173 129.021,225.633 128.983,225.834 129.172 M231.600 131.031 C 231.600 131.301,233.678 132.056,233.876 131.857 C 233.967 131.767,233.492 131.501,232.820 131.267 C 232.149 131.033,231.600 130.927,231.600 131.031 M274.814 134.975 C 276.692 136.969,279.097 139.590,280.159 140.800 C 281.776 142.641,281.873 142.706,280.753 141.200 C 280.018 140.210,277.612 137.589,275.408 135.375 C 271.414 131.365,271.412 131.364,274.814 134.975 M236.400 132.997 C 236.400 133.268,239.649 134.884,239.830 134.703 C 239.914 134.619,239.176 134.159,238.191 133.681 C 237.206 133.202,236.400 132.894,236.400 132.997 M240.400 134.935 C 240.400 135.206,243.274 136.859,243.446 136.687 C 243.526 136.608,242.873 136.139,241.996 135.646 C 241.118 135.152,240.400 134.833,240.400 134.935 M244.000 136.918 C 244.000 137.091,248.157 140.029,249.200 140.593 C 250.209 141.139,249.157 140.249,247.000 138.733 C 244.669 137.095,244.000 136.690,244.000 136.918 M252.179 143.000 C 253.394 143.990,254.499 144.800,254.634 144.800 C 254.994 144.800,250.657 141.219,250.284 141.209 C 250.111 141.204,250.963 142.010,252.179 143.000 M283.193 144.900 C 283.932 145.945,284.605 146.800,284.690 146.800 C 285.008 146.800,283.371 144.321,282.626 143.673 C 282.200 143.303,282.455 143.855,283.193 144.900 M254.833 145.332 C 254.925 145.404,255.900 146.252,257.000 147.215 L 259.000 148.966 257.217 147.083 C 256.236 146.047,255.261 145.200,255.050 145.200 C 254.839 145.200,254.742 145.259,254.833 145.332 M285.925 148.900 C 286.564 149.835,287.396 151.202,287.773 151.937 C 288.150 152.673,288.553 153.181,288.667 153.066 C 288.895 152.838,285.359 147.200,284.989 147.200 C 284.864 147.200,285.285 147.965,285.925 148.900 M260.966 151.668 C 262.195 153.026,263.200 154.286,263.200 154.468 C 263.200 154.651,263.391 154.800,263.624 154.800 C 263.857 154.800,263.011 153.540,261.744 152.000 C 260.477 150.460,259.281 149.200,259.087 149.200 C 258.892 149.200,259.738 150.311,260.966 151.668 M264.590 156.200 C 264.961 156.860,265.719 157.940,266.274 158.600 L 267.285 159.800 266.610 158.600 C 266.239 157.940,265.481 156.860,264.926 156.200 L 263.915 155.000 264.590 156.200 M290.800 157.500 C 290.800 157.691,291.061 158.196,291.380 158.624 C 291.940 159.373,291.952 159.368,291.732 158.494 C 291.504 157.591,290.800 156.840,290.800 157.500 M293.267 162.820 C 293.501 163.492,293.767 163.967,293.857 163.876 C 294.056 163.678,293.301 161.600,293.031 161.600 C 292.927 161.600,293.033 162.149,293.267 162.820 M110.820 166.700 C 101.052 166.784,97.763 166.934,97.526 167.306 C 96.742 168.540,97.155 188.748,97.974 189.186 C 99.010 189.741,124.320 189.760,123.766 189.206 C 123.528 188.968,118.304 188.770,110.586 188.706 L 97.800 188.600 97.800 178.000 L 97.800 167.400 110.586 167.294 C 118.304 167.230,123.528 167.032,123.766 166.794 C 123.983 166.577,124.079 166.442,123.980 166.494 C 123.881 166.546,117.959 166.639,110.820 166.700 M295.008 166.729 C 295.475 167.240,318.801 167.604,318.800 167.100 C 318.800 166.935,313.685 166.800,307.433 166.800 C 301.181 166.800,295.736 166.684,295.333 166.541 C 294.808 166.356,294.716 166.409,295.008 166.729 M309.474 188.800 L 300.348 189.000 300.268 200.486 L 300.187 211.973 309.494 212.086 C 314.613 212.149,318.801 212.065,318.800 211.900 C 318.800 211.735,314.705 211.600,309.700 211.600 L 300.600 211.600 300.600 200.601 L 300.600 189.601 309.476 189.601 C 315.331 189.600,318.443 189.455,318.616 189.173 C 318.993 188.564,319.431 188.582,309.474 188.800 M145.640 189.352 C 145.322 189.735,145.218 192.211,145.300 197.452 L 145.419 205.000 145.509 197.300 L 145.600 189.600 211.392 189.600 L 277.185 189.600 277.427 190.700 C 277.839 192.566,277.936 192.652,277.968 191.180 C 277.986 190.399,277.784 189.544,277.520 189.280 C 276.758 188.518,146.273 188.589,145.640 189.352 M278.161 200.400 C 278.161 203.810,278.222 205.205,278.297 203.500 C 278.372 201.795,278.372 199.005,278.297 197.300 C 278.222 195.595,278.161 196.990,278.161 200.400 M277.466 209.702 L 277.150 211.605 211.375 211.502 C 175.199 211.446,145.600 211.535,145.600 211.700 C 145.600 211.865,175.214 212.000,211.410 212.000 L 277.220 212.000 277.629 210.923 C 277.854 210.331,277.981 209.386,277.910 208.823 C 277.818 208.095,277.690 208.348,277.466 209.702 M110.600 211.592 L 97.400 211.800 97.293 222.772 C 97.211 231.284,97.300 233.817,97.693 234.066 C 97.972 234.243,103.914 234.391,110.897 234.394 L 123.595 234.400 123.697 264.500 L 123.800 294.600 164.800 294.708 C 191.132 294.777,207.446 294.665,210.400 294.395 C 217.149 293.779,219.923 293.410,220.246 293.087 C 220.655 292.678,220.171 292.717,215.114 293.492 C 211.046 294.116,206.331 294.185,167.400 294.192 L 124.200 294.200 124.097 264.105 L 123.995 234.011 110.897 233.905 L 97.800 233.800 97.800 223.000 L 97.800 212.200 110.900 212.095 C 119.174 212.028,124.000 211.844,124.000 211.595 C 124.000 211.378,123.955 211.241,123.900 211.292 C 123.845 211.342,117.860 211.477,110.600 211.592 M306.483 233.991 L 294.365 234.200 292.623 238.300 C 291.665 240.555,291.043 242.400,291.241 242.400 C 291.438 242.400,291.600 242.225,291.600 242.011 C 291.600 241.797,292.039 240.672,292.576 239.511 C 293.112 238.350,293.823 236.725,294.155 235.900 L 294.759 234.400 306.556 234.400 C 313.989 234.400,318.444 234.252,318.600 234.000 C 318.736 233.780,318.792 233.641,318.724 233.691 C 318.656 233.741,313.147 233.876,306.483 233.991 M145.600 254.157 C 145.600 272.169,145.667 274.340,146.233 274.557 C 146.581 274.691,158.866 274.800,173.533 274.801 C 198.366 274.801,207.601 274.519,213.000 273.594 C 214.982 273.255,214.978 273.254,212.600 273.451 C 211.280 273.561,195.755 273.739,178.100 273.847 L 146.000 274.044 146.000 254.222 L 146.000 234.400 208.238 234.400 L 270.476 234.400 269.187 236.700 C 264.780 244.562,259.223 251.302,253.000 256.334 C 251.460 257.579,250.110 258.702,250.000 258.829 C 249.890 258.956,249.215 259.401,248.500 259.816 C 247.785 260.232,247.200 260.724,247.200 260.910 C 247.200 261.901,254.159 256.164,258.800 251.348 C 263.511 246.458,270.800 236.080,270.800 234.262 C 270.800 234.118,242.630 234.000,208.200 234.000 L 145.600 234.000 145.600 254.157 M289.896 244.105 C 289.539 244.817,288.693 246.345,288.016 247.500 C 287.338 248.655,286.922 249.597,287.092 249.594 C 287.460 249.588,290.942 243.209,290.707 242.973 C 290.617 242.884,290.252 243.393,289.896 244.105 M286.169 250.473 C 285.998 250.763,285.599 251.405,285.283 251.900 C 284.967 252.395,284.864 252.799,285.054 252.797 C 285.460 252.795,286.906 250.372,286.653 250.119 C 286.558 250.024,286.340 250.184,286.169 250.473 M281.689 256.900 C 280.135 258.935,278.471 261.017,277.992 261.526 C 277.512 262.036,277.198 262.531,277.293 262.627 C 277.508 262.842,278.844 261.326,281.200 258.193 C 282.190 256.877,283.226 255.561,283.503 255.269 C 284.081 254.658,284.904 253.200,284.671 253.200 C 284.585 253.200,283.243 254.865,281.689 256.900 M245.586 261.765 C 245.264 262.076,244.100 262.825,243.000 263.429 C 241.900 264.034,240.730 264.678,240.400 264.861 C 238.716 265.795,232.680 268.400,232.200 268.400 C 231.896 268.400,231.536 268.580,231.400 268.800 C 231.026 269.405,231.392 269.309,234.728 267.930 C 239.104 266.122,246.800 261.932,246.800 261.358 C 246.800 261.010,246.138 261.232,245.586 261.765 M273.789 266.100 L 271.000 269.000 273.900 266.211 C 276.594 263.620,276.983 263.200,276.689 263.200 C 276.628 263.200,275.323 264.505,273.789 266.100 M229.200 269.600 C 228.667 269.945,228.667 269.988,229.200 269.988 C 229.530 269.988,230.070 269.813,230.400 269.600 C 230.933 269.255,230.933 269.212,230.400 269.212 C 230.070 269.212,229.530 269.387,229.200 269.600 M269.933 269.516 C 269.860 269.690,268.495 270.880,266.900 272.161 C 264.302 274.248,262.833 275.745,264.755 274.349 C 268.318 271.759,271.186 269.204,270.533 269.202 C 270.277 269.201,270.007 269.342,269.933 269.516 M226.600 270.285 C 226.160 270.391,225.620 270.653,225.400 270.867 C 224.945 271.311,227.018 270.905,228.000 270.358 C 228.700 269.969,228.055 269.935,226.600 270.285 M220.400 271.877 C 216.150 272.838,215.081 273.195,217.200 272.947 C 219.606 272.665,225.268 271.282,224.000 271.286 C 223.450 271.288,221.830 271.554,220.400 271.877 M262.200 275.830 L 261.000 276.855 262.300 276.141 C 263.015 275.749,263.600 275.286,263.600 275.114 C 263.600 274.659,263.523 274.699,262.200 275.830 M257.700 278.700 C 256.109 279.712,254.887 280.620,254.985 280.718 C 255.123 280.857,260.009 278.007,260.767 277.345 C 261.792 276.450,259.974 277.253,257.700 278.700 M252.662 281.666 C 251.816 282.102,251.219 282.552,251.335 282.668 C 251.502 282.835,252.736 282.278,254.367 281.300 C 255.277 280.754,253.832 281.064,252.662 281.666 M248.682 283.675 C 247.847 284.127,247.245 284.578,247.343 284.676 C 247.545 284.878,250.800 283.291,250.800 282.992 C 250.800 282.652,250.234 282.835,248.682 283.675 M244.200 285.791 C 243.100 286.321,242.402 286.764,242.649 286.777 C 243.186 286.804,246.800 285.241,246.800 284.981 C 246.800 284.641,246.201 284.828,244.200 285.791 M239.000 287.729 C 237.652 288.207,236.907 288.641,237.300 288.720 C 237.685 288.796,238.568 288.575,239.261 288.229 C 239.955 287.883,240.755 287.600,241.038 287.600 C 241.321 287.600,241.664 287.420,241.800 287.200 C 242.128 286.669,241.826 286.726,239.000 287.729 M233.000 289.807 C 231.460 290.315,230.494 290.746,230.854 290.765 C 231.669 290.809,235.665 289.584,236.180 289.133 C 236.741 288.642,236.155 288.766,233.000 289.807 M226.600 291.388 C 225.500 291.671,223.790 292.097,222.800 292.333 C 221.014 292.759,221.018 292.761,223.400 292.541 C 224.720 292.419,226.103 292.157,226.474 291.960 C 226.844 291.762,227.599 291.600,228.150 291.600 C 228.702 291.600,229.264 291.420,229.400 291.200 C 229.710 290.698,229.125 290.738,226.600 291.388 M119.734 382.907 C 119.630 383.075,119.349 383.092,119.111 382.945 C 118.841 382.778,118.792 382.864,118.983 383.173 C 119.152 383.446,119.640 383.578,120.068 383.466 C 120.703 383.300,120.759 383.367,120.374 383.831 C 119.801 384.521,120.153 384.559,121.326 383.935 C 122.093 383.526,122.138 383.544,121.691 384.086 C 121.250 384.621,121.340 384.690,122.359 384.604 C 123.216 384.531,123.478 384.652,123.325 385.052 C 123.183 385.422,123.425 385.600,124.068 385.600 C 124.593 385.600,125.422 385.880,125.911 386.223 C 126.733 386.799,126.982 386.704,126.837 385.870 C 126.806 385.689,126.968 385.656,127.197 385.798 C 127.426 385.939,127.492 386.251,127.344 386.490 C 127.161 386.786,127.478 386.844,128.338 386.672 C 129.365 386.467,129.599 386.548,129.594 387.110 C 129.589 387.702,129.533 387.715,129.200 387.200 C 128.987 386.870,128.809 386.795,128.806 387.033 C 128.796 387.777,129.276 387.988,130.044 387.577 C 130.658 387.248,130.737 387.300,130.516 387.891 C 130.282 388.516,130.331 388.534,130.934 388.043 C 131.532 387.557,131.587 387.570,131.366 388.143 C 131.029 389.022,131.852 388.986,132.368 388.100 C 132.592 387.715,132.781 387.591,132.788 387.824 C 132.795 388.056,133.070 388.596,133.401 389.024 C 133.861 389.618,133.947 389.643,133.769 389.129 C 133.586 388.600,133.719 388.506,134.402 388.685 C 135.067 388.859,135.144 388.995,134.734 389.273 C 134.353 389.532,134.488 389.618,135.200 389.574 C 137.165 389.451,137.861 389.611,138.675 390.369 C 139.314 390.965,139.616 391.033,140.009 390.669 C 140.289 390.411,140.430 390.380,140.322 390.600 C 140.106 391.043,141.166 392.131,142.001 392.323 C 142.421 392.419,142.434 392.323,142.059 391.871 C 141.659 391.389,141.790 391.314,142.865 391.406 C 143.571 391.466,144.340 391.775,144.574 392.092 C 144.851 392.468,145.537 392.625,146.539 392.542 C 147.798 392.437,148.116 392.558,148.286 393.207 C 148.418 393.711,148.832 394.000,149.423 394.000 C 149.934 394.000,150.473 394.195,150.620 394.432 C 150.769 394.674,151.327 394.754,151.882 394.615 C 152.460 394.470,153.144 394.582,153.515 394.883 C 153.997 395.273,154.080 395.278,153.853 394.900 C 153.652 394.565,153.824 394.400,154.376 394.400 C 154.842 394.400,155.200 394.661,155.200 395.000 C 155.200 395.330,155.425 395.614,155.700 395.631 C 155.975 395.647,156.550 395.727,156.977 395.807 C 157.405 395.886,157.945 395.833,158.177 395.687 C 158.885 395.244,159.583 395.248,159.860 395.697 C 160.016 395.949,159.934 396.007,159.662 395.838 C 159.408 395.681,159.200 395.659,159.200 395.789 C 159.200 396.209,160.993 396.711,161.221 396.354 C 161.419 396.044,163.906 396.706,164.400 397.200 C 164.617 397.417,165.571 397.569,167.314 397.663 C 167.927 397.696,168.499 397.837,168.586 397.977 C 168.672 398.116,169.377 398.210,170.153 398.184 C 170.928 398.158,171.493 398.249,171.409 398.385 C 171.325 398.522,172.361 398.677,173.713 398.731 C 175.064 398.784,176.290 399.022,176.437 399.259 C 176.614 399.547,176.776 399.509,176.921 399.145 C 177.100 398.698,177.215 398.708,177.563 399.200 C 177.941 399.733,177.989 399.733,178.000 399.200 C 178.011 398.667,178.054 398.667,178.391 399.200 C 178.977 400.126,220.551 400.070,221.209 399.143 C 221.323 398.981,223.095 398.793,225.146 398.726 C 227.197 398.658,228.960 398.464,229.065 398.295 C 229.170 398.126,229.423 398.091,229.628 398.217 C 229.832 398.344,230.003 398.212,230.006 397.924 C 230.010 397.577,230.112 397.545,230.306 397.829 C 230.642 398.319,232.853 398.409,232.551 397.920 C 232.346 397.589,232.569 397.538,234.600 397.451 C 235.260 397.423,235.946 397.171,236.125 396.892 C 236.303 396.612,236.599 396.476,236.783 396.589 C 236.966 396.703,237.218 396.529,237.343 396.204 C 237.478 395.853,237.832 395.714,238.218 395.862 C 238.738 396.062,238.761 396.178,238.334 396.450 C 237.920 396.712,237.951 396.789,238.471 396.794 C 238.841 396.797,239.426 396.517,239.771 396.171 C 240.117 395.826,240.400 395.668,240.400 395.820 C 240.400 395.973,240.674 395.870,241.010 395.592 C 241.345 395.314,241.735 395.202,241.876 395.343 C 242.018 395.484,241.923 395.600,241.667 395.600 C 241.410 395.600,241.200 395.741,241.200 395.914 C 241.200 396.087,241.564 396.229,242.010 396.229 C 242.455 396.229,242.744 396.031,242.651 395.790 C 242.545 395.511,242.908 395.413,243.647 395.522 C 244.582 395.659,244.762 395.568,244.567 395.058 C 244.358 394.513,244.666 394.444,246.765 394.569 C 248.987 394.701,250.340 394.314,249.102 393.900 C 248.826 393.808,249.095 393.638,249.700 393.522 C 250.305 393.406,250.800 393.466,250.800 393.655 C 250.800 393.845,251.081 394.000,251.424 394.000 C 251.767 394.000,251.937 393.822,251.803 393.605 C 251.657 393.369,251.838 393.316,252.249 393.474 C 252.779 393.678,252.879 393.583,252.680 393.063 C 252.472 392.521,252.611 392.423,253.387 392.563 C 253.919 392.660,254.440 392.527,254.545 392.269 C 254.683 391.931,254.746 391.939,254.768 392.300 C 254.814 393.028,255.530 392.913,256.705 391.989 C 257.274 391.541,257.890 391.330,258.078 391.518 C 258.497 391.937,260.800 391.640,260.800 391.167 C 260.800 390.979,260.548 390.922,260.240 391.040 C 259.933 391.158,259.545 391.034,259.379 390.765 C 259.181 390.446,259.243 390.379,259.556 390.573 C 259.819 390.736,260.468 390.585,260.997 390.239 C 261.691 389.784,262.037 389.736,262.241 390.066 C 262.409 390.338,262.347 390.414,262.089 390.255 C 261.851 390.108,261.565 390.133,261.455 390.310 C 261.345 390.488,261.603 390.660,262.028 390.692 C 262.460 390.725,262.800 390.497,262.800 390.175 C 262.800 389.859,263.115 389.594,263.500 389.587 C 263.885 389.580,264.542 389.316,264.959 389.000 C 265.741 388.408,266.592 388.566,266.183 389.228 C 266.056 389.432,266.163 389.600,266.419 389.600 C 266.676 389.600,266.799 389.374,266.693 389.098 C 266.587 388.822,266.782 388.333,267.126 388.011 C 267.680 387.494,267.722 387.506,267.489 388.113 C 267.295 388.619,267.433 388.800,268.013 388.800 C 268.446 388.800,268.800 388.609,268.800 388.376 C 268.800 388.143,269.011 388.083,269.268 388.242 C 269.595 388.444,269.648 388.300,269.444 387.766 C 269.221 387.178,269.263 387.109,269.625 387.469 C 270.137 387.977,271.200 387.751,271.200 387.134 C 271.200 386.924,270.992 386.881,270.738 387.038 C 270.450 387.216,270.385 387.148,270.566 386.855 C 270.725 386.598,271.034 386.498,271.253 386.633 C 271.472 386.768,271.981 386.579,272.385 386.214 C 272.789 385.848,273.678 385.533,274.360 385.514 C 275.042 385.494,275.600 385.306,275.600 385.096 C 275.600 384.886,275.869 384.818,276.197 384.944 C 276.529 385.071,277.145 384.796,277.583 384.326 C 278.150 383.718,278.517 383.594,278.886 383.885 C 279.390 384.283,280.989 384.456,280.603 384.070 C 280.495 383.962,280.607 383.632,280.852 383.337 C 281.097 383.042,281.141 382.799,280.949 382.797 C 257.557 382.603,119.864 382.697,119.734 382.907 " stroke="none" fill="#fccc54" fill-rule="evenodd"></path><path id="path4" d="M207.105 105.883 C 207.602 105.979,208.322 105.975,208.705 105.875 C 209.087 105.775,208.680 105.696,207.800 105.701 C 206.920 105.705,206.607 105.787,207.105 105.883 M123.697 136.294 L 123.600 166.389 110.700 166.500 L 97.800 166.611 110.713 166.706 C 120.744 166.779,123.668 166.688,123.816 166.300 C 123.921 166.025,123.959 152.390,123.901 136.000 L 123.795 106.200 123.697 136.294 M145.783 126.100 C 145.678 126.375,145.640 135.600,145.700 146.600 L 145.808 166.600 145.904 146.303 L 146.000 126.005 175.500 125.900 L 205.000 125.795 175.487 125.697 C 152.174 125.620,145.935 125.705,145.783 126.100 M208.305 126.283 C 208.802 126.379,209.522 126.375,209.905 126.275 C 210.287 126.175,209.880 126.096,209.000 126.101 C 208.120 126.105,207.807 126.187,208.305 126.283 M275.200 134.925 C 275.200 134.994,275.785 135.579,276.500 136.225 L 277.800 137.400 276.625 136.100 C 275.530 134.888,275.200 134.616,275.200 134.925 M257.000 147.600 C 257.859 148.480,258.652 149.200,258.762 149.200 C 258.872 149.200,258.259 148.480,257.400 147.600 C 256.541 146.720,255.748 146.000,255.638 146.000 C 255.528 146.000,256.141 146.720,257.000 147.600 M301.300 166.699 C 304.545 166.766,309.855 166.766,313.100 166.699 C 316.345 166.632,313.690 166.577,307.200 166.577 C 300.710 166.577,298.055 166.632,301.300 166.699 M123.693 200.300 L 123.600 211.200 110.624 211.200 C 103.487 211.200,97.564 211.335,97.462 211.500 C 97.359 211.665,103.206 211.750,110.455 211.689 C 120.483 211.605,123.679 211.460,123.823 211.083 C 123.928 210.811,123.962 205.820,123.900 199.994 L 123.786 189.400 123.693 200.300 M145.790 200.500 L 145.800 211.400 211.400 211.402 L 277.000 211.404 211.506 211.301 L 146.013 211.198 145.897 200.399 L 145.780 189.600 145.790 200.500 M277.768 200.200 C 277.768 204.600,277.826 206.455,277.898 204.321 C 277.970 202.188,277.970 198.588,277.899 196.321 C 277.827 194.055,277.768 195.800,277.768 200.200 M304.900 211.499 C 307.485 211.568,311.715 211.568,314.300 211.499 C 316.885 211.429,314.770 211.372,309.600 211.372 C 304.430 211.372,302.315 211.429,304.900 211.499 M146.096 254.100 L 146.000 274.000 176.500 273.903 L 207.000 273.805 176.704 273.700 L 146.408 273.595 146.300 253.897 L 146.192 234.200 146.096 254.100 M257.501 251.728 C 255.796 253.492,254.456 254.989,254.522 255.055 C 254.588 255.121,256.159 253.651,258.012 251.788 C 259.866 249.924,261.206 248.427,260.991 248.461 C 260.776 248.494,259.205 249.964,257.501 251.728 M273.800 266.257 C 269.602 270.639,268.974 271.392,271.343 269.199 C 275.162 265.665,277.910 262.775,277.375 262.858 C 277.169 262.890,275.560 264.419,273.800 266.257 M219.200 271.945 C 219.200 272.134,219.650 272.203,220.200 272.098 C 220.750 271.993,221.200 271.838,221.200 271.753 C 221.200 271.669,220.750 271.600,220.200 271.600 C 219.650 271.600,219.200 271.755,219.200 271.945 M267.000 272.635 L 265.800 273.666 267.100 272.806 C 267.815 272.333,268.400 271.868,268.400 271.773 C 268.400 271.473,268.231 271.578,267.000 272.635 M261.700 276.488 C 261.205 276.727,260.800 277.079,260.800 277.270 C 260.800 277.462,261.250 277.324,261.800 276.963 C 263.267 276.002,263.216 275.757,261.700 276.488 M226.400 292.000 C 225.915 292.314,225.972 292.389,226.700 292.394 C 227.195 292.397,227.600 292.220,227.600 292.000 C 227.600 291.499,227.176 291.499,226.400 292.000 M214.800 294.000 L 213.800 294.320 214.876 294.360 C 215.468 294.382,216.064 294.220,216.200 294.000 C 216.481 293.545,216.220 293.545,214.800 294.000 M74.083 294.702 C 19.249 294.814,22.955 294.629,25.600 297.122 C 26.150 297.640,26.394 297.961,26.142 297.835 C 25.890 297.708,25.584 297.864,25.462 298.182 C 25.307 298.586,25.434 298.685,25.885 298.512 C 26.387 298.320,26.479 298.453,26.305 299.119 C 26.028 300.181,27.321 301.816,28.079 301.360 C 28.499 301.107,28.504 301.166,28.103 301.660 C 27.830 301.997,27.740 302.407,27.903 302.570 C 28.067 302.733,28.222 303.032,28.250 303.233 C 28.370 304.113,28.429 304.173,28.720 303.716 C 28.942 303.367,29.164 303.450,29.517 304.016 C 29.811 304.486,29.845 304.800,29.603 304.800 C 29.382 304.800,29.200 304.991,29.200 305.224 C 29.200 305.457,29.411 305.517,29.668 305.358 C 29.983 305.164,30.052 305.287,29.881 305.734 C 29.710 306.179,29.831 306.400,30.246 306.400 C 30.587 306.400,30.793 306.621,30.703 306.891 C 30.613 307.162,30.882 307.747,31.300 308.191 C 31.719 308.636,32.394 309.720,32.800 310.600 C 33.206 311.480,33.877 312.560,34.290 313.000 C 34.703 313.440,35.152 314.070,35.289 314.400 C 35.425 314.730,36.496 316.276,37.668 317.836 C 38.841 319.396,40.589 321.736,41.554 323.036 C 42.518 324.336,43.508 325.580,43.754 325.800 C 43.999 326.020,44.737 326.920,45.393 327.800 C 46.050 328.680,47.153 330.030,47.846 330.800 C 53.067 336.606,54.802 338.434,59.691 343.281 C 62.732 346.296,66.066 349.446,67.101 350.281 C 68.136 351.117,69.346 352.161,69.791 352.602 C 70.886 353.687,76.053 357.852,79.000 360.025 C 80.320 360.999,81.525 361.971,81.678 362.186 C 81.831 362.401,82.080 362.453,82.231 362.302 C 82.383 362.151,82.858 362.475,83.288 363.022 C 83.719 363.568,84.550 364.265,85.135 364.570 C 85.721 364.874,86.633 365.501,87.161 365.962 C 87.690 366.423,88.350 366.800,88.628 366.800 C 88.906 366.800,89.193 366.954,89.267 367.143 C 89.340 367.331,90.930 368.437,92.800 369.600 C 94.670 370.764,96.290 371.825,96.400 371.958 C 96.919 372.586,100.927 374.369,101.301 374.138 C 101.549 373.984,101.606 374.067,101.438 374.338 C 101.269 374.612,101.407 374.800,101.776 374.800 C 102.119 374.800,102.400 374.999,102.400 375.243 C 102.400 375.486,102.670 375.582,103.000 375.455 C 103.368 375.314,103.600 375.456,103.600 375.823 C 103.600 376.166,104.109 376.522,104.800 376.660 C 105.460 376.792,106.000 377.077,106.000 377.293 C 106.000 377.509,106.270 377.582,106.600 377.455 C 106.930 377.329,107.200 377.395,107.200 377.603 C 107.200 378.097,110.405 379.644,110.854 379.366 C 111.044 379.249,111.200 379.339,111.200 379.567 C 111.200 380.182,114.353 381.593,115.093 381.309 C 115.516 381.147,115.634 381.222,115.443 381.530 C 115.265 381.819,115.583 382.166,116.277 382.441 C 116.895 382.686,117.713 383.047,118.095 383.243 C 119.007 383.712,119.306 383.694,118.994 383.190 C 118.855 382.965,118.889 382.806,119.070 382.837 C 119.252 382.869,119.490 382.873,119.600 382.847 C 120.471 382.641,280.977 382.850,281.161 383.058 C 281.292 383.207,281.147 383.182,280.838 383.002 C 280.460 382.783,280.370 382.828,280.562 383.138 C 280.978 383.811,282.131 383.719,281.868 383.033 C 281.656 382.480,282.396 381.972,283.333 382.028 C 283.590 382.044,283.440 382.211,283.000 382.400 C 282.316 382.694,282.301 382.748,282.900 382.772 C 283.285 382.787,283.926 382.474,284.325 382.075 C 284.724 381.676,285.262 381.421,285.521 381.507 C 286.029 381.676,287.290 380.623,286.967 380.300 C 286.860 380.193,287.274 380.186,287.886 380.284 C 288.755 380.423,288.868 380.369,288.400 380.037 C 287.768 379.589,288.215 379.402,289.509 379.572 C 290.077 379.647,291.272 378.605,290.967 378.300 C 290.860 378.193,291.274 378.186,291.886 378.284 C 292.755 378.423,292.868 378.369,292.400 378.037 C 291.867 377.659,291.867 377.606,292.400 377.560 C 293.497 377.464,293.790 377.380,295.216 376.743 C 295.995 376.396,296.903 375.861,297.234 375.556 C 297.976 374.871,300.326 373.600,300.849 373.600 C 301.236 373.600,301.799 373.197,303.229 371.900 C 303.653 371.515,304.000 371.291,304.000 371.403 C 304.000 371.759,310.587 367.510,310.925 366.935 C 311.103 366.632,311.418 366.488,311.625 366.615 C 311.831 366.743,312.000 366.646,312.000 366.400 C 312.000 366.154,312.180 366.064,312.400 366.200 C 312.620 366.336,312.800 366.285,312.800 366.087 C 312.800 365.888,313.430 365.387,314.200 364.972 C 314.970 364.557,315.600 364.079,315.600 363.909 C 315.600 363.739,315.804 363.600,316.053 363.600 C 316.302 363.600,316.829 363.228,317.223 362.774 C 317.617 362.319,318.046 361.963,318.176 361.982 C 318.785 362.071,322.793 358.712,322.549 358.318 C 322.384 358.051,322.460 357.990,322.741 358.164 C 322.997 358.322,323.456 358.215,323.762 357.926 C 324.068 357.636,325.157 356.770,326.183 356.000 C 327.208 355.230,328.764 353.925,329.640 353.100 C 330.516 352.275,331.390 351.600,331.583 351.600 C 331.776 351.600,331.993 351.440,332.067 351.244 C 332.140 351.049,332.928 350.284,333.818 349.544 C 334.708 348.805,335.473 348.065,335.518 347.900 C 335.563 347.735,335.735 347.559,335.900 347.509 C 336.425 347.349,348.534 335.063,350.200 332.999 C 351.080 331.910,352.170 330.654,352.623 330.209 C 353.076 329.764,353.966 328.680,354.600 327.800 C 355.235 326.920,355.945 326.020,356.177 325.800 C 356.410 325.580,357.345 324.410,358.256 323.200 C 359.166 321.990,360.291 320.603,360.756 320.117 C 361.220 319.631,361.600 319.124,361.600 318.990 C 361.600 318.728,363.481 316.138,364.300 315.271 C 364.575 314.981,364.800 314.552,364.800 314.318 C 364.800 314.085,365.148 313.592,365.572 313.224 C 365.997 312.855,366.641 311.813,367.004 310.908 C 367.366 310.002,367.918 309.163,368.231 309.043 C 368.544 308.923,368.800 308.632,368.800 308.396 C 368.800 308.160,369.154 307.587,369.586 307.123 C 370.019 306.659,370.278 306.126,370.163 305.939 C 370.047 305.753,370.140 305.600,370.369 305.600 C 370.597 305.600,370.722 305.060,370.645 304.400 C 370.506 303.211,370.962 302.738,371.319 303.700 C 371.421 303.975,371.710 303.660,371.961 303.000 C 372.729 300.977,373.306 300.018,373.633 300.220 C 373.804 300.326,374.058 300.230,374.196 300.007 C 374.334 299.783,374.145 299.600,373.775 299.600 C 373.224 299.600,373.192 299.492,373.596 299.004 C 373.868 298.677,374.278 298.525,374.507 298.666 C 374.751 298.817,374.804 298.730,374.634 298.455 C 374.475 298.198,374.177 298.091,373.972 298.217 C 373.768 298.344,373.600 298.172,373.600 297.836 C 373.600 297.431,373.824 297.311,374.266 297.481 C 374.740 297.663,374.840 297.589,374.614 297.223 C 374.440 296.941,374.456 296.596,374.649 296.455 C 374.842 296.315,375.198 295.840,375.441 295.400 C 375.894 294.577,263.017 294.316,74.083 294.702 M277.784 384.027 C 277.639 384.261,277.628 384.561,277.760 384.693 C 277.892 384.825,278.000 384.729,278.000 384.479 C 278.000 384.220,278.286 384.135,278.666 384.281 C 279.113 384.452,279.236 384.383,279.042 384.068 C 278.681 383.484,278.130 383.466,277.784 384.027 M275.600 385.164 C 275.600 385.337,275.042 385.494,274.360 385.514 C 273.678 385.533,272.789 385.848,272.385 386.214 C 271.981 386.579,271.472 386.768,271.253 386.633 C 271.034 386.498,270.725 386.598,270.566 386.855 C 270.385 387.148,270.450 387.216,270.738 387.038 C 270.992 386.881,271.200 386.943,271.200 387.176 C 271.200 387.409,271.470 387.600,271.800 387.600 C 272.130 387.600,272.400 387.420,272.400 387.200 C 272.400 386.980,272.760 386.800,273.200 386.800 C 273.640 386.800,274.000 386.637,274.000 386.437 C 274.000 386.238,274.360 386.169,274.800 386.284 C 275.247 386.401,275.600 386.296,275.600 386.047 C 275.600 385.801,275.859 385.600,276.176 385.600 C 277.067 385.600,277.244 384.974,276.372 384.908 C 275.948 384.876,275.600 384.991,275.600 385.164 M124.400 385.953 C 124.400 386.148,124.892 386.401,125.492 386.516 C 126.514 386.711,126.535 386.688,125.816 386.162 C 124.937 385.519,124.400 385.440,124.400 385.953 M128.227 386.759 C 127.611 387.000,127.566 387.132,128.003 387.402 C 128.343 387.612,128.613 387.561,128.710 387.269 C 128.808 386.975,129.133 387.123,129.568 387.659 C 130.171 388.404,130.301 388.435,130.513 387.882 C 130.686 387.433,130.586 387.307,130.180 387.463 C 129.822 387.601,129.600 387.440,129.600 387.043 C 129.600 386.342,129.397 386.301,128.227 386.759 M267.140 387.979 C 267.062 388.215,266.561 388.492,266.028 388.595 C 265.495 388.697,264.875 388.965,264.649 389.191 C 264.424 389.416,263.916 389.600,263.520 389.600 C 262.420 389.600,262.663 390.214,263.800 390.308 C 264.483 390.365,264.800 390.189,264.800 389.753 C 264.800 389.390,265.027 389.201,265.325 389.316 C 265.927 389.547,267.917 388.184,267.536 387.802 C 267.397 387.664,267.219 387.743,267.140 387.979 M133.449 389.017 C 133.311 389.376,133.512 389.494,134.077 389.385 C 135.244 389.161,135.362 388.936,134.442 388.695 C 133.991 388.577,133.565 388.716,133.449 389.017 M135.555 389.628 C 134.863 390.056,136.109 390.597,137.000 390.255 C 137.330 390.129,137.600 390.199,137.600 390.413 C 137.600 390.626,138.000 390.800,138.489 390.800 C 139.358 390.800,139.360 390.788,138.589 390.262 C 137.486 389.511,136.185 389.238,135.555 389.628 M261.011 390.242 C 260.578 390.558,259.983 390.726,259.691 390.613 C 259.386 390.496,259.270 390.590,259.420 390.832 C 259.563 391.064,259.978 391.135,260.340 390.989 C 260.703 390.842,261.180 390.691,261.400 390.653 C 261.819 390.579,262.163 390.029,261.933 389.799 C 261.859 389.726,261.444 389.925,261.011 390.242 M139.600 391.000 C 139.181 391.505,139.252 391.595,140.051 391.568 C 140.573 391.551,140.774 391.446,140.498 391.334 C 140.221 391.223,140.097 390.967,140.221 390.766 C 140.584 390.179,140.144 390.345,139.600 391.000 M141.733 391.788 C 141.733 392.390,142.900 392.428,143.294 391.839 C 143.475 391.569,143.590 391.669,143.594 392.100 C 143.597 392.485,143.870 392.800,144.200 392.800 C 144.903 392.800,144.997 392.169,144.352 391.771 C 143.554 391.277,141.733 391.289,141.733 391.788 M256.662 392.100 C 255.852 392.821,255.848 392.850,256.600 392.586 C 257.040 392.431,257.617 392.296,257.883 392.286 C 258.148 392.275,258.446 392.057,258.545 391.800 C 258.828 391.062,257.610 391.257,256.662 392.100 M254.400 392.307 C 254.400 392.557,253.972 392.669,253.410 392.568 C 252.650 392.430,252.475 392.529,252.653 392.994 C 252.781 393.327,253.114 393.600,253.394 393.600 C 254.033 393.600,255.002 392.468,254.657 392.124 C 254.516 391.982,254.400 392.065,254.400 392.307 M145.683 393.100 C 145.911 393.375,146.490 393.600,146.969 393.600 C 147.448 393.600,148.035 393.795,148.274 394.034 C 148.512 394.272,149.133 394.387,149.654 394.288 C 150.558 394.117,150.553 394.107,149.547 394.054 C 148.868 394.019,148.421 393.723,148.290 393.221 C 148.131 392.613,147.775 392.459,146.677 392.521 C 145.600 392.581,145.366 392.718,145.683 393.100 M249.600 393.623 L 248.600 393.885 249.683 394.182 C 251.011 394.545,251.685 394.349,251.061 393.780 C 250.807 393.550,250.150 393.479,249.600 393.623 M153.733 394.970 C 153.733 395.284,154.063 395.515,154.467 395.485 C 154.870 395.455,155.200 395.198,155.200 394.915 C 155.200 394.632,154.870 394.400,154.467 394.400 C 154.063 394.400,153.733 394.657,153.733 394.970 M244.400 394.816 C 244.400 395.491,245.142 395.583,246.192 395.038 L 247.267 394.480 245.834 394.480 C 245.045 394.480,244.400 394.631,244.400 394.816 M158.161 395.663 C 158.028 395.878,157.667 395.958,157.360 395.840 C 157.052 395.722,156.800 395.810,156.800 396.037 C 156.800 396.268,157.458 396.394,158.300 396.324 C 159.125 396.256,159.800 396.037,159.800 395.838 C 159.800 395.331,158.455 395.187,158.161 395.663 M240.996 395.607 C 240.858 395.830,240.622 395.939,240.472 395.849 C 240.323 395.758,239.949 395.956,239.642 396.287 C 239.153 396.816,239.200 396.854,240.023 396.593 C 241.054 396.266,242.300 395.200,241.652 395.200 C 241.429 395.200,241.134 395.383,240.996 395.607 M237.373 396.044 C 236.988 396.667,237.458 396.919,238.214 396.496 C 238.816 396.159,238.820 396.093,238.257 395.877 C 237.910 395.744,237.512 395.819,237.373 396.044 M161.200 396.400 C 161.200 396.620,161.605 396.797,162.100 396.794 C 162.828 396.789,162.885 396.714,162.400 396.400 C 161.624 395.899,161.200 395.899,161.200 396.400 M167.051 398.083 C 167.159 398.257,167.607 398.400,168.047 398.400 C 168.487 398.400,168.743 398.231,168.616 398.025 C 168.488 397.819,168.040 397.677,167.620 397.708 C 167.199 397.740,166.944 397.909,167.051 398.083 M221.200 399.139 C 221.200 399.326,221.740 399.494,222.400 399.512 C 223.060 399.531,223.600 399.379,223.600 399.173 C 223.600 398.968,223.060 398.800,222.400 398.800 C 221.740 398.800,221.200 398.953,221.200 399.139 " stroke="none" fill="#fcc454" fill-rule="evenodd"></path></g></svg>