<svg id="svg" version="1.1" xmlns="http://www.w3.org/2000/svg" xmlns:xlink="http://www.w3.org/1999/xlink" width="400" height="400" viewBox="0, 0, 400,400"><g id="svgg"><path id="path0" d="M201.225 43.430 C 201.659 43.953,201.650 44.122,201.174 44.416 C 200.681 44.721,200.572 52.795,200.400 101.566 L 200.200 158.362 198.621 159.979 C 197.752 160.869,196.672 161.714,196.221 161.857 C 195.769 162.000,193.926 162.811,192.124 163.658 C 190.323 164.506,188.758 165.200,188.647 165.200 C 188.475 165.200,184.952 166.817,173.325 172.233 C 172.183 172.765,171.141 173.200,171.008 173.200 C 170.875 173.200,168.531 174.280,165.800 175.600 C 163.069 176.920,160.665 178.000,160.458 178.000 C 160.251 178.000,158.849 178.619,157.341 179.375 C 155.833 180.131,153.250 181.324,151.600 182.027 C 149.950 182.729,146.800 184.151,144.600 185.186 C 142.400 186.222,139.430 187.568,138.000 188.177 C 136.570 188.786,134.140 189.880,132.600 190.606 C 123.732 194.792,121.947 195.600,121.572 195.600 C 121.345 195.600,120.493 195.961,119.679 196.403 C 117.493 197.590,108.355 201.839,107.219 202.196 C 106.679 202.366,106.013 202.730,105.738 203.005 C 104.945 203.798,102.351 204.153,101.904 203.529 C 101.628 203.144,101.589 203.199,101.762 203.733 C 101.893 204.136,102.000 204.611,102.000 204.789 C 102.000 204.968,102.450 205.226,103.000 205.364 C 103.550 205.502,104.000 205.778,104.000 205.977 C 104.000 206.175,104.675 206.555,105.500 206.820 C 106.325 207.084,107.270 207.527,107.600 207.803 C 107.930 208.079,108.605 208.429,109.100 208.580 C 109.595 208.730,110.000 209.112,110.000 209.427 C 110.000 209.742,110.302 210.000,110.671 210.000 C 111.040 210.000,112.525 210.780,113.971 211.734 C 118.010 214.398,118.516 214.674,119.906 214.979 C 120.618 215.136,121.200 215.500,121.200 215.788 C 121.200 216.077,121.650 216.426,122.200 216.564 C 122.750 216.702,123.200 216.985,123.200 217.192 C 123.200 217.400,123.918 217.762,124.795 217.999 C 125.673 218.235,126.348 218.616,126.295 218.846 C 126.243 219.075,127.190 219.786,128.400 220.425 C 129.610 221.064,130.836 221.787,131.125 222.032 C 131.414 222.278,132.286 222.654,133.063 222.868 C 133.839 223.083,134.370 223.363,134.243 223.491 C 134.044 223.690,135.994 224.910,138.000 225.841 C 138.330 225.994,138.986 226.465,139.457 226.889 C 139.928 227.312,140.594 227.699,140.937 227.750 C 141.281 227.800,141.885 228.123,142.281 228.468 C 143.002 229.096,144.335 229.860,146.632 230.962 C 147.309 231.288,148.095 231.832,148.377 232.172 C 148.660 232.513,149.036 232.702,149.213 232.592 C 149.390 232.482,149.784 232.641,150.087 232.944 C 150.391 233.248,151.215 233.794,151.920 234.158 C 152.624 234.523,153.200 234.967,153.200 235.147 C 153.200 235.326,153.925 235.691,154.812 235.956 C 155.871 236.274,156.329 236.604,156.147 236.920 C 155.996 237.184,156.014 237.271,156.188 237.114 C 156.539 236.798,157.646 237.305,158.845 238.331 C 159.274 238.699,159.800 239.023,160.013 239.050 C 160.226 239.078,160.580 239.123,160.800 239.150 C 161.020 239.178,161.200 239.450,161.200 239.755 C 161.200 240.073,161.796 240.423,162.589 240.572 C 163.353 240.715,164.128 241.101,164.312 241.429 C 164.496 241.757,165.175 242.121,165.821 242.238 C 166.468 242.355,167.142 242.710,167.318 243.026 C 167.495 243.342,167.873 243.600,168.158 243.600 C 168.443 243.600,169.199 244.051,169.838 244.602 C 170.477 245.154,171.318 245.707,171.706 245.831 C 172.094 245.956,172.331 246.187,172.234 246.346 C 172.136 246.504,172.424 246.662,172.876 246.696 C 173.327 246.730,174.359 247.217,175.169 247.779 C 175.980 248.340,176.858 248.800,177.122 248.800 C 177.385 248.800,177.555 249.017,177.500 249.282 C 177.445 249.547,177.625 249.794,177.900 249.832 C 178.175 249.869,178.445 249.936,178.500 249.981 C 178.555 250.025,178.911 250.121,179.292 250.194 C 179.673 250.267,180.256 250.599,180.588 250.931 C 180.920 251.263,181.734 251.654,182.396 251.799 C 183.058 251.945,183.600 252.319,183.600 252.632 C 183.600 252.944,183.842 253.200,184.139 253.200 C 184.435 253.200,185.093 253.560,185.600 254.000 C 186.107 254.440,186.682 254.800,186.877 254.800 C 187.214 254.800,187.697 255.095,190.660 257.108 C 191.353 257.579,192.380 258.080,192.943 258.222 C 193.507 258.363,194.179 258.734,194.439 259.047 C 194.698 259.359,195.514 259.901,196.252 260.251 C 198.997 261.554,198.780 265.623,198.895 210.782 C 199.020 151.864,197.990 158.298,206.635 162.417 C 208.925 163.507,210.884 164.400,210.989 164.400 C 211.198 164.400,214.204 165.766,219.800 168.403 C 221.780 169.336,224.750 170.686,226.400 171.403 C 228.050 172.120,233.360 174.507,238.200 176.706 C 243.040 178.906,251.770 182.868,257.600 185.512 C 275.469 193.615,282.056 196.626,285.626 198.324 C 290.340 200.566,293.051 201.600,294.215 201.600 C 294.757 201.600,295.200 201.750,295.200 201.933 C 295.200 202.117,295.433 202.267,295.718 202.267 C 296.561 202.267,296.479 200.333,295.601 199.515 C 295.161 199.105,294.800 198.579,294.800 198.348 C 294.800 198.116,294.440 197.469,294.000 196.909 C 293.560 196.350,293.200 195.546,293.200 195.122 C 293.200 194.699,293.033 194.456,292.829 194.582 C 292.625 194.708,292.330 194.404,292.174 193.906 C 292.018 193.408,291.465 192.491,290.945 191.869 C 290.425 191.247,289.997 190.437,289.994 190.069 C 289.991 189.701,289.271 188.604,288.394 187.632 C 287.361 186.487,286.800 185.482,286.800 184.779 C 286.800 184.012,286.553 183.629,285.960 183.474 C 285.498 183.353,285.229 183.076,285.363 182.859 C 285.498 182.642,285.291 182.154,284.904 181.774 C 284.226 181.109,283.287 179.565,282.440 177.722 C 282.218 177.239,281.398 175.936,280.618 174.826 C 279.838 173.716,279.200 172.636,279.200 172.425 C 279.200 172.214,278.750 171.556,278.200 170.962 C 277.650 170.369,277.200 169.577,277.200 169.204 C 277.200 168.830,276.840 168.198,276.400 167.800 C 275.960 167.402,275.600 166.757,275.600 166.367 C 275.600 165.976,275.375 165.414,275.100 165.118 C 274.392 164.354,273.087 162.393,272.427 161.100 C 272.118 160.495,271.715 160.000,271.532 160.000 C 271.350 160.000,271.200 159.675,271.200 159.279 C 271.200 158.695,269.289 155.623,268.413 154.800 C 268.104 154.510,266.911 152.406,266.202 150.900 C 265.865 150.185,265.412 149.600,265.195 149.600 C 264.978 149.600,264.794 149.195,264.787 148.700 C 264.775 147.841,263.617 145.841,263.584 146.624 C 263.576 146.831,263.311 146.408,262.997 145.684 C 262.682 144.960,262.150 144.092,261.813 143.755 C 261.476 143.419,261.200 142.886,261.200 142.571 C 261.200 142.257,261.020 142.000,260.800 142.000 C 260.580 142.000,260.431 141.865,260.470 141.700 C 260.588 141.191,259.448 139.082,258.500 138.057 C 258.005 137.521,257.600 136.839,257.600 136.542 C 257.600 136.244,257.459 136.000,257.288 136.000 C 257.116 136.000,256.752 135.505,256.479 134.900 C 255.484 132.697,254.540 131.134,254.004 130.803 C 253.703 130.616,253.418 130.206,253.372 129.890 C 253.326 129.575,252.644 128.401,251.857 127.282 C 251.071 126.162,250.313 124.793,250.174 124.240 C 250.035 123.686,249.681 123.033,249.386 122.789 C 249.092 122.545,248.733 121.805,248.588 121.146 C 248.436 120.453,247.960 119.799,247.462 119.599 C 246.988 119.407,246.741 119.239,246.914 119.225 C 247.087 119.211,246.772 118.528,246.214 117.707 C 245.656 116.886,245.200 116.029,245.200 115.803 C 245.200 115.577,244.840 115.168,244.400 114.893 C 243.960 114.618,243.600 114.062,243.600 113.658 C 243.600 113.253,243.240 112.507,242.800 112.000 C 242.360 111.493,242.000 110.745,242.000 110.339 C 242.000 109.932,241.816 109.600,241.591 109.600 C 241.367 109.600,240.964 109.105,240.696 108.500 C 240.429 107.895,239.986 107.220,239.712 107.000 C 239.264 106.640,238.146 104.653,235.941 100.300 C 235.523 99.475,235.025 98.800,234.834 98.800 C 234.643 98.800,234.382 98.384,234.255 97.875 C 234.127 97.367,233.578 96.433,233.034 95.800 C 232.490 95.168,232.139 94.499,232.253 94.315 C 232.366 94.131,232.236 94.030,231.962 94.090 C 231.679 94.153,231.302 93.542,231.086 92.669 C 230.877 91.828,230.457 91.043,230.153 90.927 C 229.849 90.810,229.600 90.419,229.600 90.057 C 229.599 89.696,229.149 88.877,228.600 88.238 C 228.050 87.599,227.600 86.834,227.600 86.538 C 227.600 86.242,227.422 86.000,227.205 86.000 C 226.988 86.000,226.566 85.415,226.267 84.700 C 225.968 83.985,225.426 83.153,225.062 82.851 C 224.698 82.549,224.400 81.983,224.400 81.594 C 224.400 81.204,224.153 80.791,223.851 80.675 C 223.550 80.559,223.179 79.969,223.027 79.364 C 222.875 78.758,222.402 77.820,221.975 77.278 C 221.549 76.736,221.200 76.053,221.200 75.760 C 221.200 75.468,220.840 75.035,220.400 74.800 C 219.960 74.565,219.600 74.020,219.600 73.590 C 219.600 72.845,219.024 71.951,217.510 70.350 C 217.131 69.949,216.706 69.164,216.566 68.606 C 216.426 68.049,216.140 67.487,215.931 67.357 C 215.481 67.079,214.661 65.253,214.603 64.400 C 214.581 64.070,214.362 63.840,214.116 63.888 C 213.871 63.937,213.477 63.487,213.241 62.888 C 212.694 61.503,212.033 60.491,210.900 59.305 C 210.405 58.787,210.000 58.012,210.000 57.582 C 210.000 57.152,209.811 56.800,209.579 56.800 C 209.348 56.800,208.970 56.260,208.740 55.600 C 208.510 54.940,208.149 54.400,207.937 54.400 C 207.726 54.400,207.664 54.220,207.800 54.000 C 207.936 53.780,207.885 53.600,207.688 53.600 C 207.490 53.600,207.111 53.195,206.845 52.700 C 206.579 52.205,205.921 51.080,205.384 50.200 C 204.846 49.320,204.137 48.027,203.809 47.327 C 203.481 46.627,203.050 45.954,202.851 45.832 C 202.653 45.709,202.372 44.977,202.227 44.204 C 202.058 43.304,201.738 42.800,201.333 42.800 C 200.804 42.800,200.787 42.902,201.225 43.430 M146.756 125.300 C 146.286 126.195,146.288 126.196,147.142 125.438 C 148.095 124.591,148.182 124.400,147.614 124.400 C 147.402 124.400,147.016 124.805,146.756 125.300 M294.404 219.798 C 293.857 220.090,293.307 220.266,293.180 220.188 C 293.054 220.110,292.438 220.485,291.813 221.023 C 291.187 221.560,290.428 222.000,290.125 222.000 C 289.823 222.000,289.479 222.249,289.363 222.553 C 289.246 222.857,288.442 223.219,287.575 223.358 C 286.709 223.496,286.000 223.793,286.000 224.017 C 286.000 224.242,285.685 224.537,285.300 224.673 C 284.915 224.810,284.297 225.181,283.928 225.498 C 283.154 226.161,281.324 227.205,278.944 228.342 C 278.033 228.778,277.168 229.329,277.020 229.567 C 276.873 229.805,276.416 230.000,276.005 230.000 C 275.594 230.000,274.576 230.642,273.744 231.427 C 272.912 232.212,271.714 232.957,271.081 233.084 C 270.449 233.210,269.837 233.558,269.723 233.857 C 269.608 234.156,269.277 234.400,268.988 234.400 C 268.698 234.400,267.927 234.850,267.273 235.400 C 266.619 235.950,265.795 236.400,265.442 236.400 C 265.089 236.400,264.800 236.536,264.800 236.702 C 264.800 236.869,264.221 237.261,263.514 237.574 C 262.012 238.239,258.926 240.273,258.587 240.821 C 258.458 241.030,257.996 241.200,257.560 241.200 C 257.123 241.200,256.549 241.383,256.283 241.607 C 254.988 242.699,252.129 244.386,251.562 244.393 C 251.211 244.397,250.598 244.760,250.200 245.200 C 249.802 245.640,249.262 246.000,249.000 246.000 C 248.738 246.000,248.198 246.360,247.800 246.800 C 247.402 247.240,246.828 247.600,246.525 247.600 C 246.223 247.600,245.873 247.865,245.749 248.189 C 245.624 248.513,244.909 248.893,244.158 249.034 C 243.407 249.175,242.340 249.647,241.787 250.082 C 241.233 250.517,240.470 250.926,240.090 250.990 C 239.711 251.054,239.449 251.321,239.510 251.583 C 239.570 251.845,239.458 251.959,239.260 251.837 C 239.062 251.715,238.443 252.040,237.883 252.558 C 237.323 253.077,235.697 254.071,234.269 254.766 C 232.842 255.462,231.572 256.295,231.448 256.619 C 231.324 256.943,231.082 257.170,230.911 257.124 C 230.290 256.959,228.868 257.645,228.650 258.215 C 228.526 258.537,228.081 258.800,227.662 258.800 C 227.242 258.800,226.674 259.070,226.400 259.400 C 226.126 259.730,225.699 260.003,225.451 260.007 C 225.068 260.013,223.747 260.812,220.800 262.820 C 219.346 263.811,214.323 266.530,213.758 266.632 C 213.106 266.750,209.849 268.916,209.498 269.465 C 209.331 269.725,208.669 270.053,208.025 270.194 C 207.382 270.336,206.632 270.720,206.359 271.049 C 206.087 271.377,205.238 271.907,204.474 272.227 C 203.710 272.546,202.670 273.256,202.162 273.804 C 201.622 274.386,200.795 274.800,200.170 274.800 C 199.222 274.800,199.164 274.874,199.651 275.461 C 200.100 276.002,200.218 280.394,200.300 299.561 C 200.528 352.764,200.565 355.208,201.143 355.565 C 201.521 355.798,201.551 355.983,201.243 356.174 C 200.598 356.572,200.701 357.200,201.410 357.200 C 201.772 357.200,202.121 356.697,202.267 355.966 C 202.403 355.287,202.758 354.637,203.057 354.523 C 203.356 354.408,203.600 354.135,203.600 353.915 C 203.600 353.571,204.155 352.786,206.006 350.517 C 206.223 350.251,206.400 349.923,206.400 349.788 C 206.400 349.653,206.625 349.292,206.900 348.985 C 208.123 347.622,208.383 347.206,208.630 346.224 C 208.774 345.649,209.231 344.997,209.646 344.775 C 210.061 344.553,210.400 344.127,210.400 343.829 C 210.400 343.530,210.670 343.182,211.000 343.055 C 211.330 342.929,211.600 342.610,211.600 342.346 C 211.600 342.083,211.867 341.582,212.192 341.234 C 213.899 339.409,214.799 338.233,215.018 337.544 C 215.151 337.123,215.858 336.127,216.587 335.331 C 217.316 334.534,218.338 333.180,218.857 332.320 C 219.375 331.460,220.475 329.886,221.300 328.821 C 222.125 327.756,222.800 326.718,222.800 326.512 C 222.800 326.307,223.250 325.717,223.800 325.200 C 224.350 324.683,224.800 324.104,224.800 323.914 C 224.800 323.723,225.154 323.187,225.586 322.723 C 226.019 322.259,226.282 321.732,226.171 321.553 C 226.060 321.373,226.336 320.997,226.784 320.717 C 227.233 320.437,227.600 319.987,227.600 319.718 C 227.600 319.449,227.960 319.035,228.400 318.800 C 228.840 318.565,229.200 318.190,229.200 317.968 C 229.200 317.745,229.653 317.110,230.208 316.556 C 230.762 316.002,231.127 315.406,231.020 315.232 C 230.913 315.059,231.269 314.499,231.812 313.988 C 232.356 313.478,232.800 312.738,232.800 312.344 C 232.800 311.950,233.160 311.435,233.600 311.200 C 234.040 310.965,234.400 310.527,234.400 310.229 C 234.400 309.930,234.670 309.582,235.000 309.455 C 235.330 309.329,235.600 308.958,235.600 308.631 C 235.600 308.304,236.050 307.586,236.600 307.036 C 237.150 306.486,237.600 305.758,237.600 305.418 C 237.600 305.078,237.784 304.800,238.010 304.800 C 238.235 304.800,238.591 304.350,238.800 303.800 C 239.009 303.250,239.455 302.800,239.790 302.800 C 240.126 302.800,240.400 302.558,240.400 302.261 C 240.400 301.965,240.760 301.307,241.200 300.800 C 241.640 300.293,242.003 299.590,242.007 299.239 C 242.010 298.887,242.736 297.887,243.620 297.016 C 244.504 296.145,245.327 295.033,245.449 294.545 C 245.572 294.057,245.926 293.561,246.236 293.441 C 246.546 293.322,246.800 293.023,246.800 292.776 C 246.800 292.530,247.610 291.379,248.600 290.221 C 249.590 289.062,250.400 287.818,250.400 287.457 C 250.400 287.096,250.681 286.800,251.024 286.800 C 251.367 286.800,251.541 286.628,251.411 286.418 C 251.281 286.207,251.613 285.748,252.149 285.397 C 252.685 285.045,253.236 284.313,253.372 283.769 C 253.509 283.225,253.984 282.379,254.429 281.890 C 254.873 281.400,255.499 280.715,255.819 280.366 C 256.138 280.018,256.400 279.563,256.400 279.355 C 256.400 279.148,256.760 278.670,257.200 278.293 C 257.640 277.916,258.000 277.362,258.000 277.062 C 258.000 276.762,258.405 276.055,258.900 275.490 C 261.034 273.055,262.233 271.435,262.701 270.355 C 262.977 269.720,263.379 269.200,263.596 269.200 C 263.812 269.200,264.252 268.570,264.574 267.800 C 264.896 267.030,265.348 266.400,265.580 266.400 C 265.811 266.400,266.000 266.157,266.000 265.861 C 266.000 265.565,266.806 264.440,267.791 263.361 C 268.776 262.282,269.586 261.169,269.591 260.887 C 269.596 260.606,269.870 260.271,270.200 260.145 C 270.530 260.018,270.800 259.645,270.800 259.315 C 270.800 258.985,271.248 258.150,271.796 257.458 C 272.345 256.766,273.110 255.774,273.496 255.252 C 273.883 254.731,274.497 253.984,274.861 253.592 C 275.224 253.200,275.640 252.505,275.785 252.048 C 275.930 251.590,276.263 251.258,276.524 251.308 C 276.786 251.359,276.961 251.194,276.914 250.943 C 276.867 250.692,277.272 250.007,277.814 249.422 C 278.356 248.837,278.800 248.172,278.800 247.943 C 278.800 247.526,279.815 246.093,281.500 244.131 C 281.995 243.555,282.400 242.929,282.400 242.742 C 282.400 242.554,282.681 242.085,283.024 241.700 C 284.501 240.043,286.800 236.851,286.800 236.457 C 286.800 236.221,287.145 235.843,287.567 235.617 C 287.990 235.391,288.451 234.680,288.592 234.037 C 288.733 233.393,289.108 232.767,289.424 232.646 C 289.741 232.524,290.000 232.187,290.000 231.896 C 290.000 231.605,290.810 230.572,291.800 229.600 C 292.790 228.628,293.600 227.505,293.600 227.104 C 293.600 226.703,293.870 226.271,294.200 226.145 C 294.530 226.018,294.800 225.670,294.800 225.371 C 294.800 225.073,295.168 224.631,295.619 224.390 C 296.297 224.027,296.422 223.612,296.347 221.965 C 296.239 219.597,295.766 219.069,294.404 219.798 M139.633 240.033 C 140.092 240.492,140.574 240.760,140.704 240.629 C 140.835 240.499,140.595 240.129,140.171 239.809 C 139.021 238.939,138.681 239.081,139.633 240.033 M182.833 265.633 C 183.292 266.092,183.774 266.360,183.904 266.229 C 184.035 266.099,183.795 265.729,183.371 265.409 C 182.221 264.539,181.881 264.681,182.833 265.633 M143.600 282.800 C 143.835 283.240,144.230 283.600,144.476 283.600 C 144.722 283.600,144.598 283.240,144.200 282.800 C 143.802 282.360,143.408 282.000,143.324 282.000 C 143.240 282.000,143.365 282.360,143.600 282.800 " stroke="none" fill="#636b93" fill-rule="evenodd"></path><path id="path1" d="M196.273 44.463 C 195.899 44.672,195.460 44.761,195.297 44.661 C 195.134 44.560,194.965 44.962,194.923 45.553 C 194.811 47.106,193.613 49.635,192.296 51.097 C 191.947 51.484,191.542 52.282,191.395 52.871 C 191.248 53.460,190.891 54.033,190.602 54.144 C 190.312 54.255,189.956 54.890,189.810 55.555 C 189.662 56.227,189.211 56.870,188.793 57.002 C 188.379 57.134,188.128 57.468,188.235 57.746 C 188.341 58.023,188.062 58.582,187.614 58.987 C 187.166 59.392,186.800 60.043,186.800 60.433 C 186.800 61.291,185.679 62.496,185.172 62.183 C 184.973 62.059,184.902 62.199,185.014 62.493 C 185.127 62.787,184.855 63.419,184.410 63.897 C 183.964 64.375,183.600 65.009,183.600 65.306 C 183.600 66.015,181.790 68.457,181.488 68.155 C 181.360 68.026,181.353 68.299,181.474 68.760 C 181.604 69.259,181.504 69.600,181.226 69.600 C 180.761 69.600,179.738 71.900,179.923 72.530 C 179.976 72.711,179.836 72.746,179.612 72.607 C 179.387 72.468,178.981 72.860,178.710 73.477 C 178.439 74.095,178.009 74.732,177.754 74.894 C 177.499 75.056,177.172 75.821,177.027 76.594 C 176.869 77.437,176.531 78.000,176.182 78.000 C 175.862 78.000,175.600 78.242,175.600 78.538 C 175.600 78.834,175.250 79.393,174.823 79.779 C 174.395 80.166,173.934 80.989,173.798 81.608 C 173.662 82.227,173.310 82.826,173.016 82.939 C 172.721 83.052,172.268 83.787,172.009 84.572 C 171.750 85.357,171.372 86.000,171.169 86.000 C 170.966 86.000,170.800 86.242,170.800 86.539 C 170.800 86.835,170.440 87.493,170.000 88.000 C 169.560 88.507,169.200 89.151,169.200 89.431 C 169.200 89.710,168.750 90.473,168.200 91.127 C 167.650 91.781,167.200 92.705,167.200 93.181 C 167.200 93.658,167.025 93.939,166.812 93.807 C 166.599 93.676,166.170 94.160,165.859 94.884 C 165.548 95.608,164.868 96.646,164.347 97.191 C 163.826 97.735,163.385 98.275,163.366 98.391 C 163.348 98.506,163.123 99.107,162.866 99.726 C 162.610 100.345,162.400 101.020,162.400 101.226 C 162.400 101.432,162.130 101.600,161.800 101.600 C 161.470 101.600,161.200 101.931,161.200 102.336 C 161.200 102.740,160.615 103.756,159.900 104.593 C 159.185 105.430,158.584 106.224,158.565 106.357 C 158.494 106.839,157.381 109.023,156.676 110.064 C 156.280 110.648,155.928 111.491,155.895 111.936 C 155.861 112.381,155.679 112.649,155.490 112.532 C 155.301 112.415,155.048 112.696,154.928 113.155 C 154.807 113.615,154.562 113.900,154.382 113.789 C 154.202 113.678,153.942 113.770,153.804 113.993 C 153.666 114.217,153.783 114.400,154.065 114.400 C 154.347 114.400,154.175 114.682,153.682 115.027 C 153.190 115.372,152.877 115.801,152.988 115.980 C 153.099 116.159,152.832 116.761,152.395 117.316 C 151.958 117.872,151.600 118.495,151.600 118.701 C 151.600 118.907,151.240 119.402,150.800 119.800 C 150.360 120.198,150.000 120.858,150.000 121.266 C 150.000 121.674,149.641 122.315,149.202 122.691 C 148.763 123.067,148.293 123.965,148.157 124.687 C 148.019 125.423,147.667 126.000,147.355 126.000 C 147.050 126.000,146.800 126.196,146.800 126.436 C 146.800 126.676,146.169 127.610,145.398 128.511 C 144.512 129.546,144.156 130.249,144.431 130.419 C 144.710 130.591,144.623 130.782,144.192 130.948 C 143.787 131.103,143.612 131.454,143.754 131.824 C 143.889 132.177,143.822 132.337,143.595 132.197 C 143.378 132.063,143.200 132.239,143.200 132.589 C 143.200 132.939,142.930 133.329,142.600 133.455 C 142.270 133.582,142.000 133.955,142.000 134.285 C 142.000 134.615,141.548 135.240,140.996 135.674 C 140.444 136.109,140.082 136.608,140.191 136.785 C 140.300 136.962,140.043 137.546,139.619 138.085 C 139.196 138.623,138.728 139.546,138.580 140.135 C 138.432 140.725,138.149 141.308,137.950 141.431 C 137.751 141.554,137.316 142.227,136.983 142.927 C 136.651 143.627,136.122 144.650,135.808 145.200 C 135.276 146.131,134.949 146.573,133.100 148.857 C 132.715 149.333,132.400 149.984,132.400 150.303 C 132.400 150.623,131.950 151.419,131.400 152.073 C 130.850 152.727,130.400 153.518,130.400 153.831 C 130.400 154.144,130.222 154.400,130.005 154.400 C 129.788 154.400,129.331 154.985,128.990 155.700 C 127.647 158.510,126.841 159.846,125.835 160.928 C 125.259 161.548,124.891 162.223,125.017 162.428 C 125.144 162.632,124.956 162.800,124.600 162.800 C 124.244 162.800,124.054 162.964,124.178 163.164 C 124.603 163.853,123.955 164.861,123.389 164.391 C 123.058 164.116,122.784 164.102,122.629 164.353 C 122.496 164.568,122.563 164.854,122.778 164.987 C 123.245 165.275,122.640 167.071,121.742 168.064 C 121.411 168.430,121.102 168.982,121.057 169.291 C 121.012 169.599,120.576 170.359,120.087 170.980 C 119.599 171.600,119.200 172.359,119.200 172.666 C 119.200 172.974,118.930 173.329,118.600 173.455 C 118.270 173.582,118.000 173.938,118.000 174.247 C 118.000 174.555,117.640 175.116,117.200 175.493 C 116.760 175.870,116.400 176.384,116.400 176.635 C 116.400 176.886,116.051 177.536,115.625 178.078 C 115.198 178.620,114.725 179.558,114.573 180.164 C 114.421 180.769,114.050 181.359,113.749 181.475 C 113.447 181.591,113.200 181.947,113.200 182.266 C 113.200 182.586,113.032 182.744,112.828 182.617 C 112.623 182.491,112.342 182.570,112.204 182.793 C 112.066 183.017,112.188 183.206,112.476 183.213 C 112.793 183.220,112.683 183.465,112.200 183.830 C 111.760 184.162,111.400 184.613,111.400 184.832 C 111.400 185.050,111.201 185.358,110.958 185.515 C 110.715 185.672,110.296 186.475,110.027 187.300 C 109.758 188.125,109.379 188.800,109.184 188.800 C 108.990 188.800,108.642 189.501,108.411 190.359 C 108.180 191.216,107.721 192.022,107.390 192.149 C 107.059 192.276,106.615 192.834,106.404 193.390 C 106.193 193.945,105.835 194.400,105.610 194.400 C 105.384 194.400,105.200 194.736,105.200 195.146 C 105.200 195.556,104.840 196.350,104.400 196.909 C 103.960 197.469,103.600 198.116,103.600 198.348 C 103.600 198.579,103.221 199.122,102.757 199.554 C 100.050 202.076,104.720 201.574,110.816 198.687 C 120.566 194.069,121.586 193.600,121.874 193.600 C 122.037 193.600,123.617 192.894,125.385 192.031 C 129.433 190.056,132.028 188.866,141.666 184.564 C 149.067 181.262,152.201 179.841,156.600 177.796 C 157.700 177.284,161.660 175.489,165.400 173.806 C 169.140 172.123,173.506 170.128,175.101 169.373 C 176.697 168.618,178.094 168.000,178.205 168.000 C 178.317 168.000,179.833 167.296,181.575 166.436 C 183.317 165.576,185.160 164.741,185.671 164.580 C 186.182 164.419,188.639 163.322,191.132 162.143 C 193.625 160.965,195.838 160.000,196.050 160.000 C 196.263 160.000,196.878 159.558,197.418 159.018 L 198.400 158.036 198.396 102.718 C 198.391 40.817,198.479 43.229,196.273 44.463 M102.711 220.055 C 102.477 220.200,102.160 221.148,102.006 222.163 C 101.852 223.177,101.818 223.916,101.930 223.803 C 102.285 223.448,103.600 224.892,103.600 225.637 C 103.600 226.029,104.275 227.024,105.100 227.848 C 105.925 228.671,106.231 229.088,105.780 228.773 C 105.144 228.328,105.167 228.397,105.880 229.081 C 106.386 229.565,106.800 230.150,106.800 230.381 C 106.800 230.611,107.067 230.800,107.392 230.800 C 107.718 230.800,108.098 231.250,108.236 231.800 C 108.374 232.350,108.653 232.800,108.856 232.800 C 109.059 232.800,109.346 233.115,109.493 233.499 C 109.641 233.883,110.175 234.612,110.681 235.117 C 111.186 235.623,111.600 236.215,111.600 236.434 C 111.600 236.971,113.620 239.807,115.500 241.910 C 115.995 242.464,116.400 243.133,116.400 243.396 C 116.400 243.660,116.761 244.203,117.202 244.602 C 117.644 245.002,117.929 245.405,117.836 245.498 C 117.743 245.591,118.390 246.390,119.275 247.275 C 120.159 248.159,120.941 249.179,121.011 249.541 C 121.081 249.904,121.175 250.245,121.219 250.300 C 121.264 250.355,121.322 250.580,121.350 250.800 C 121.378 251.020,121.547 251.192,121.727 251.182 C 122.117 251.160,123.899 253.505,124.248 254.500 C 124.383 254.885,124.657 255.200,124.857 255.200 C 125.056 255.200,125.396 255.605,125.611 256.100 C 125.827 256.595,126.621 257.810,127.375 258.800 C 128.130 259.790,128.759 260.794,128.773 261.030 C 128.788 261.267,129.255 261.888,129.812 262.411 C 130.368 262.934,130.740 263.581,130.637 263.848 C 130.418 264.420,131.502 265.745,132.487 266.110 C 132.865 266.251,133.441 267.003,133.767 267.783 C 134.093 268.562,134.548 269.200,134.780 269.200 C 135.011 269.200,135.200 269.453,135.200 269.763 C 135.200 270.073,136.010 271.321,137.000 272.536 C 137.990 273.752,138.800 275.028,138.800 275.373 C 138.800 275.718,139.074 276.000,139.410 276.000 C 139.745 276.000,140.193 276.455,140.404 277.011 C 140.820 278.105,141.307 278.777,142.700 280.184 C 143.195 280.683,143.600 281.287,143.600 281.526 C 143.600 281.765,143.887 282.121,144.238 282.318 C 144.590 282.514,144.905 283.138,144.938 283.704 C 144.972 284.270,145.180 284.703,145.400 284.666 C 145.620 284.630,145.751 284.838,145.690 285.130 C 145.630 285.421,145.736 285.563,145.926 285.445 C 146.258 285.241,147.917 287.144,147.838 287.639 C 147.817 287.770,148.058 288.188,148.374 288.569 C 148.838 289.127,148.849 289.323,148.432 289.580 C 148.067 289.805,148.046 289.981,148.357 290.174 C 148.601 290.324,148.800 290.257,148.800 290.024 C 148.800 289.183,149.591 289.623,149.836 290.600 C 149.974 291.150,150.337 291.600,150.643 291.600 C 150.950 291.600,151.200 291.780,151.200 292.000 C 151.200 292.220,151.580 292.780,152.045 293.245 C 152.510 293.710,152.915 294.505,152.945 295.012 C 152.975 295.518,153.180 295.903,153.400 295.866 C 153.620 295.830,153.755 296.025,153.700 296.300 C 153.645 296.575,153.745 296.755,153.922 296.700 C 154.521 296.514,156.453 298.956,156.267 299.664 C 156.148 300.121,156.705 300.906,157.894 301.958 C 159.127 303.048,159.624 303.760,159.456 304.199 C 159.320 304.552,159.367 304.744,159.559 304.625 C 160.032 304.333,160.676 305.166,161.011 306.502 C 161.163 307.106,161.492 307.605,161.743 307.611 C 162.201 307.622,164.200 310.553,164.200 311.212 C 164.200 311.405,164.965 312.298,165.900 313.196 C 166.835 314.095,167.600 314.987,167.600 315.179 C 167.600 315.371,168.095 316.284,168.700 317.208 C 169.305 318.132,169.800 319.024,169.800 319.190 C 169.800 319.356,170.340 320.020,171.000 320.664 C 171.660 321.309,172.560 322.356,173.000 322.993 C 173.440 323.629,174.215 324.603,174.722 325.156 C 175.351 325.844,175.606 326.549,175.525 327.382 C 175.432 328.339,175.551 328.576,176.082 328.487 C 176.719 328.381,177.873 329.838,177.682 330.507 C 177.634 330.677,178.034 331.015,178.570 331.259 C 179.107 331.504,179.755 332.207,180.010 332.823 C 180.264 333.439,180.817 334.253,181.237 334.633 C 181.656 335.013,182.000 335.476,182.000 335.662 C 182.000 335.848,182.374 336.374,182.831 336.831 C 183.288 337.288,183.560 337.927,183.436 338.252 C 183.311 338.576,183.367 338.744,183.559 338.625 C 183.752 338.506,184.132 338.677,184.404 339.004 C 184.676 339.332,184.746 339.600,184.560 339.600 C 184.374 339.600,184.653 339.902,185.180 340.271 C 186.088 340.907,186.097 340.957,185.369 341.243 C 184.638 341.529,184.641 341.545,185.428 341.572 C 186.308 341.602,187.480 342.757,188.297 344.400 C 188.916 345.644,189.518 346.608,190.798 348.400 C 191.348 349.170,191.806 349.980,191.817 350.200 C 191.828 350.420,192.057 350.554,192.327 350.497 C 192.885 350.380,193.727 352.270,193.373 352.843 C 193.245 353.050,193.379 353.170,193.670 353.110 C 193.962 353.049,194.151 353.238,194.090 353.530 C 194.030 353.821,194.139 353.961,194.334 353.841 C 194.528 353.721,195.164 354.157,195.747 354.811 C 198.260 357.631,198.181 358.813,198.400 315.107 L 198.600 275.214 197.500 274.759 C 196.895 274.508,196.400 274.167,196.400 274.000 C 196.400 273.833,195.866 273.476,195.213 273.206 C 194.561 272.935,193.921 272.383,193.793 271.977 C 193.641 271.499,193.333 271.328,192.914 271.488 C 192.510 271.643,192.368 271.575,192.535 271.305 C 192.699 271.040,192.531 270.945,192.099 271.058 C 191.625 271.182,191.154 270.831,190.650 269.976 C 190.079 269.010,189.819 268.840,189.551 269.256 C 189.257 269.711,189.140 269.707,188.833 269.230 C 188.631 268.916,188.060 268.597,187.564 268.522 C 186.442 268.350,185.535 267.629,185.834 267.145 C 185.958 266.944,185.911 266.806,185.730 266.837 C 184.644 267.026,183.583 266.679,182.562 265.800 C 181.923 265.251,181.203 264.801,180.962 264.800 C 180.423 264.800,179.122 263.412,179.399 263.134 C 179.510 263.024,179.365 262.933,179.077 262.933 C 178.322 262.933,174.800 261.119,174.800 260.729 C 174.800 260.548,174.538 260.400,174.219 260.400 C 173.110 260.400,171.686 259.507,171.242 258.533 C 170.997 257.995,170.650 257.645,170.472 257.756 C 169.557 258.321,166.030 256.361,163.805 254.052 C 162.965 253.180,162.408 252.863,162.228 253.155 C 162.031 253.474,161.772 253.429,161.346 253.003 C 161.014 252.671,160.390 252.400,159.959 252.400 C 159.528 252.400,159.077 252.144,158.957 251.831 C 158.837 251.518,158.077 250.967,157.269 250.606 C 153.722 249.023,151.769 247.594,152.319 246.983 C 152.474 246.812,152.396 246.788,152.147 246.930 C 151.898 247.073,151.223 246.818,150.647 246.366 C 150.071 245.913,149.600 245.637,149.600 245.753 C 149.600 246.105,145.835 244.243,144.626 243.292 C 144.003 242.801,143.146 242.400,142.722 242.400 C 142.299 242.400,142.065 242.218,142.203 241.995 C 142.341 241.771,141.918 241.484,141.255 241.351 C 140.595 241.219,139.652 240.681,139.158 240.156 C 138.665 239.630,137.941 239.200,137.550 239.200 C 137.159 239.200,136.680 238.914,136.484 238.564 C 136.288 238.214,136.054 237.939,135.964 237.953 C 135.374 238.041,134.046 237.449,134.217 237.173 C 134.331 236.988,133.699 236.642,132.812 236.403 C 131.925 236.165,131.200 235.818,131.200 235.633 C 131.200 235.448,130.660 235.073,130.000 234.800 C 129.340 234.527,128.800 234.160,128.800 233.985 C 128.800 233.809,127.994 233.358,127.008 232.982 C 126.023 232.605,125.313 232.141,125.432 231.949 C 125.550 231.757,125.287 231.600,124.846 231.600 C 124.406 231.600,123.810 231.285,123.522 230.900 C 123.234 230.515,121.739 229.568,120.200 228.795 C 118.660 228.022,117.443 227.173,117.495 226.909 C 117.548 226.645,117.368 226.510,117.095 226.610 C 116.823 226.710,116.150 226.529,115.600 226.208 C 115.050 225.887,114.105 225.422,113.500 225.173 C 112.895 224.925,112.400 224.558,112.400 224.358 C 112.400 224.157,111.681 223.706,110.803 223.354 C 109.924 223.003,109.305 222.554,109.426 222.358 C 109.548 222.161,109.367 222.000,109.024 222.000 C 108.681 222.000,108.445 221.775,108.500 221.500 C 108.556 221.222,108.292 221.052,107.906 221.116 C 107.400 221.201,107.275 221.039,107.444 220.516 C 107.624 219.959,107.587 219.924,107.278 220.358 C 106.865 220.939,105.389 220.665,105.754 220.075 C 105.994 219.687,103.335 219.669,102.711 220.055 " stroke="none" fill="#8b93b3" fill-rule="evenodd"></path><path id="path2" d="M198.200 42.000 C 198.336 42.220,198.807 42.400,199.247 42.400 C 199.687 42.400,199.936 42.220,199.800 42.000 C 199.664 41.780,199.193 41.600,198.753 41.600 C 198.313 41.600,198.064 41.780,198.200 42.000 M201.087 42.681 C 201.728 42.805,202.045 43.234,202.232 44.231 C 202.374 44.989,202.653 45.709,202.851 45.832 C 203.050 45.954,203.481 46.627,203.809 47.327 C 204.137 48.027,204.846 49.320,205.384 50.200 C 205.921 51.080,206.579 52.205,206.845 52.700 C 207.111 53.195,207.490 53.600,207.688 53.600 C 207.885 53.600,207.936 53.780,207.800 54.000 C 207.664 54.220,207.726 54.400,207.937 54.400 C 208.149 54.400,208.510 54.940,208.740 55.600 C 208.970 56.260,209.348 56.800,209.579 56.800 C 209.811 56.800,210.000 57.132,210.000 57.539 C 210.000 58.257,211.237 60.000,211.747 60.000 C 212.346 60.000,211.930 58.549,211.200 58.093 C 210.735 57.803,210.400 57.160,210.400 56.559 C 210.400 55.862,210.140 55.457,209.600 55.316 C 209.087 55.182,208.800 54.770,208.800 54.169 C 208.800 53.653,208.469 52.909,208.064 52.516 C 207.659 52.122,207.215 51.485,207.077 51.100 C 206.938 50.715,206.549 50.400,206.213 50.400 C 205.776 50.400,205.600 49.987,205.600 48.963 C 205.600 47.862,205.413 47.476,204.800 47.316 C 204.281 47.180,204.000 46.770,204.000 46.149 C 204.000 45.623,203.640 44.884,203.200 44.507 C 202.760 44.130,202.400 43.502,202.400 43.111 C 202.400 42.589,202.108 42.414,201.300 42.454 C 200.377 42.500,200.343 42.537,201.087 42.681 M192.938 47.817 C 192.591 48.721,192.902 48.769,193.700 47.933 C 194.292 47.313,194.306 47.200,193.787 47.200 C 193.451 47.200,193.068 47.478,192.938 47.817 M190.100 52.598 C 189.260 53.552,189.545 54.210,190.400 53.292 C 190.840 52.820,191.200 52.336,191.200 52.217 C 191.200 51.818,190.605 52.024,190.100 52.598 M188.138 55.817 C 187.791 56.721,188.102 56.769,188.900 55.933 C 189.492 55.313,189.506 55.200,188.987 55.200 C 188.651 55.200,188.268 55.478,188.138 55.817 M187.029 58.229 C 186.605 58.538,186.348 58.882,186.458 58.992 C 186.568 59.102,187.005 58.938,187.429 58.629 C 187.852 58.319,188.109 57.975,187.999 57.865 C 187.889 57.755,187.452 57.919,187.029 58.229 M185.448 60.610 C 185.091 60.966,184.800 61.458,184.800 61.704 C 184.800 61.950,185.178 61.745,185.640 61.249 C 186.604 60.214,186.428 59.629,185.448 60.610 M212.000 60.751 C 212.000 60.944,212.252 61.311,212.561 61.567 C 212.869 61.823,213.232 62.474,213.368 63.014 C 213.503 63.554,213.836 63.951,214.107 63.898 C 214.378 63.844,214.550 64.101,214.489 64.470 C 214.429 64.838,214.564 65.254,214.789 65.393 C 215.031 65.543,215.200 65.210,215.200 64.586 C 215.200 63.879,214.946 63.459,214.438 63.326 C 213.952 63.199,213.582 62.632,213.419 61.763 C 213.197 60.575,212.000 59.722,212.000 60.751 M215.691 67.100 C 216.029 67.485,216.434 68.223,216.592 68.739 C 216.750 69.256,217.176 69.994,217.539 70.379 C 219.027 71.957,219.600 72.850,219.600 73.590 C 219.600 74.020,219.960 74.565,220.400 74.800 C 220.840 75.035,221.200 75.468,221.200 75.760 C 221.200 76.053,221.549 76.736,221.975 77.278 C 222.402 77.820,222.875 78.758,223.027 79.364 C 223.179 79.969,223.550 80.559,223.851 80.675 C 224.153 80.791,224.400 81.204,224.400 81.594 C 224.400 81.983,224.698 82.549,225.062 82.851 C 225.426 83.153,225.968 83.985,226.267 84.700 C 226.566 85.415,226.988 86.000,227.205 86.000 C 227.422 86.000,227.600 86.242,227.600 86.538 C 227.600 86.834,228.050 87.599,228.600 88.238 C 229.584 89.383,229.599 89.386,229.600 88.463 C 229.600 87.861,229.313 87.450,228.800 87.316 C 228.281 87.180,228.000 86.770,228.000 86.149 C 228.000 85.623,227.640 84.884,227.200 84.507 C 226.760 84.130,226.400 83.502,226.400 83.111 C 226.400 82.667,226.100 82.400,225.600 82.400 C 224.948 82.400,224.800 82.133,224.800 80.963 C 224.800 79.862,224.613 79.476,224.000 79.316 C 223.438 79.169,223.200 78.770,223.200 77.976 C 223.200 77.342,222.881 76.616,222.474 76.323 C 222.074 76.035,221.630 75.485,221.486 75.100 C 221.343 74.715,220.949 74.400,220.613 74.400 C 220.176 74.400,220.000 73.987,220.000 72.963 C 220.000 71.862,219.813 71.476,219.200 71.316 C 218.638 71.169,218.400 70.770,218.400 69.976 C 218.400 69.342,218.081 68.616,217.674 68.323 C 217.274 68.035,216.830 67.485,216.686 67.100 C 216.543 66.715,216.122 66.400,215.751 66.400 C 215.141 66.400,215.135 66.467,215.691 67.100 M175.680 76.480 C 175.416 76.744,175.200 77.228,175.200 77.555 C 175.200 77.995,175.410 77.926,176.000 77.292 C 177.136 76.073,176.840 75.320,175.680 76.480 M172.800 81.800 C 172.392 82.291,172.420 82.400,172.951 82.400 C 173.308 82.400,173.600 82.130,173.600 81.800 C 173.600 81.470,173.532 81.200,173.449 81.200 C 173.366 81.200,173.074 81.470,172.800 81.800 M170.871 84.629 C 170.580 84.958,170.400 85.385,170.471 85.577 C 170.542 85.769,170.923 85.493,171.319 84.963 C 172.097 83.920,171.736 83.650,170.871 84.629 M230.098 90.900 C 230.456 91.175,230.915 92.030,231.117 92.800 C 231.319 93.570,231.704 94.151,231.972 94.090 C 232.240 94.030,232.362 94.137,232.244 94.330 C 232.125 94.522,232.348 95.023,232.741 95.444 C 233.133 95.865,233.661 96.567,233.915 97.005 C 234.342 97.741,234.377 97.716,234.388 96.663 C 234.396 95.855,234.168 95.464,233.600 95.316 C 233.081 95.180,232.800 94.770,232.800 94.149 C 232.800 93.623,232.440 92.884,232.000 92.507 C 231.560 92.130,231.200 91.502,231.200 91.111 C 231.200 90.646,230.897 90.400,230.324 90.400 C 229.542 90.400,229.517 90.454,230.098 90.900 M235.200 99.200 C 235.640 99.640,236.004 100.225,236.009 100.500 C 236.014 100.775,236.370 101.450,236.800 102.000 L 237.582 103.000 237.591 101.663 C 237.598 100.657,237.401 100.273,236.800 100.116 C 236.357 100.000,236.000 99.570,236.000 99.153 C 236.000 98.667,235.717 98.400,235.200 98.400 L 234.400 98.400 235.200 99.200 M160.938 100.617 C 160.591 101.521,160.902 101.569,161.700 100.733 C 162.292 100.113,162.306 100.000,161.787 100.000 C 161.451 100.000,161.068 100.278,160.938 100.617 M159.338 103.817 C 159.208 104.157,159.213 104.547,159.351 104.684 C 159.488 104.821,159.600 104.647,159.600 104.296 C 159.600 103.945,159.915 103.576,160.300 103.476 C 160.956 103.304,160.955 103.290,160.287 103.246 C 159.896 103.221,159.468 103.478,159.338 103.817 M237.675 103.462 C 237.767 103.648,238.146 104.465,238.517 105.278 C 238.889 106.091,239.423 106.901,239.705 107.078 C 239.986 107.255,240.434 107.895,240.700 108.500 C 240.965 109.105,241.367 109.600,241.591 109.600 C 241.816 109.600,242.000 109.932,242.000 110.339 C 242.000 110.745,242.360 111.493,242.800 112.000 C 243.240 112.507,243.600 113.245,243.600 113.639 C 243.600 114.032,243.934 114.590,244.343 114.877 C 244.751 115.165,245.204 115.760,245.349 116.200 C 245.494 116.640,245.966 117.450,246.398 118.000 L 247.182 119.000 247.191 117.903 C 247.197 117.233,246.889 116.613,246.400 116.307 C 245.960 116.032,245.600 115.534,245.600 115.200 C 245.600 114.866,245.240 114.368,244.800 114.093 C 244.335 113.803,244.000 113.160,244.000 112.559 C 244.000 111.862,243.740 111.457,243.200 111.316 C 242.594 111.157,242.400 110.770,242.400 109.716 C 242.400 108.662,242.206 108.275,241.600 108.116 C 241.157 108.000,240.800 107.570,240.800 107.153 C 240.800 106.674,240.517 106.400,240.024 106.400 C 239.417 106.400,239.221 106.075,239.124 104.903 C 239.034 103.819,238.795 103.368,238.254 103.265 C 237.844 103.187,237.583 103.276,237.675 103.462 M156.267 108.267 C 156.120 108.413,156.014 108.908,156.032 109.367 C 156.053 109.939,156.130 110.012,156.278 109.600 C 156.396 109.270,156.776 108.775,157.122 108.500 C 157.676 108.061,157.678 108.000,157.143 108.000 C 156.808 108.000,156.413 108.120,156.267 108.267 M151.338 116.617 C 150.966 117.588,151.402 117.682,152.198 116.802 C 152.860 116.070,152.865 116.000,152.249 116.000 C 151.878 116.000,151.468 116.278,151.338 116.617 M247.449 119.572 C 247.915 119.772,248.424 120.446,248.580 121.068 C 248.735 121.691,249.097 122.470,249.384 122.800 C 249.671 123.130,250.040 123.840,250.204 124.377 C 250.436 125.136,252.567 128.537,253.456 129.567 C 253.535 129.658,253.600 129.236,253.600 128.629 C 253.600 127.862,253.356 127.461,252.800 127.316 C 252.234 127.168,252.000 126.770,252.000 125.957 C 252.000 125.240,251.699 124.619,251.200 124.307 C 250.760 124.032,250.400 123.519,250.400 123.166 C 250.400 122.813,250.050 122.207,249.622 121.820 C 249.195 121.433,248.790 120.730,248.722 120.258 C 248.639 119.675,248.279 119.369,247.600 119.304 C 246.662 119.214,246.653 119.231,247.449 119.572 M148.628 121.969 C 147.864 122.813,148.151 123.072,149.149 122.440 C 149.451 122.249,149.626 121.878,149.539 121.616 C 149.436 121.307,149.113 121.433,148.628 121.969 M254.202 131.037 C 254.751 131.546,255.200 132.167,255.200 132.418 C 255.200 132.669,255.560 133.331,256.000 133.891 L 256.800 134.908 256.800 133.616 C 256.800 132.662,256.592 132.271,256.000 132.116 C 255.560 132.001,255.200 131.589,255.200 131.200 C 255.200 130.764,254.817 130.420,254.202 130.302 L 253.204 130.112 254.202 131.037 M141.738 132.617 C 141.391 133.521,141.702 133.569,142.500 132.733 C 143.092 132.113,143.106 132.000,142.587 132.000 C 142.251 132.000,141.868 132.278,141.738 132.617 M256.800 135.600 C 256.800 135.820,256.980 136.000,257.200 136.000 C 257.420 136.000,257.600 136.244,257.600 136.542 C 257.600 136.839,258.005 137.521,258.500 138.057 C 259.448 139.082,260.588 141.191,260.470 141.700 C 260.431 141.865,260.580 142.000,260.800 142.000 C 261.020 142.000,261.200 142.257,261.200 142.571 C 261.200 142.886,261.476 143.419,261.813 143.755 C 262.150 144.092,262.682 144.960,262.997 145.684 C 263.311 146.408,263.576 146.831,263.584 146.624 C 263.593 146.416,263.864 146.596,264.187 147.024 C 264.719 147.726,264.776 147.733,264.787 147.100 C 264.794 146.715,264.440 146.040,264.000 145.600 C 263.560 145.160,263.200 144.513,263.200 144.163 C 263.200 143.812,262.840 143.431,262.400 143.316 C 261.834 143.168,261.600 142.770,261.600 141.957 C 261.600 141.240,261.299 140.619,260.800 140.307 C 260.360 140.032,260.000 139.408,260.000 138.919 C 260.000 138.431,259.669 137.709,259.264 137.316 C 258.859 136.922,258.415 136.285,258.277 135.900 C 258.011 135.162,256.800 134.916,256.800 135.600 M138.871 137.429 C 138.580 137.758,138.400 138.185,138.471 138.377 C 138.542 138.569,138.923 138.293,139.319 137.763 C 140.097 136.720,139.736 136.450,138.871 137.429 M133.874 146.037 C 133.664 146.840,133.687 146.845,134.428 146.175 C 135.346 145.343,135.379 145.200,134.647 145.200 C 134.342 145.200,133.995 145.577,133.874 146.037 M132.138 148.617 C 132.008 148.957,132.013 149.347,132.151 149.484 C 132.288 149.621,132.400 149.447,132.400 149.096 C 132.400 148.745,132.715 148.376,133.100 148.276 C 133.756 148.104,133.755 148.090,133.087 148.046 C 132.696 148.021,132.268 148.278,132.138 148.617 M264.800 148.771 C 264.800 149.227,264.978 149.600,265.195 149.600 C 265.412 149.600,265.865 150.185,266.202 150.900 C 266.911 152.406,268.104 154.510,268.413 154.800 C 268.530 154.910,269.205 155.800,269.913 156.779 C 271.163 158.507,271.200 158.526,271.200 157.441 C 271.200 156.662,270.959 156.262,270.400 156.116 C 269.887 155.982,269.600 155.570,269.600 154.969 C 269.600 154.453,269.269 153.709,268.864 153.316 C 268.459 152.922,268.015 152.285,267.877 151.900 C 267.738 151.515,267.360 151.200,267.037 151.200 C 266.646 151.200,266.407 150.698,266.324 149.703 C 266.186 148.037,264.800 147.189,264.800 148.771 M129.464 153.529 C 129.099 153.933,128.800 154.418,128.800 154.607 C 128.800 154.796,129.178 154.545,129.640 154.049 C 130.102 153.553,130.401 153.068,130.304 152.971 C 130.208 152.874,129.830 153.125,129.464 153.529 M271.200 159.571 C 271.200 159.807,271.350 160.000,271.532 160.000 C 271.715 160.000,272.118 160.495,272.427 161.100 C 273.087 162.393,274.392 164.354,275.100 165.118 C 275.375 165.414,275.600 165.976,275.600 166.367 C 275.600 166.757,275.960 167.402,276.400 167.800 C 276.840 168.198,277.200 168.830,277.200 169.204 C 277.200 169.577,277.650 170.369,278.200 170.962 C 278.750 171.556,279.200 172.229,279.200 172.458 C 279.200 172.686,279.560 173.331,280.000 173.891 L 280.800 174.908 280.800 173.616 C 280.800 172.683,280.589 172.270,280.038 172.126 C 279.552 171.999,279.182 171.432,279.019 170.563 C 278.868 169.754,278.527 169.200,278.182 169.200 C 277.858 169.200,277.600 168.829,277.600 168.363 C 277.600 167.862,277.279 167.441,276.800 167.316 C 276.194 167.157,276.000 166.770,276.000 165.716 C 276.000 164.684,275.803 164.274,275.238 164.126 C 274.752 163.999,274.382 163.432,274.219 162.563 C 274.075 161.791,273.723 161.200,273.410 161.200 C 273.105 161.200,272.798 160.797,272.728 160.304 C 272.601 159.417,271.200 158.744,271.200 159.571 M199.800 160.550 C 199.008 161.129,198.999 161.658,198.895 210.782 C 198.780 265.623,198.997 261.554,196.252 260.251 C 195.514 259.901,194.693 259.353,194.427 259.033 C 194.162 258.713,193.419 258.336,192.777 258.195 C 192.135 258.054,191.505 257.770,191.377 257.564 C 190.849 256.709,188.000 255.552,188.000 256.192 C 188.000 256.526,188.339 256.800,188.753 256.800 C 189.170 256.800,189.600 257.157,189.716 257.600 C 189.875 258.206,190.262 258.400,191.316 258.400 C 192.370 258.400,192.757 258.594,192.916 259.200 C 193.034 259.653,193.462 260.000,193.901 260.000 C 194.327 260.000,195.002 260.360,195.400 260.800 C 196.003 261.466,196.632 261.600,199.166 261.600 C 201.774 261.600,202.279 261.486,202.707 260.800 C 202.997 260.335,203.640 260.000,204.241 260.000 C 204.938 260.000,205.343 259.740,205.484 259.200 C 205.643 258.594,206.030 258.400,207.084 258.400 C 208.138 258.400,208.525 258.206,208.684 257.600 C 208.799 257.160,209.189 256.800,209.550 256.800 C 209.912 256.800,210.432 256.440,210.707 256.000 C 210.997 255.535,211.640 255.200,212.241 255.200 C 212.938 255.200,213.343 254.940,213.484 254.400 C 213.631 253.838,214.030 253.600,214.824 253.600 C 215.474 253.600,216.177 253.283,216.477 252.854 C 216.765 252.443,217.585 251.979,218.300 251.822 C 219.023 251.663,219.600 251.284,219.600 250.968 C 219.600 250.656,219.977 250.400,220.437 250.400 C 220.938 250.400,221.359 250.079,221.484 249.600 C 221.643 248.994,222.030 248.800,223.084 248.800 C 224.138 248.800,224.525 248.606,224.684 248.000 C 224.818 247.487,225.230 247.200,225.831 247.200 C 226.347 247.200,227.091 246.869,227.484 246.464 C 227.878 246.059,228.515 245.615,228.900 245.477 C 229.285 245.338,229.600 244.949,229.600 244.613 C 229.600 244.176,230.013 244.000,231.037 244.000 C 232.138 244.000,232.524 243.813,232.684 243.200 C 232.820 242.681,233.230 242.400,233.851 242.400 C 234.377 242.400,235.116 242.040,235.493 241.600 C 235.870 241.160,236.498 240.800,236.889 240.800 C 237.333 240.800,237.600 240.500,237.600 240.000 C 237.600 239.348,237.867 239.200,239.037 239.200 C 240.138 239.200,240.524 239.013,240.684 238.400 C 240.831 237.838,241.230 237.600,242.024 237.600 C 242.674 237.600,243.377 237.283,243.677 236.854 C 243.965 236.443,244.785 235.979,245.500 235.822 C 246.223 235.663,246.800 235.284,246.800 234.968 C 246.800 234.656,247.177 234.400,247.637 234.400 C 248.138 234.400,248.559 234.079,248.684 233.600 C 248.843 232.994,249.230 232.800,250.284 232.800 C 251.338 232.800,251.725 232.606,251.884 232.000 C 251.999 231.560,252.404 231.200,252.785 231.200 C 253.165 231.200,253.802 230.840,254.200 230.400 C 254.598 229.960,255.273 229.600,255.699 229.600 C 256.138 229.600,256.566 229.253,256.684 228.800 C 256.843 228.194,257.230 228.000,258.284 228.000 C 259.338 228.000,259.725 227.806,259.884 227.200 C 260.020 226.681,260.430 226.400,261.051 226.400 C 261.577 226.400,262.316 226.040,262.693 225.600 C 263.070 225.160,263.698 224.800,264.089 224.800 C 264.533 224.800,264.800 224.500,264.800 224.000 C 264.800 223.348,265.067 223.200,266.237 223.200 C 267.338 223.200,267.724 223.013,267.884 222.400 C 268.032 221.834,268.430 221.600,269.243 221.600 C 269.960 221.600,270.581 221.299,270.893 220.800 C 271.168 220.360,271.666 220.000,272.000 220.000 C 272.334 220.000,272.832 219.640,273.107 219.200 C 273.397 218.735,274.040 218.400,274.641 218.400 C 275.338 218.400,275.743 218.140,275.884 217.600 C 276.031 217.038,276.430 216.800,277.224 216.800 C 277.874 216.800,278.577 216.483,278.877 216.054 C 279.165 215.643,279.985 215.179,280.700 215.022 C 281.423 214.863,282.000 214.484,282.000 214.168 C 282.000 213.856,282.377 213.600,282.837 213.600 C 283.338 213.600,283.759 213.279,283.884 212.800 C 284.043 212.194,284.430 212.000,285.484 212.000 C 286.516 212.000,286.926 211.803,287.074 211.238 C 287.201 210.752,287.768 210.382,288.637 210.219 C 289.446 210.068,290.000 209.727,290.000 209.382 C 290.000 209.058,290.371 208.800,290.837 208.800 C 291.338 208.800,291.759 208.479,291.884 208.000 C 292.043 207.394,292.430 207.200,293.484 207.200 C 294.538 207.200,294.925 207.006,295.084 206.400 C 295.200 205.957,295.630 205.600,296.047 205.600 C 296.722 205.600,296.800 205.267,296.800 202.400 C 296.800 199.345,296.759 199.201,295.900 199.212 C 295.092 199.223,295.072 199.266,295.705 199.635 C 296.524 200.112,296.536 202.267,295.720 202.267 C 295.434 202.267,295.200 202.117,295.200 201.933 C 295.200 201.750,294.757 201.600,294.215 201.600 C 293.051 201.600,290.340 200.566,285.626 198.324 C 282.056 196.626,275.469 193.615,257.600 185.512 C 251.770 182.868,243.040 178.906,238.200 176.706 C 233.360 174.507,228.050 172.120,226.400 171.403 C 224.750 170.686,221.780 169.336,219.800 168.403 C 214.204 165.766,211.198 164.400,210.989 164.400 C 210.884 164.400,208.925 163.507,206.635 162.417 C 201.555 159.997,200.827 159.798,199.800 160.550 M124.648 161.410 C 124.291 161.766,124.000 162.258,124.000 162.504 C 124.000 162.750,124.378 162.545,124.840 162.049 C 125.804 161.014,125.628 160.429,124.648 161.410 M119.848 169.410 C 119.491 169.766,119.200 170.264,119.200 170.517 C 119.200 170.771,119.595 170.583,120.078 170.100 C 120.561 169.617,120.852 169.119,120.725 168.992 C 120.599 168.865,120.204 169.053,119.848 169.410 M281.310 175.901 C 281.659 176.286,282.147 177.051,282.394 177.601 C 284.035 181.249,285.600 183.099,285.600 181.391 C 285.600 180.662,285.348 180.259,284.800 180.116 C 284.281 179.980,284.000 179.570,284.000 178.949 C 284.000 178.423,283.640 177.684,283.200 177.307 C 282.760 176.930,282.400 176.302,282.400 175.911 C 282.400 175.450,282.097 175.200,281.538 175.200 C 280.742 175.200,280.725 175.254,281.310 175.901 M114.871 177.429 C 114.580 177.758,114.400 178.185,114.471 178.377 C 114.542 178.569,114.923 178.293,115.319 177.763 C 116.097 176.720,115.736 176.450,114.871 177.429 M112.938 180.617 C 112.808 180.957,112.813 181.347,112.951 181.484 C 113.088 181.621,113.200 181.447,113.200 181.096 C 113.200 180.745,113.515 180.376,113.900 180.276 C 114.556 180.104,114.555 180.090,113.887 180.046 C 113.496 180.021,113.068 180.278,112.938 180.617 M285.436 183.258 C 285.552 183.446,285.907 183.600,286.224 183.600 C 286.590 183.600,286.800 184.013,286.800 184.732 C 286.800 185.487,287.328 186.453,288.385 187.632 C 289.257 188.604,290.042 189.760,290.130 190.200 C 290.220 190.645,290.315 190.407,290.346 189.663 C 290.387 188.656,290.211 188.276,289.638 188.126 C 289.152 187.999,288.782 187.432,288.619 186.563 C 288.468 185.754,288.127 185.200,287.782 185.200 C 287.435 185.200,287.200 184.814,287.200 184.247 C 287.200 183.550,286.933 183.242,286.212 183.104 C 285.669 183.001,285.319 183.070,285.436 183.258 M110.248 185.410 C 109.891 185.766,109.600 186.258,109.600 186.504 C 109.600 186.750,109.978 186.545,110.440 186.049 C 111.404 185.014,111.228 184.429,110.248 185.410 M107.029 191.029 C 106.605 191.338,106.336 191.669,106.430 191.763 C 106.524 191.857,106.948 191.681,107.371 191.371 C 107.795 191.062,108.064 190.731,107.970 190.637 C 107.876 190.543,107.452 190.719,107.029 191.029 M291.084 192.100 C 291.537 192.595,292.032 193.408,292.183 193.906 C 292.334 194.404,292.625 194.708,292.829 194.582 C 293.033 194.456,293.200 194.699,293.200 195.122 C 293.200 195.546,293.533 196.321,293.940 196.846 C 294.347 197.371,294.783 198.070,294.909 198.400 C 295.034 198.730,295.151 198.398,295.168 197.663 C 295.192 196.646,295.008 196.275,294.400 196.116 C 293.794 195.957,293.600 195.570,293.600 194.516 C 293.600 193.462,293.406 193.075,292.800 192.916 C 292.357 192.800,292.000 192.370,292.000 191.953 C 292.000 191.447,291.715 191.200,291.130 191.200 L 290.261 191.200 291.084 192.100 M101.646 204.700 C 101.614 205.331,101.825 205.600,102.353 205.600 C 102.770 205.600,103.200 205.957,103.316 206.400 C 103.474 207.006,103.849 207.194,104.863 207.175 C 106.091 207.151,106.124 207.119,105.275 206.778 C 104.766 206.574,104.079 206.136,103.747 205.804 C 103.415 205.472,102.899 205.200,102.601 205.200 C 102.303 205.200,101.976 204.885,101.876 204.500 C 101.738 203.973,101.681 204.023,101.646 204.700 M106.400 207.813 C 106.400 208.149,106.715 208.538,107.100 208.677 C 107.485 208.815,108.122 209.259,108.516 209.664 C 108.909 210.069,109.653 210.400,110.169 210.400 C 110.770 210.400,111.182 210.687,111.316 211.200 C 111.472 211.795,111.862 212.000,112.840 212.000 L 114.155 212.000 112.800 211.000 C 112.055 210.450,111.120 210.000,110.722 210.000 C 110.325 210.000,110.000 209.733,110.000 209.408 C 110.000 209.082,109.557 208.704,109.016 208.568 C 108.475 208.433,107.823 208.069,107.567 207.761 C 106.955 207.023,106.400 207.047,106.400 207.813 M114.458 212.600 C 114.545 213.063,114.986 213.454,115.504 213.528 C 115.997 213.598,116.400 213.905,116.400 214.210 C 116.400 214.523,116.991 214.875,117.763 215.019 C 118.632 215.182,119.199 215.552,119.326 216.038 C 119.474 216.603,119.884 216.800,120.916 216.800 C 121.970 216.800,122.357 216.994,122.516 217.600 C 122.657 218.140,123.062 218.400,123.759 218.400 C 124.360 218.400,125.003 218.735,125.293 219.200 C 125.568 219.640,126.066 220.000,126.400 220.000 C 126.734 220.000,127.232 220.360,127.507 220.800 C 127.819 221.299,128.440 221.600,129.157 221.600 C 129.970 221.600,130.368 221.834,130.516 222.400 C 130.657 222.940,131.062 223.200,131.759 223.200 C 132.360 223.200,133.003 223.535,133.293 224.000 C 133.568 224.440,134.069 224.800,134.407 224.800 C 134.746 224.800,135.330 225.160,135.707 225.600 C 136.084 226.040,136.823 226.400,137.349 226.400 C 137.970 226.400,138.380 226.681,138.516 227.200 C 138.659 227.748,139.062 228.000,139.793 228.000 L 140.861 228.000 139.731 227.068 C 139.109 226.556,138.330 226.007,138.000 225.849 C 135.845 224.818,134.045 223.688,134.243 223.491 C 134.370 223.363,133.839 223.083,133.063 222.868 C 132.286 222.654,131.414 222.278,131.125 222.032 C 130.836 221.787,129.610 221.064,128.400 220.425 C 127.190 219.786,126.243 219.075,126.295 218.846 C 126.348 218.616,125.673 218.235,124.795 217.999 C 123.918 217.762,123.200 217.400,123.200 217.192 C 123.200 216.985,122.750 216.702,122.200 216.564 C 121.650 216.426,121.200 216.077,121.200 215.788 C 121.200 215.500,120.638 215.140,119.951 214.989 C 118.626 214.698,116.294 213.480,115.054 212.431 C 114.361 211.846,114.318 211.858,114.458 212.600 M102.000 219.000 C 101.592 219.491,101.620 219.600,102.151 219.600 C 102.508 219.600,102.800 219.330,102.800 219.000 C 102.800 218.670,102.732 218.400,102.649 218.400 C 102.566 218.400,102.274 218.670,102.000 219.000 M293.300 218.812 C 292.805 219.011,292.400 219.360,292.400 219.587 C 292.400 219.814,292.068 220.000,291.662 220.000 C 291.256 220.000,290.598 220.360,290.200 220.800 C 289.802 221.240,289.037 221.600,288.501 221.600 C 287.862 221.600,287.453 221.876,287.316 222.400 C 287.180 222.919,286.770 223.200,286.149 223.200 C 285.623 223.200,284.884 223.560,284.507 224.000 C 284.130 224.440,283.530 224.800,283.173 224.800 C 282.816 224.800,282.198 225.160,281.800 225.600 C 281.402 226.040,280.727 226.400,280.301 226.400 C 279.862 226.400,279.434 226.747,279.316 227.200 C 279.169 227.762,278.770 228.000,277.976 228.000 C 277.326 228.000,276.623 228.317,276.323 228.746 C 276.035 229.157,275.215 229.621,274.500 229.778 C 273.777 229.937,273.200 230.316,273.200 230.632 C 273.200 230.944,272.823 231.200,272.363 231.200 C 271.862 231.200,271.441 231.521,271.316 232.000 C 271.169 232.562,270.770 232.800,269.976 232.800 C 269.326 232.800,268.623 233.117,268.323 233.546 C 268.035 233.957,267.215 234.421,266.500 234.578 C 265.777 234.737,265.200 235.116,265.200 235.432 C 265.200 235.761,264.806 236.000,264.262 236.000 C 263.746 236.000,262.998 236.360,262.600 236.800 C 262.202 237.240,261.527 237.600,261.101 237.600 C 260.662 237.600,260.234 237.947,260.116 238.400 C 259.980 238.919,259.570 239.200,258.949 239.200 C 258.423 239.200,257.684 239.560,257.307 240.000 C 256.930 240.440,256.330 240.800,255.973 240.800 C 255.616 240.800,254.998 241.160,254.600 241.600 C 254.202 242.040,253.527 242.400,253.101 242.400 C 252.662 242.400,252.234 242.747,252.116 243.200 C 251.968 243.766,251.570 244.000,250.757 244.000 C 250.040 244.000,249.419 244.301,249.107 244.800 C 248.832 245.240,248.291 245.600,247.904 245.600 C 247.517 245.600,246.840 245.960,246.400 246.400 C 245.960 246.840,245.313 247.200,244.963 247.200 C 244.612 247.200,244.231 247.560,244.116 248.000 C 243.969 248.562,243.570 248.800,242.776 248.800 C 242.126 248.800,241.423 249.117,241.123 249.546 C 240.835 249.957,240.015 250.421,239.300 250.578 C 238.577 250.737,238.000 251.116,238.000 251.432 C 238.000 251.744,237.668 252.000,237.262 252.000 C 236.856 252.000,236.198 252.360,235.800 252.800 C 235.402 253.240,234.745 253.600,234.341 253.600 C 233.937 253.600,233.382 253.960,233.107 254.400 C 232.832 254.840,232.199 255.200,231.700 255.200 C 231.201 255.200,230.484 255.560,230.107 256.000 C 229.730 256.440,229.220 256.800,228.973 256.800 C 228.726 256.800,228.198 257.160,227.800 257.600 C 227.402 258.040,226.637 258.400,226.101 258.400 C 225.462 258.400,225.053 258.676,224.916 259.200 C 224.768 259.766,224.370 260.000,223.557 260.000 C 222.840 260.000,222.219 260.301,221.907 260.800 C 221.632 261.240,221.091 261.600,220.704 261.600 C 220.317 261.600,219.640 261.960,219.200 262.400 C 218.760 262.840,218.113 263.200,217.763 263.200 C 217.412 263.200,217.031 263.560,216.916 264.000 C 216.769 264.562,216.370 264.800,215.576 264.800 C 214.926 264.800,214.223 265.117,213.923 265.546 C 213.635 265.957,212.815 266.421,212.100 266.578 C 211.377 266.737,210.800 267.116,210.800 267.432 C 210.800 267.744,210.468 268.000,210.062 268.000 C 209.656 268.000,208.998 268.360,208.600 268.800 C 208.202 269.240,207.545 269.600,207.141 269.600 C 206.737 269.600,206.182 269.960,205.907 270.400 C 205.604 270.885,204.974 271.200,204.307 271.200 C 203.640 271.200,203.010 271.515,202.707 272.000 C 202.432 272.440,202.003 272.800,201.753 272.800 C 201.503 272.800,201.057 273.090,200.763 273.445 C 200.469 273.799,199.862 274.238,199.414 274.419 C 198.738 274.693,198.824 274.754,199.919 274.775 C 200.833 274.792,201.522 274.494,202.162 273.804 C 202.670 273.256,203.710 272.546,204.474 272.227 C 205.238 271.907,206.087 271.377,206.359 271.049 C 206.632 270.720,207.382 270.336,208.025 270.194 C 208.669 270.053,209.331 269.725,209.498 269.465 C 209.849 268.916,213.106 266.750,213.758 266.632 C 214.323 266.530,219.346 263.811,220.800 262.820 C 223.747 260.812,225.068 260.013,225.451 260.007 C 225.699 260.003,226.126 259.730,226.400 259.400 C 226.674 259.070,227.242 258.800,227.662 258.800 C 228.081 258.800,228.526 258.537,228.650 258.215 C 228.868 257.645,230.290 256.959,230.911 257.124 C 231.082 257.170,231.324 256.943,231.448 256.619 C 231.572 256.295,232.842 255.462,234.269 254.766 C 235.697 254.071,237.323 253.077,237.883 252.558 C 238.443 252.040,239.062 251.715,239.260 251.837 C 239.458 251.959,239.570 251.845,239.510 251.583 C 239.449 251.321,239.711 251.054,240.090 250.990 C 240.470 250.926,241.233 250.517,241.787 250.082 C 242.340 249.647,243.407 249.175,244.158 249.034 C 244.909 248.893,245.624 248.513,245.749 248.189 C 245.873 247.865,246.223 247.600,246.525 247.600 C 246.828 247.600,247.402 247.240,247.800 246.800 C 248.198 246.360,248.738 246.000,249.000 246.000 C 249.262 246.000,249.802 245.640,250.200 245.200 C 250.598 244.760,251.211 244.397,251.562 244.393 C 252.129 244.386,254.988 242.699,256.283 241.607 C 256.549 241.383,257.123 241.200,257.560 241.200 C 257.996 241.200,258.458 241.030,258.587 240.821 C 258.926 240.273,262.012 238.239,263.514 237.574 C 264.221 237.261,264.800 236.869,264.800 236.702 C 264.800 236.536,265.089 236.400,265.442 236.400 C 265.795 236.400,266.619 235.950,267.273 235.400 C 267.927 234.850,268.698 234.400,268.988 234.400 C 269.277 234.400,269.608 234.156,269.723 233.857 C 269.837 233.558,270.449 233.210,271.081 233.084 C 271.714 232.957,272.912 232.212,273.744 231.427 C 274.576 230.642,275.594 230.000,276.005 230.000 C 276.416 230.000,276.873 229.805,277.020 229.567 C 277.168 229.329,278.033 228.778,278.944 228.342 C 281.324 227.205,283.154 226.161,283.928 225.498 C 284.297 225.181,284.915 224.810,285.300 224.673 C 285.685 224.537,286.000 224.242,286.000 224.017 C 286.000 223.793,286.709 223.496,287.575 223.358 C 288.442 223.219,289.246 222.857,289.363 222.553 C 289.479 222.249,289.823 222.000,290.125 222.000 C 290.428 222.000,291.191 221.557,291.821 221.016 C 292.450 220.475,293.041 220.108,293.134 220.200 C 293.226 220.293,293.801 220.110,294.410 219.795 C 295.828 219.062,296.232 219.533,296.361 222.071 C 296.440 223.610,296.310 224.020,295.628 224.385 C 295.173 224.629,294.800 225.073,294.800 225.371 C 294.800 225.670,294.530 226.018,294.200 226.145 C 293.870 226.271,293.600 226.703,293.600 227.104 C 293.600 227.505,292.790 228.628,291.800 229.600 C 290.810 230.572,290.000 231.605,290.000 231.896 C 290.000 232.187,289.741 232.524,289.424 232.646 C 289.108 232.767,288.733 233.393,288.592 234.037 C 288.451 234.680,287.990 235.391,287.567 235.617 C 287.145 235.843,286.800 236.221,286.800 236.457 C 286.800 236.851,284.501 240.043,283.024 241.700 C 282.452 242.341,282.467 242.400,283.200 242.400 C 283.733 242.400,284.000 242.133,284.000 241.600 C 284.000 241.148,284.267 240.800,284.613 240.800 C 284.949 240.800,285.343 240.485,285.486 240.100 C 285.630 239.715,286.074 239.165,286.474 238.877 C 286.893 238.576,287.200 237.856,287.200 237.177 C 287.200 236.267,287.381 236.000,288.000 236.000 C 288.517 236.000,288.800 235.733,288.800 235.247 C 288.800 234.830,289.157 234.400,289.600 234.284 C 290.140 234.143,290.400 233.738,290.400 233.041 C 290.400 232.440,290.735 231.797,291.200 231.507 C 291.640 231.232,292.000 230.691,292.000 230.304 C 292.000 229.917,292.276 229.600,292.613 229.600 C 292.949 229.600,293.338 229.285,293.477 228.900 C 293.615 228.515,294.059 227.878,294.464 227.484 C 294.869 227.091,295.200 226.326,295.200 225.784 C 295.200 225.067,295.417 224.800,296.000 224.800 C 296.722 224.800,296.800 224.533,296.800 222.080 C 296.800 218.529,295.959 217.744,293.300 218.812 M109.600 221.829 C 109.600 222.255,110.837 223.297,111.068 223.065 C 111.471 222.663,110.850 221.600,110.213 221.600 C 109.876 221.600,109.600 221.703,109.600 221.829 M113.151 224.040 C 113.647 224.502,114.140 224.794,114.245 224.688 C 114.513 224.420,113.242 223.200,112.696 223.200 C 112.450 223.200,112.655 223.578,113.151 224.040 M115.600 225.600 C 116.040 226.040,116.608 226.400,116.862 226.400 C 117.124 226.400,117.011 226.054,116.600 225.600 C 116.202 225.160,115.634 224.800,115.338 224.800 C 114.975 224.800,115.060 225.060,115.600 225.600 M103.200 226.296 C 103.200 226.842,104.420 228.113,104.688 227.845 C 104.794 227.740,104.502 227.247,104.040 226.751 C 103.578 226.255,103.200 226.050,103.200 226.296 M118.202 227.202 C 118.998 228.082,119.434 227.988,119.062 227.017 C 118.932 226.678,118.522 226.400,118.151 226.400 C 117.535 226.400,117.540 226.470,118.202 227.202 M141.524 228.412 C 141.724 228.955,142.254 229.455,142.702 229.522 C 143.150 229.590,143.833 229.995,144.220 230.422 C 144.607 230.850,145.235 231.200,145.615 231.200 C 145.996 231.200,146.401 231.560,146.516 232.000 C 146.660 232.552,147.062 232.800,147.812 232.800 C 149.160 232.800,148.580 231.898,146.632 230.962 C 144.138 229.766,142.978 229.077,142.080 228.260 L 141.160 227.423 141.524 228.412 M120.400 228.284 C 120.730 228.405,121.315 228.779,121.700 229.114 C 122.537 229.843,122.645 229.388,121.829 228.571 C 121.514 228.257,120.929 228.014,120.529 228.032 C 119.969 228.056,119.939 228.114,120.400 228.284 M124.000 230.355 C 124.550 230.798,125.064 230.978,125.142 230.755 C 125.321 230.242,125.221 230.160,124.000 229.825 L 123.000 229.550 124.000 230.355 M126.300 231.933 C 127.098 232.769,127.409 232.721,127.062 231.817 C 126.932 231.478,126.549 231.200,126.213 231.200 C 125.694 231.200,125.708 231.313,126.300 231.933 M149.501 233.264 C 149.616 233.706,150.001 234.171,150.356 234.298 C 150.710 234.424,151.322 234.859,151.716 235.264 C 152.109 235.669,152.831 236.000,153.319 236.000 C 153.808 236.000,154.432 236.360,154.707 236.800 C 155.019 237.299,155.640 237.600,156.357 237.600 C 157.170 237.600,157.568 237.834,157.716 238.400 C 157.848 238.905,158.262 239.200,158.838 239.200 L 159.751 239.200 158.886 238.395 C 157.839 237.419,154.490 235.600,153.740 235.600 C 153.443 235.600,153.200 235.417,153.200 235.194 C 153.200 234.970,152.570 234.487,151.800 234.119 C 151.030 233.752,150.400 233.324,150.400 233.169 C 150.400 233.013,150.150 232.790,149.845 232.673 C 149.451 232.521,149.351 232.692,149.501 233.264 M129.200 233.400 C 129.200 233.730,129.492 234.000,129.849 234.000 C 130.380 234.000,130.408 233.891,130.000 233.400 C 129.726 233.070,129.434 232.800,129.351 232.800 C 129.268 232.800,129.200 233.070,129.200 233.400 M131.800 235.103 C 132.460 235.529,133.064 235.714,133.142 235.514 C 133.336 235.014,133.178 234.905,131.799 234.596 L 130.600 234.327 131.800 235.103 M134.100 236.276 C 134.485 236.376,134.800 236.715,134.800 237.029 C 134.800 237.347,135.182 237.600,135.662 237.600 C 136.499 237.600,136.503 237.576,135.800 236.800 C 135.402 236.360,134.699 236.021,134.238 236.046 C 133.563 236.084,133.536 236.128,134.100 236.276 M111.200 237.767 C 111.200 238.188,112.405 239.328,112.621 239.112 C 112.722 239.011,112.444 238.602,112.002 238.202 C 111.561 237.803,111.200 237.607,111.200 237.767 M140.351 240.040 C 140.847 240.502,141.340 240.794,141.445 240.688 C 141.713 240.420,140.442 239.200,139.896 239.200 C 139.650 239.200,139.855 239.578,140.351 240.040 M160.846 239.900 C 160.815 240.513,161.027 240.800,161.511 240.800 C 161.902 240.800,162.530 241.160,162.907 241.600 C 163.284 242.040,163.952 242.400,164.392 242.400 C 165.689 242.400,164.135 240.862,162.534 240.561 C 161.820 240.427,161.165 240.024,161.068 239.660 C 160.949 239.212,160.878 239.289,160.846 239.900 M142.693 241.600 C 143.070 242.040,143.574 242.400,143.813 242.400 C 144.053 242.400,144.655 242.778,145.151 243.240 C 146.114 244.138,146.651 244.030,146.262 243.017 C 146.132 242.678,145.687 242.400,145.275 242.400 C 144.862 242.400,144.198 242.040,143.800 241.600 C 143.402 241.160,142.836 240.800,142.542 240.800 C 142.147 240.800,142.186 241.008,142.693 241.600 M165.672 242.902 C 165.775 243.623,166.096 243.825,167.300 243.924 C 168.297 244.007,168.800 244.245,168.800 244.637 C 168.800 244.960,169.115 245.343,169.500 245.486 C 169.885 245.630,170.435 246.074,170.723 246.474 C 171.016 246.881,171.742 247.200,172.376 247.200 C 173.170 247.200,173.569 247.438,173.716 248.000 C 173.871 248.592,174.262 248.800,175.216 248.800 L 176.508 248.800 175.554 248.066 C 175.029 247.662,173.765 246.920,172.745 246.417 C 171.725 245.915,170.392 245.075,169.783 244.552 C 169.174 244.028,168.443 243.600,168.158 243.600 C 167.873 243.600,167.496 243.361,167.320 243.070 C 166.692 242.030,165.532 241.912,165.672 242.902 M281.496 244.104 C 281.110 244.597,280.345 245.566,279.796 246.258 C 279.248 246.950,278.800 247.705,278.800 247.937 C 278.800 248.169,278.356 248.837,277.814 249.422 C 277.272 250.007,276.867 250.692,276.914 250.943 C 276.961 251.194,276.786 251.359,276.524 251.308 C 276.263 251.258,275.930 251.590,275.785 252.048 C 275.640 252.505,275.224 253.200,274.861 253.592 C 274.497 253.984,273.883 254.731,273.496 255.252 C 273.110 255.774,272.345 256.766,271.796 257.458 C 271.248 258.150,270.800 258.985,270.800 259.315 C 270.800 259.645,270.530 260.018,270.200 260.145 C 269.870 260.271,269.596 260.606,269.591 260.887 C 269.586 261.169,268.776 262.282,267.791 263.361 C 266.806 264.440,266.000 265.565,266.000 265.861 C 266.000 266.157,265.811 266.400,265.580 266.400 C 265.348 266.400,264.896 267.030,264.574 267.800 C 264.252 268.570,263.812 269.200,263.596 269.200 C 263.379 269.200,262.977 269.720,262.701 270.355 C 262.233 271.435,261.034 273.055,258.900 275.490 C 258.405 276.055,258.000 276.762,258.000 277.062 C 258.000 277.362,257.640 277.916,257.200 278.293 C 256.760 278.670,256.400 279.199,256.400 279.469 C 256.400 279.739,256.085 280.144,255.700 280.368 C 255.075 280.732,255.096 280.777,255.900 280.788 C 256.537 280.796,256.800 280.567,256.800 280.000 C 256.800 279.548,257.067 279.200,257.413 279.200 C 257.749 279.200,258.138 278.885,258.277 278.500 C 258.415 278.115,258.859 277.478,259.264 277.084 C 259.669 276.691,260.000 275.926,260.000 275.384 C 260.000 274.767,260.228 274.400,260.613 274.400 C 260.949 274.400,261.343 274.085,261.486 273.700 C 261.630 273.315,262.074 272.765,262.474 272.477 C 262.893 272.176,263.200 271.456,263.200 270.777 C 263.200 269.867,263.381 269.600,264.000 269.600 C 264.517 269.600,264.800 269.333,264.800 268.847 C 264.800 268.430,265.157 268.000,265.600 267.884 C 266.040 267.769,266.400 267.388,266.400 267.037 C 266.400 266.687,266.760 266.040,267.200 265.600 C 267.640 265.160,268.000 264.461,268.000 264.047 C 268.000 263.630,268.357 263.200,268.800 263.084 C 269.240 262.969,269.600 262.609,269.600 262.284 C 269.600 261.959,269.960 261.599,270.400 261.484 C 271.013 261.324,271.200 260.938,271.200 259.837 C 271.200 258.667,271.348 258.400,272.000 258.400 C 272.517 258.400,272.800 258.133,272.800 257.647 C 272.800 257.230,273.157 256.800,273.600 256.684 C 274.053 256.566,274.400 256.138,274.400 255.699 C 274.400 255.273,274.760 254.598,275.200 254.200 C 275.640 253.802,276.000 253.144,276.000 252.738 C 276.000 252.332,276.276 252.000,276.613 252.000 C 276.949 252.000,277.343 251.685,277.486 251.300 C 277.630 250.915,278.074 250.365,278.474 250.077 C 278.893 249.776,279.200 249.056,279.200 248.377 C 279.200 247.467,279.381 247.200,280.000 247.200 C 280.517 247.200,280.800 246.933,280.800 246.447 C 280.800 246.030,281.157 245.600,281.600 245.484 C 282.141 245.343,282.400 244.938,282.400 244.237 C 282.400 242.982,282.380 242.979,281.496 244.104 M147.600 244.284 C 147.930 244.405,148.515 244.779,148.900 245.114 C 149.737 245.843,149.845 245.388,149.029 244.571 C 148.714 244.257,148.129 244.014,147.729 244.032 C 147.169 244.056,147.139 244.114,147.600 244.284 M153.500 247.933 C 154.298 248.769,154.609 248.721,154.262 247.817 C 154.132 247.478,153.749 247.200,153.413 247.200 C 152.894 247.200,152.908 247.313,153.500 247.933 M119.289 249.266 C 119.445 249.734,121.200 251.060,121.200 250.710 C 121.200 250.387,119.721 248.800,119.420 248.800 C 119.262 248.800,119.203 249.010,119.289 249.266 M156.300 249.212 C 156.795 249.411,157.200 249.790,157.200 250.054 C 157.200 250.318,157.316 250.418,157.457 250.276 C 157.847 249.886,156.791 248.797,156.051 248.825 C 155.610 248.843,155.691 248.968,156.300 249.212 M176.875 249.500 C 176.948 249.885,177.411 250.258,177.904 250.328 C 178.397 250.398,178.800 250.699,178.800 250.996 C 178.800 251.293,179.385 251.665,180.100 251.822 C 180.815 251.979,181.635 252.443,181.923 252.854 C 182.223 253.283,182.926 253.600,183.576 253.600 C 184.370 253.600,184.769 253.838,184.916 254.400 C 185.074 255.006,185.449 255.194,186.463 255.175 C 187.691 255.151,187.724 255.119,186.875 254.778 C 186.366 254.574,185.679 254.136,185.347 253.804 C 185.015 253.472,184.486 253.200,184.171 253.200 C 183.857 253.200,183.600 252.944,183.600 252.632 C 183.600 252.319,183.058 251.945,182.396 251.799 C 181.734 251.654,180.920 251.263,180.588 250.931 C 180.256 250.599,179.673 250.267,179.292 250.194 C 178.911 250.121,178.555 250.025,178.500 249.981 C 178.445 249.936,178.175 249.869,177.900 249.832 C 177.625 249.794,177.445 249.547,177.500 249.282 C 177.555 249.017,177.407 248.800,177.171 248.800 C 176.935 248.800,176.801 249.115,176.875 249.500 M159.000 251.103 C 159.660 251.529,160.264 251.714,160.342 251.514 C 160.536 251.014,160.378 250.905,158.999 250.596 L 157.800 250.327 159.000 251.103 M122.432 253.038 C 122.414 253.279,122.760 253.802,123.200 254.200 C 123.919 254.851,124.000 254.857,124.000 254.262 C 124.000 253.898,123.745 253.600,123.433 253.600 C 123.122 253.600,122.776 253.375,122.665 253.100 C 122.548 252.811,122.450 252.785,122.432 253.038 M164.456 254.366 C 164.975 254.787,165.466 255.065,165.548 254.985 C 165.789 254.745,164.497 253.600,163.984 253.600 C 163.724 253.600,163.936 253.945,164.456 254.366 M124.128 255.795 C 124.175 256.262,124.538 256.625,125.005 256.672 C 125.581 256.732,125.614 256.699,125.125 256.552 C 124.753 256.442,124.358 256.047,124.248 255.675 C 124.101 255.186,124.068 255.219,124.128 255.795 M166.600 255.600 C 166.736 255.820,167.092 256.000,167.390 256.000 C 167.689 256.000,168.014 256.225,168.112 256.500 C 168.210 256.775,168.414 256.886,168.564 256.748 C 168.939 256.402,167.683 255.200,166.948 255.200 C 166.621 255.200,166.464 255.380,166.600 255.600 M172.351 259.240 C 173.314 260.138,173.851 260.030,173.462 259.017 C 173.332 258.678,172.826 258.400,172.337 258.400 L 171.449 258.400 172.351 259.240 M175.656 260.766 C 176.175 261.187,176.666 261.465,176.748 261.385 C 176.989 261.145,175.697 260.000,175.184 260.000 C 174.924 260.000,175.136 260.345,175.656 260.766 M180.475 263.448 C 180.847 263.558,181.242 263.953,181.352 264.325 C 181.499 264.814,181.532 264.781,181.472 264.205 C 181.425 263.738,181.062 263.375,180.595 263.328 C 180.019 263.268,179.986 263.301,180.475 263.448 M183.551 265.640 C 184.047 266.102,184.540 266.394,184.645 266.288 C 184.913 266.020,183.642 264.800,183.096 264.800 C 182.850 264.800,183.055 265.178,183.551 265.640 M132.128 266.995 C 132.175 267.462,132.538 267.825,133.005 267.872 C 133.581 267.932,133.614 267.899,133.125 267.752 C 132.753 267.642,132.358 267.247,132.248 266.875 C 132.101 266.386,132.068 266.419,132.128 266.995 M186.400 267.155 C 186.950 267.598,187.464 267.778,187.542 267.555 C 187.721 267.042,187.621 266.960,186.400 266.625 L 185.400 266.350 186.400 267.155 M191.600 270.200 C 191.600 270.530,191.892 270.800,192.249 270.800 C 192.780 270.800,192.808 270.691,192.400 270.200 C 192.126 269.870,191.834 269.600,191.751 269.600 C 191.668 269.600,191.600 269.870,191.600 270.200 M193.800 271.600 C 193.936 271.820,194.292 272.000,194.590 272.000 C 194.889 272.000,195.214 272.225,195.312 272.500 C 195.410 272.775,195.614 272.886,195.764 272.748 C 196.139 272.402,194.883 271.200,194.148 271.200 C 193.821 271.200,193.664 271.380,193.800 271.600 M138.400 275.863 C 138.400 276.090,138.760 276.602,139.200 277.000 C 139.640 277.398,140.000 277.599,140.000 277.445 C 140.000 277.292,139.640 276.780,139.200 276.308 C 138.760 275.836,138.400 275.635,138.400 275.863 M254.310 282.081 C 253.931 282.465,253.509 283.225,253.372 283.769 C 253.236 284.313,252.685 285.045,252.149 285.397 C 251.613 285.748,251.281 286.207,251.411 286.418 C 251.541 286.628,251.367 286.800,251.024 286.800 C 250.681 286.800,250.400 287.096,250.400 287.457 C 250.400 287.818,249.622 289.033,248.671 290.157 C 247.719 291.281,246.825 292.515,246.683 292.900 C 246.541 293.285,246.259 293.600,246.056 293.600 C 245.853 293.600,245.583 294.012,245.457 294.516 C 245.330 295.020,244.504 296.145,243.620 297.016 C 242.736 297.887,242.010 298.887,242.007 299.239 C 242.003 299.590,241.640 300.293,241.200 300.800 C 240.760 301.307,240.400 301.965,240.400 302.261 C 240.400 302.558,240.126 302.800,239.790 302.800 C 239.455 302.800,239.009 303.250,238.800 303.800 C 238.591 304.350,238.235 304.800,238.010 304.800 C 237.784 304.800,237.600 305.078,237.600 305.418 C 237.600 305.758,237.150 306.486,236.600 307.036 C 236.050 307.586,235.600 308.304,235.600 308.631 C 235.600 308.958,235.330 309.329,235.000 309.455 C 234.670 309.582,234.400 309.930,234.400 310.229 C 234.400 310.527,234.040 310.965,233.600 311.200 C 232.660 311.703,232.529 312.800,233.410 312.800 C 233.745 312.800,234.191 312.350,234.400 311.800 C 234.609 311.250,234.947 310.800,235.151 310.800 C 235.355 310.800,235.711 310.258,235.942 309.595 C 236.173 308.932,236.641 308.283,236.981 308.152 C 237.321 308.021,237.600 307.595,237.600 307.204 C 237.600 306.813,237.960 306.399,238.400 306.284 C 239.013 306.124,239.200 305.738,239.200 304.637 C 239.200 303.467,239.348 303.200,240.000 303.200 C 240.517 303.200,240.800 302.933,240.800 302.447 C 240.800 302.030,241.157 301.600,241.600 301.484 C 242.079 301.359,242.400 300.938,242.400 300.437 C 242.400 299.971,242.658 299.600,242.982 299.600 C 243.330 299.600,243.669 299.038,243.826 298.200 C 244.016 297.187,244.298 296.800,244.845 296.800 C 245.318 296.800,245.600 296.519,245.600 296.047 C 245.600 295.630,245.957 295.200,246.400 295.084 C 246.940 294.943,247.200 294.538,247.200 293.841 C 247.200 293.240,247.535 292.597,248.000 292.307 C 248.440 292.032,248.800 291.491,248.800 291.104 C 248.800 290.717,249.076 290.400,249.413 290.400 C 249.749 290.400,250.138 290.085,250.277 289.700 C 250.415 289.315,250.859 288.678,251.264 288.284 C 251.669 287.891,252.000 287.126,252.000 286.584 C 252.000 285.867,252.217 285.600,252.800 285.600 C 253.265 285.600,253.600 285.333,253.600 284.964 C 253.600 284.614,253.978 284.023,254.439 283.649 C 254.918 283.261,255.218 282.629,255.139 282.176 C 255.007 281.421,254.966 281.416,254.310 282.081 M146.400 287.083 C 146.400 287.681,147.626 288.907,147.925 288.608 C 148.052 288.481,147.761 287.983,147.278 287.500 C 146.795 287.017,146.400 286.829,146.400 287.083 M151.200 294.213 C 151.200 294.549,151.478 294.932,151.817 295.062 C 152.721 295.409,152.769 295.098,151.933 294.300 C 151.313 293.708,151.200 293.694,151.200 294.213 M154.400 298.283 C 154.400 298.881,155.626 300.107,155.925 299.808 C 156.052 299.681,155.761 299.183,155.278 298.700 C 154.795 298.217,154.400 298.029,154.400 298.283 M157.600 302.700 C 157.600 302.869,157.960 303.232,158.400 303.507 C 158.840 303.782,159.200 303.869,159.200 303.700 C 159.200 303.531,158.840 303.168,158.400 302.893 C 157.960 302.618,157.600 302.531,157.600 302.700 M159.328 305.395 C 159.375 305.862,159.738 306.225,160.205 306.272 C 160.781 306.332,160.814 306.299,160.325 306.152 C 159.953 306.042,159.558 305.647,159.448 305.275 C 159.301 304.786,159.268 304.819,159.328 305.395 M161.738 308.731 C 162.102 309.134,162.400 309.597,162.400 309.760 C 162.400 310.125,163.446 311.200,163.800 311.200 C 163.942 311.200,163.685 310.726,163.229 310.146 C 162.773 309.566,162.400 308.846,162.400 308.546 C 162.400 308.246,162.102 308.000,161.738 308.000 C 161.122 308.000,161.122 308.051,161.738 308.731 M232.000 313.800 C 231.592 314.291,231.620 314.400,232.151 314.400 C 232.508 314.400,232.800 314.130,232.800 313.800 C 232.800 313.470,232.732 313.200,232.649 313.200 C 232.566 313.200,232.274 313.470,232.000 313.800 M230.100 316.610 C 229.605 317.139,229.200 317.752,229.200 317.972 C 229.200 318.192,228.840 318.565,228.400 318.800 C 227.960 319.035,227.600 319.449,227.600 319.718 C 227.600 319.987,227.233 320.437,226.784 320.717 C 226.336 320.997,226.060 321.373,226.171 321.553 C 226.282 321.732,226.019 322.259,225.586 322.723 C 224.598 323.784,224.600 324.000,225.600 324.000 C 226.097 324.000,226.400 323.733,226.400 323.296 C 226.400 322.909,226.760 322.368,227.200 322.093 C 227.710 321.774,228.000 321.160,228.000 320.397 C 228.000 319.467,228.178 319.200,228.800 319.200 C 229.317 319.200,229.600 318.933,229.600 318.447 C 229.600 318.030,229.957 317.600,230.400 317.484 C 230.879 317.359,231.200 316.938,231.200 316.437 C 231.200 315.421,231.216 315.419,230.100 316.610 M170.400 320.784 C 170.400 321.297,171.545 322.589,171.785 322.348 C 171.865 322.266,171.587 321.775,171.166 321.256 C 170.745 320.736,170.400 320.524,170.400 320.784 M223.692 325.302 C 223.201 325.824,222.800 326.401,222.800 326.585 C 222.800 326.768,222.158 327.701,221.373 328.659 C 220.090 330.225,220.029 330.400,220.773 330.400 C 221.316 330.400,221.600 330.141,221.600 329.647 C 221.600 329.230,221.957 328.800,222.400 328.684 C 222.840 328.569,223.200 328.155,223.200 327.763 C 223.200 327.372,223.579 326.648,224.043 326.154 C 224.506 325.661,224.818 325.054,224.735 324.805 C 224.647 324.541,224.211 324.749,223.692 325.302 M174.228 326.031 C 174.713 326.567,175.036 326.693,175.139 326.384 C 175.226 326.122,175.051 325.751,174.749 325.560 C 173.751 324.928,173.464 325.187,174.228 326.031 M218.857 332.377 C 218.338 333.206,217.316 334.534,216.587 335.331 C 215.858 336.127,215.151 337.123,215.018 337.544 C 214.802 338.223,214.363 338.805,212.257 341.200 C 211.967 341.530,211.616 342.115,211.478 342.500 C 211.339 342.885,211.039 343.200,210.813 343.200 C 210.586 343.200,210.400 343.464,210.400 343.786 C 210.400 344.108,210.061 344.553,209.646 344.775 C 209.231 344.997,208.774 345.649,208.630 346.224 C 208.383 347.206,208.123 347.622,206.900 348.985 C 206.625 349.292,206.400 349.653,206.400 349.788 C 206.400 349.923,206.223 350.251,206.006 350.517 C 204.155 352.786,203.600 353.571,203.600 353.915 C 203.600 354.135,203.330 354.418,203.000 354.545 C 202.670 354.671,202.400 355.064,202.400 355.417 C 202.400 356.382,203.778 355.949,203.922 354.938 C 203.990 354.468,204.395 353.767,204.822 353.380 C 205.250 352.993,205.600 352.365,205.600 351.985 C 205.600 351.604,205.960 351.199,206.400 351.084 C 206.879 350.959,207.200 350.538,207.200 350.037 C 207.200 349.571,207.458 349.200,207.782 349.200 C 208.130 349.200,208.469 348.638,208.626 347.800 C 208.786 346.948,209.121 346.400,209.482 346.400 C 209.808 346.400,210.165 346.057,210.274 345.637 C 210.384 345.217,210.817 344.784,211.237 344.674 C 211.739 344.543,212.000 344.122,212.000 343.441 C 212.000 342.840,212.335 342.197,212.800 341.907 C 213.240 341.632,213.600 341.112,213.600 340.750 C 213.600 340.389,213.960 339.999,214.400 339.884 C 214.853 339.766,215.200 339.338,215.200 338.899 C 215.200 338.473,215.560 337.798,216.000 337.400 C 216.440 337.002,216.800 336.344,216.800 335.938 C 216.800 335.532,217.076 335.200,217.413 335.200 C 217.749 335.200,218.146 334.885,218.293 334.500 C 218.440 334.115,218.902 333.523,219.319 333.185 C 219.753 332.833,220.018 332.206,219.939 331.721 C 219.817 330.979,219.681 331.061,218.857 332.377 M178.400 332.551 C 178.400 332.922,178.678 333.332,179.017 333.462 C 179.988 333.834,180.082 333.398,179.202 332.602 C 178.470 331.940,178.400 331.935,178.400 332.551 M185.200 341.751 C 185.200 341.834,185.470 342.126,185.800 342.400 C 186.291 342.808,186.400 342.780,186.400 342.249 C 186.400 341.892,186.130 341.600,185.800 341.600 C 185.470 341.600,185.200 341.668,185.200 341.751 M189.607 347.800 C 189.614 348.311,190.018 348.857,190.900 349.549 C 191.891 350.326,191.768 349.919,190.600 348.562 C 190.051 347.923,189.604 347.580,189.607 347.800 M194.528 354.995 C 194.575 355.462,194.938 355.825,195.405 355.872 C 195.981 355.932,196.014 355.899,195.525 355.752 C 195.153 355.642,194.758 355.247,194.648 354.875 C 194.501 354.386,194.468 354.419,194.528 354.995 M202.032 356.675 C 202.014 356.937,201.188 357.273,200.195 357.422 C 197.926 357.762,197.448 358.404,199.476 358.387 C 201.175 358.373,202.595 357.529,202.273 356.725 C 202.133 356.375,202.053 356.359,202.032 356.675 " stroke="none" fill="#444b74" fill-rule="evenodd"></path><path id="path3" d="M195.700 44.248 C 194.985 45.032,194.412 45.883,194.427 46.137 C 194.442 46.392,194.640 46.216,194.868 45.746 C 195.388 44.671,196.883 43.957,197.637 44.423 C 198.370 44.876,198.706 157.080,197.979 158.440 C 197.739 158.887,196.791 159.578,195.872 159.975 C 194.952 160.372,192.490 161.504,190.400 162.490 C 188.310 163.476,186.182 164.416,185.671 164.578 C 185.160 164.740,183.317 165.576,181.575 166.436 C 179.833 167.296,178.317 168.000,178.205 168.000 C 178.094 168.000,176.697 168.618,175.101 169.373 C 173.506 170.128,169.140 172.123,165.400 173.806 C 161.660 175.489,157.700 177.284,156.600 177.796 C 152.201 179.841,149.067 181.262,141.666 184.564 C 132.028 188.866,129.433 190.056,125.385 192.031 C 123.617 192.894,122.037 193.600,121.874 193.600 C 121.587 193.600,120.566 194.069,110.845 198.673 C 105.930 201.001,103.230 201.655,102.169 200.774 C 101.596 200.299,101.550 200.386,101.738 201.581 C 101.969 203.048,102.720 203.764,103.419 203.184 C 103.665 202.980,105.381 202.198,107.233 201.447 C 109.085 200.695,111.680 199.543,113.000 198.888 C 115.878 197.461,118.699 196.161,123.000 194.281 C 124.760 193.512,129.980 191.139,134.600 189.008 C 139.220 186.878,144.440 184.502,146.200 183.728 C 149.308 182.362,151.214 181.501,156.200 179.211 C 157.520 178.605,160.490 177.256,162.800 176.214 C 165.110 175.172,167.720 173.979,168.600 173.563 C 172.464 171.739,183.942 166.545,189.971 163.892 C 194.403 161.942,197.040 160.532,198.071 159.562 L 199.600 158.124 199.619 104.562 C 199.630 75.103,199.736 49.593,199.856 47.872 C 200.236 42.392,198.651 41.009,195.700 44.248 M186.880 59.280 C 186.616 59.544,186.421 60.129,186.446 60.580 C 186.492 61.383,186.497 61.384,186.689 60.600 C 186.798 60.160,187.069 59.575,187.292 59.300 C 187.810 58.662,187.512 58.648,186.880 59.280 M184.061 63.547 C 183.102 64.379,182.931 64.878,183.709 64.580 C 184.174 64.401,185.394 62.800,185.065 62.800 C 184.986 62.800,184.535 63.136,184.061 63.547 M169.188 88.422 C 168.946 88.874,168.836 89.459,168.942 89.722 C 169.052 89.992,169.151 89.908,169.168 89.529 C 169.186 89.159,169.483 88.574,169.829 88.229 C 170.174 87.883,170.271 87.600,170.043 87.600 C 169.815 87.600,169.430 87.970,169.188 88.422 M155.062 112.331 C 154.698 112.734,154.411 113.319,154.425 113.631 C 154.439 113.944,154.618 113.783,154.822 113.274 C 155.026 112.765,155.345 112.442,155.530 112.557 C 155.715 112.671,155.867 112.503,155.867 112.182 C 155.867 111.449,155.859 111.451,155.062 112.331 M150.500 119.518 C 150.005 120.073,149.621 120.903,149.646 121.363 C 149.691 122.169,149.700 122.170,149.886 121.400 C 149.993 120.960,150.453 120.196,150.908 119.702 C 151.364 119.207,151.661 118.737,151.568 118.656 C 151.476 118.576,150.995 118.964,150.500 119.518 M135.588 144.422 C 135.346 144.874,135.236 145.459,135.342 145.722 C 135.471 146.038,135.548 146.007,135.568 145.631 C 135.586 145.319,135.898 144.734,136.262 144.331 C 136.635 143.919,136.729 143.600,136.476 143.600 C 136.230 143.600,135.830 143.970,135.588 144.422 M127.600 157.049 C 127.600 157.580,127.709 157.608,128.200 157.200 C 128.530 156.926,128.800 156.634,128.800 156.551 C 128.800 156.468,128.530 156.400,128.200 156.400 C 127.870 156.400,127.600 156.692,127.600 157.049 M119.196 171.609 C 118.921 172.275,118.404 172.989,118.048 173.197 C 117.454 173.544,117.455 173.577,118.058 173.588 C 118.434 173.595,119.056 172.914,119.508 172.000 C 119.943 171.120,120.164 170.400,119.998 170.400 C 119.833 170.400,119.472 170.944,119.196 171.609 M108.389 189.221 C 108.147 189.672,108.030 190.347,108.128 190.721 C 108.261 191.223,108.319 191.173,108.354 190.529 C 108.379 190.049,108.683 189.374,109.029 189.029 C 109.374 188.683,109.471 188.400,109.243 188.400 C 109.015 188.400,108.630 188.769,108.389 189.221 M103.588 197.222 C 103.346 197.674,103.236 198.259,103.342 198.522 C 103.471 198.838,103.548 198.807,103.568 198.431 C 103.586 198.119,103.898 197.534,104.262 197.131 C 104.635 196.719,104.729 196.400,104.476 196.400 C 104.230 196.400,103.830 196.770,103.588 197.222 M102.549 219.370 C 102.301 219.640,101.977 220.298,101.830 220.831 C 101.580 221.733,101.596 221.744,102.047 221.000 C 102.313 220.560,102.704 220.086,102.915 219.946 C 103.125 219.807,103.231 219.509,103.149 219.286 C 103.056 219.033,102.830 219.064,102.549 219.370 M102.000 223.880 C 102.000 224.510,103.571 226.295,103.587 225.683 C 103.594 225.399,103.240 224.780,102.800 224.308 C 102.360 223.836,102.000 223.643,102.000 223.880 M114.800 225.800 C 115.074 226.130,115.478 226.400,115.698 226.400 C 115.921 226.400,115.878 226.135,115.600 225.800 C 115.326 225.470,114.922 225.200,114.702 225.200 C 114.479 225.200,114.522 225.465,114.800 225.800 M117.246 227.145 C 118.726 228.301,121.600 229.663,121.600 229.208 C 121.600 228.984,121.357 228.800,121.060 228.800 C 120.763 228.800,119.728 228.263,118.760 227.607 C 116.824 226.295,115.731 225.961,117.246 227.145 M125.438 231.939 C 125.310 232.146,125.499 232.429,125.860 232.568 C 126.744 232.907,126.950 232.623,126.245 232.038 C 125.903 231.754,125.577 231.714,125.438 231.939 M108.475 233.225 C 108.571 233.514,108.886 233.829,109.175 233.925 C 109.475 234.025,109.625 233.875,109.525 233.575 C 109.429 233.286,109.114 232.971,108.825 232.875 C 108.525 232.775,108.375 232.925,108.475 233.225 M128.800 234.000 C 129.307 234.440,129.847 234.800,130.000 234.800 C 130.153 234.800,130.693 235.160,131.200 235.600 C 131.707 236.040,132.410 236.386,132.761 236.368 C 133.305 236.342,133.310 236.302,132.800 236.106 C 132.041 235.814,129.444 233.899,129.267 233.500 C 129.193 233.335,128.851 233.200,128.505 233.200 C 128.033 233.200,128.106 233.398,128.800 234.000 M111.232 236.529 C 111.214 236.929,111.457 237.514,111.771 237.829 C 112.588 238.645,113.043 238.537,112.314 237.700 C 111.979 237.315,111.605 236.730,111.484 236.400 C 111.314 235.939,111.256 235.969,111.232 236.529 M112.800 239.466 C 112.800 239.709,114.403 241.200,114.665 241.200 C 114.743 241.200,114.584 240.843,114.312 240.408 C 113.827 239.631,112.800 238.991,112.800 239.466 M139.400 240.400 C 139.798 240.840,140.411 241.186,140.762 241.168 C 141.305 241.142,141.310 241.103,140.800 240.910 C 140.470 240.785,140.056 240.439,139.880 240.141 C 139.704 239.844,139.361 239.600,139.118 239.600 C 138.875 239.600,139.002 239.960,139.400 240.400 M144.861 243.360 C 145.603 244.183,148.800 245.726,148.800 245.261 C 148.800 245.096,148.125 244.722,147.300 244.431 C 146.475 244.140,145.440 243.615,145.000 243.264 C 144.236 242.656,144.230 242.660,144.861 243.360 M116.400 244.386 C 116.400 244.598,116.805 244.984,117.300 245.244 C 118.195 245.714,118.196 245.712,117.438 244.858 C 116.591 243.905,116.400 243.818,116.400 244.386 M119.203 247.879 C 119.205 248.276,119.655 248.808,120.203 249.062 C 121.441 249.636,121.440 249.576,120.200 248.238 C 119.371 247.343,119.201 247.282,119.203 247.879 M166.367 256.234 C 167.043 256.803,167.822 257.177,168.098 257.066 C 168.498 256.904,168.498 256.857,168.100 256.832 C 167.825 256.814,167.240 256.440,166.800 256.000 C 166.360 255.560,165.806 255.200,165.569 255.200 C 165.332 255.200,165.692 255.665,166.367 256.234 M125.769 257.467 C 125.822 257.833,126.182 258.180,126.568 258.236 C 127.235 258.334,127.235 258.301,126.573 257.570 C 125.722 256.630,125.644 256.620,125.769 257.467 M127.200 259.085 C 127.200 259.301,127.560 259.893,128.000 260.400 C 128.440 260.907,128.800 261.188,128.800 261.024 C 128.800 260.860,128.440 260.269,128.000 259.709 C 127.560 259.150,127.200 258.869,127.200 259.085 M179.339 263.600 C 180.091 264.260,180.849 264.800,181.025 264.800 C 181.200 264.800,180.739 264.260,180.000 263.600 C 179.261 262.940,178.502 262.400,178.314 262.400 C 178.126 262.400,178.587 262.940,179.339 263.600 M132.334 266.351 C 132.628 266.537,132.853 266.804,132.834 266.945 C 132.815 267.085,132.890 267.200,133.000 267.200 C 133.110 267.200,133.312 267.200,133.449 267.200 C 133.586 267.200,133.474 266.930,133.200 266.600 C 132.926 266.270,132.499 266.003,132.251 266.006 C 131.980 266.010,132.013 266.147,132.334 266.351 M191.067 270.300 C 191.191 270.795,191.438 271.200,191.614 271.200 C 191.790 271.200,192.264 271.304,192.667 271.430 C 193.283 271.624,193.272 271.581,192.600 271.159 C 192.160 270.884,191.584 270.375,191.320 270.029 C 190.912 269.494,190.874 269.535,191.067 270.300 M195.500 273.288 C 195.995 273.527,196.400 273.855,196.400 274.018 C 196.400 274.181,196.676 274.420,197.013 274.550 C 197.511 274.741,197.493 274.602,196.913 273.805 C 196.521 273.266,195.840 272.832,195.400 272.840 C 194.658 272.853,194.665 272.886,195.500 273.288 M198.200 275.032 C 198.693 275.239,198.364 354.747,197.866 355.516 C 197.683 355.800,197.203 355.928,196.799 355.800 C 196.210 355.613,196.109 355.732,196.286 356.406 C 196.421 356.924,196.723 357.162,197.073 357.027 C 197.418 356.895,197.535 356.981,197.371 357.247 C 197.067 357.739,198.746 357.346,199.351 356.784 C 199.846 356.325,199.660 276.459,199.162 275.529 C 198.947 275.128,198.553 274.814,198.286 274.832 C 198.019 274.849,197.980 274.939,198.200 275.032 M139.200 276.400 C 139.200 276.620,139.377 276.800,139.592 276.800 C 139.808 276.800,140.098 277.250,140.236 277.800 C 140.377 278.363,140.774 278.797,141.143 278.794 C 141.593 278.790,141.650 278.692,141.325 278.486 C 141.064 278.320,140.663 277.692,140.435 277.092 C 140.036 276.042,139.200 275.574,139.200 276.400 M141.600 279.547 C 141.600 279.717,142.050 280.247,142.600 280.725 C 143.150 281.203,143.600 281.482,143.600 281.343 C 143.600 281.205,143.150 280.675,142.600 280.165 C 142.050 279.655,141.600 279.377,141.600 279.547 M151.213 292.700 C 151.236 293.243,152.387 294.547,152.629 294.304 C 152.760 294.174,152.492 293.692,152.033 293.233 C 151.575 292.775,151.206 292.535,151.213 292.700 M154.406 297.100 C 154.418 297.682,155.112 298.496,155.470 298.349 C 155.670 298.267,155.511 297.885,155.117 297.500 C 154.722 297.115,154.403 296.935,154.406 297.100 M162.413 308.656 C 162.431 309.144,163.557 310.576,163.761 310.371 C 163.855 310.277,163.587 309.775,163.166 309.256 C 162.745 308.736,162.406 308.466,162.413 308.656 M167.232 315.126 C 167.185 315.906,167.962 317.200,168.476 317.200 C 168.745 317.200,168.680 316.920,168.314 316.500 C 167.979 316.115,167.605 315.530,167.484 315.200 C 167.332 314.786,167.253 314.763,167.232 315.126 M172.000 322.241 C 172.000 322.728,174.488 325.600,174.910 325.600 C 175.070 325.600,174.885 325.271,174.500 324.870 C 174.115 324.468,173.395 323.619,172.900 322.983 C 172.405 322.347,172.000 322.013,172.000 322.241 M182.600 337.200 C 182.998 337.640,183.392 338.000,183.476 338.000 C 183.560 338.000,183.435 337.640,183.200 337.200 C 182.965 336.760,182.570 336.400,182.324 336.400 C 182.078 336.400,182.202 336.760,182.600 337.200 M193.600 352.925 C 193.600 352.994,194.185 353.579,194.900 354.225 L 196.200 355.400 195.025 354.100 C 193.930 352.888,193.600 352.616,193.600 352.925 " stroke="none" fill="#747c9e" fill-rule="evenodd"></path><path id="path4" d="M197.013 41.979 C 196.870 42.210,196.808 42.414,196.876 42.431 C 197.960 42.699,198.418 42.655,198.298 42.293 C 198.089 41.666,197.322 41.479,197.013 41.979 M199.783 46.100 C 199.774 47.915,199.729 73.863,199.683 103.762 L 199.600 158.124 198.071 159.562 C 197.040 160.532,194.403 161.942,189.971 163.892 C 183.942 166.545,172.464 171.739,168.600 173.563 C 167.720 173.979,165.110 175.172,162.800 176.214 C 160.490 177.256,157.520 178.605,156.200 179.211 C 151.214 181.501,149.308 182.362,146.200 183.728 C 144.440 184.502,139.220 186.878,134.600 189.008 C 129.980 191.139,124.760 193.512,123.000 194.281 C 118.699 196.161,115.878 197.461,113.000 198.888 C 111.680 199.543,109.085 200.695,107.233 201.447 C 105.381 202.198,103.645 202.997,103.375 203.221 C 103.032 203.506,102.692 203.435,102.242 202.985 C 101.563 202.306,101.383 202.638,101.948 203.529 C 102.345 204.155,104.948 203.795,105.738 203.005 C 106.013 202.730,106.679 202.366,107.219 202.196 C 108.355 201.839,117.493 197.590,119.679 196.403 C 120.493 195.961,121.345 195.600,121.572 195.600 C 121.947 195.600,123.732 194.792,132.600 190.606 C 134.140 189.880,136.570 188.786,138.000 188.177 C 139.430 187.568,142.400 186.222,144.600 185.186 C 146.800 184.151,149.950 182.729,151.600 182.027 C 153.250 181.324,155.833 180.131,157.341 179.375 C 158.849 178.619,160.251 178.000,160.458 178.000 C 160.665 178.000,163.069 176.920,165.800 175.600 C 168.531 174.280,170.875 173.200,171.008 173.200 C 171.141 173.200,172.183 172.765,173.325 172.233 C 184.952 166.817,188.475 165.200,188.647 165.200 C 188.758 165.200,190.323 164.506,192.124 163.658 C 193.926 162.811,195.769 162.000,196.221 161.857 C 196.672 161.714,197.752 160.869,198.621 159.979 L 200.200 158.362 200.400 101.566 C 200.572 52.795,200.681 44.721,201.174 44.416 C 201.650 44.122,201.659 43.953,201.225 43.430 C 200.136 42.118,199.800 42.740,199.783 46.100 M199.129 275.429 C 199.606 276.364,199.898 355.995,199.427 356.756 C 199.265 357.019,199.449 357.200,199.880 357.200 C 200.280 357.200,200.832 356.840,201.107 356.400 C 201.382 355.960,201.436 355.600,201.228 355.600 C 200.471 355.600,200.380 351.560,200.291 314.114 C 200.204 277.520,200.171 276.000,199.453 275.314 C 198.733 274.625,198.722 274.630,199.129 275.429 M196.800 357.676 C 196.800 358.318,197.723 358.449,198.285 357.887 C 198.829 357.343,198.782 357.285,197.847 357.339 C 197.271 357.373,196.800 357.524,196.800 357.676 " stroke="none" fill="#6c749c" fill-rule="evenodd"></path></g></svg>