<?xml version="1.0" standalone="no"?>
<!DOCTYPE svg PUBLIC "-//W3C//DTD SVG 20010904//EN"
 "http://www.w3.org/TR/2001/REC-SVG-20010904/DTD/svg10.dtd">
<svg version="1.0" xmlns="http://www.w3.org/2000/svg"
 width="50.000000pt" height="50.000000pt" viewBox="0 0 50.000000 50.000000"
 preserveAspectRatio="xMidYMid meet">

<g transform="translate(0.000000,50.000000) scale(0.100000,-0.100000)"
fill="#000000" stroke="none">
<path d="M166 480 c-27 -11 -67 -36 -88 -57 -40 -39 -78 -123 -78 -173 0 -50
38 -134 78 -173 41 -40 123 -77 172 -77 50 0 134 38 173 78 40 41 77 123 77
172 0 49 -37 131 -77 172 -40 41 -124 78 -176 78 -18 -1 -54 -10 -81 -20z m59
-113 c46 -26 57 -60 26 -77 -18 -9 -21 -8 -21 8 0 11 -11 27 -25 36 -23 15
-28 15 -55 1 -41 -21 -42 -68 -2 -89 26 -14 31 -12 101 26 l74 40 41 -23 c51
-28 56 -35 56 -81 0 -41 -22 -68 -71 -88 -24 -10 -34 -9 -71 12 -33 18 -43 29
-43 48 0 16 6 26 18 28 10 2 17 -3 17 -12 0 -9 11 -23 24 -31 22 -15 27 -15
55 0 44 22 42 67 -4 93 -17 9 -33 4 -94 -30 l-74 -40 -41 23 c-52 28 -56 35
-56 86 0 39 3 44 43 67 51 31 52 31 102 3z"/>
</g>
</svg>
