<?xml version="1.0" standalone="no"?>
<!DOCTYPE svg PUBLIC "-//W3C//DTD SVG 20010904//EN"
 "http://www.w3.org/TR/2001/REC-SVG-20010904/DTD/svg10.dtd">
<svg version="1.0" xmlns="http://www.w3.org/2000/svg"
 width="50.000000pt" height="50.000000pt" viewBox="0 0 50.000000 50.000000"
 preserveAspectRatio="xMidYMid meet">

<g transform="translate(0.000000,50.000000) scale(0.100000,-0.100000)"
fill="#000000" stroke="none">
<path d="M174 484 c-54 -19 -119 -76 -146 -128 -30 -57 -31 -155 -1 -212 31
-58 93 -110 154 -128 65 -20 73 -20 136 -1 66 20 136 82 159 140 9 25 14 48
10 52 -11 12 -66 12 -66 0 0 -6 -11 4 -25 23 -14 19 -25 42 -25 53 0 10 -4 15
-10 12 -17 -10 -11 -36 15 -67 29 -34 33 -82 9 -116 -38 -54 -144 -73 -218
-37 -43 21 -42 22 43 45 43 11 43 12 23 30 -17 16 -26 17 -55 9 -41 -11 -73
-1 -102 31 -45 50 -10 175 62 224 35 24 60 26 47 4 -5 -7 -2 -8 5 -4 7 5 16
19 22 32 5 14 24 31 41 39 l33 14 -35 0 c-19 0 -54 -7 -76 -15z"/>
<path d="M288 443 c6 -2 18 -2 25 0 6 3 1 5 -13 5 -14 0 -19 -2 -12 -5z"/>
<path d="M200 400 c-7 -17 -21 -35 -31 -41 -21 -11 -26 -39 -6 -39 19 0 31 13
43 45 6 17 15 38 19 48 4 9 3 17 -3 17 -5 0 -15 -14 -22 -30z"/>
<path d="M265 400 c-10 -17 4 -46 28 -58 20 -10 18 -11 -18 -12 -37 -1 -39 -2
-21 -15 19 -14 17 -15 -17 -15 -21 0 -54 -7 -74 -15 -22 -10 -39 -12 -43 -6
-13 22 -54 -36 -44 -63 15 -39 70 -26 76 17 3 19 6 17 26 -17 14 -23 26 -35
30 -29 4 7 23 -2 50 -22 34 -27 39 -34 25 -38 -14 -3 -12 -6 11 -16 16 -6 37
-9 47 -6 20 7 35 47 24 64 -9 15 -48 14 -65 -1 -8 -8 -7 -3 3 14 21 34 23 55
3 39 -11 -9 -11 -2 2 43 13 49 13 57 -3 100 -18 46 -28 55 -40 36z m33 -125
c6 -6 -38 -75 -48 -75 -11 0 -40 46 -40 64 0 8 6 17 13 20 12 5 67 -1 75 -9z"/>
</g>
</svg>
