<?xml version="1.0" standalone="no"?>
<!DOCTYPE svg PUBLIC "-//W3C//DTD SVG 20010904//EN"
 "http://www.w3.org/TR/2001/REC-SVG-20010904/DTD/svg10.dtd">
<svg version="1.0" xmlns="http://www.w3.org/2000/svg"
 width="256.000000pt" height="256.000000pt" viewBox="0 0 256.000000 256.000000"
 preserveAspectRatio="xMidYMid meet">

<g transform="translate(0.000000,256.000000) scale(0.100000,-0.100000)"
fill="#000000" stroke="none">
<path d="M1060 2541 c-248 -46 -468 -157 -650 -328 -407 -383 -518 -988 -272
-1488 178 -360 500 -607 902 -692 115 -24 361 -24 483 0 245 49 461 163 643
339 255 247 387 559 387 913 0 340 -118 634 -353 879 -179 187 -394 308 -650
367 -129 30 -355 34 -490 10z m159 -328 c15 -52 14 -70 -1 -55 -15 15 -54 16
-63 2 -4 -6 -10 -8 -15 -5 -11 7 41 94 57 95 7 0 17 -17 22 -37z m109 19 c3
-9 -3 -11 -21 -7 -32 8 -56 -25 -32 -45 12 -10 16 -9 21 4 9 23 33 20 27 -4
-7 -25 -36 -34 -63 -20 -41 22 -10 94 39 88 13 -2 26 -9 29 -16z m82 4 c0 -9
-7 -12 -20 -9 -11 3 -20 1 -20 -5 0 -5 9 -12 20 -15 11 -3 20 -12 20 -21 0
-20 -36 -39 -60 -31 -30 9 -25 28 5 21 30 -8 34 10 5 19 -23 7 -26 25 -8 43
17 17 58 15 58 -2z m70 -662 c169 -26 387 -88 526 -149 51 -23 51 -23 83 -111
18 -49 42 -123 53 -164 25 -94 32 -102 74 -94 32 6 34 5 34 -23 0 -16 -11 -63
-25 -103 -26 -76 -45 -109 -45 -77 0 9 -7 17 -15 17 -8 0 -12 -6 -9 -15 4 -10
-1 -13 -22 -12 -31 2 -34 -3 -58 -133 -33 -182 -56 -224 -152 -285 -141 -90
-271 -138 -478 -175 -167 -30 -156 -34 -156 59 l0 78 68 6 c92 8 166 32 205
67 18 15 57 65 87 109 41 61 60 80 73 77 23 -5 32 16 18 42 -12 23 -77 56 -92
46 -6 -3 -8 -15 -6 -25 4 -15 -4 -24 -36 -40 -49 -25 -203 -59 -269 -59 l-48
0 0 494 0 494 48 -5 c26 -2 90 -11 142 -19z m-530 -454 c-29 -55 6 -140 58
-140 35 1 60 20 73 58 10 28 13 30 35 20 28 -13 29 -17 8 -66 -26 -63 -61 -92
-112 -92 -36 0 -50 6 -77 33 -40 40 -59 104 -52 170 8 65 13 70 48 52 24 -13
28 -19 19 -35z m1314 -350 c27 -26 25 -76 -4 -103 -22 -20 -22 -20 -7 -1 18
22 22 44 8 44 -5 0 -11 -9 -14 -20 -4 -15 -13 -20 -39 -20 -25 0 -29 3 -18 10
13 8 13 10 -2 10 -9 0 -20 5 -23 10 -4 6 -3 10 2 9 19 -3 33 2 33 12 0 6 -9 8
-20 4 -29 -9 -26 21 5 41 14 9 22 21 19 26 -10 16 39 -2 60 -22z m-94 6 c0 -2
-8 -10 -17 -17 -16 -13 -17 -12 -4 4 13 16 21 21 21 13z m-12 -108 c6 -6 25
-14 44 -18 32 -8 32 -8 5 -9 -37 -1 -77 39 -76 76 1 27 1 27 9 -5 4 -19 12
-38 18 -44z m-1072 -82 c161 -28 368 -18 492 25 67 23 65 23 50 -1 -15 -23
-69 -42 -187 -66 -165 -32 -480 3 -523 59 -27 34 -22 37 31 17 26 -11 88 -26
137 -34z m149 -93 c123 -5 208 4 315 33 l25 7 -29 -31 c-46 -49 -117 -66 -276
-67 -153 0 -218 15 -264 64 l-27 28 63 -14 c35 -8 122 -17 193 -20z"/>
<path d="M1180 2199 c0 -5 5 -7 10 -4 6 3 10 8 10 11 0 2 -4 4 -10 4 -5 0 -10
-5 -10 -11z"/>
<path d="M1487 1228 c-122 -63 -159 -87 -163 -105 -9 -34 3 -71 25 -78 11 -3
23 -23 31 -50 7 -24 28 -62 46 -84 130 -152 335 25 275 237 -8 27 -7 36 10 53
38 38 9 109 -43 109 -13 0 -94 -37 -181 -82z m177 -99 c15 -78 -3 -150 -49
-196 -27 -27 -41 -33 -77 -33 -51 0 -86 29 -112 92 -21 49 -20 53 9 66 34 16
35 15 35 -7 0 -10 9 -30 21 -45 28 -36 70 -35 99 2 18 22 21 36 17 79 -5 43
-2 55 11 63 29 16 39 11 46 -21z"/>
<path d="M2212 698 c5 -15 28 -23 28 -10 0 5 -7 13 -16 16 -10 4 -14 1 -12 -6z"/>
</g>
</svg>
